<svg width="144" height="39" viewBox="0 0 144 39" fill="none" xmlns="http://www.w3.org/2000/svg">
<path d="M5.90897 0.608196C13.9737 0.580816 22.0408 0.608196 30.1079 0.593262C30.1008 1.78801 30.1125 2.98276 30.1032 4.18C22.033 4.17253 13.9714 4.19743 5.90662 4.16756C5.91863 2.98055 5.91941 1.7941 5.90897 0.608196Z" fill="white" fill-opacity="0.5"/>
<path d="M0.00760788 6.88784C1.11942 6.89531 2.23122 6.9003 3.34539 6.88037C3.3689 15.4505 3.37046 24.0201 3.3501 32.5891C2.23358 32.5766 1.11707 32.5742 0.000556515 32.5891C0.00760817 24.0218 -0.00884598 15.4519 0.00760788 6.88784Z" fill="white" fill-opacity="0.5"/>
<path d="M32.6639 6.95162C33.7874 6.93419 34.9086 6.86865 36.033 6.88772C36.0539 15.4529 36.0555 24.0184 36.0376 32.584C34.9117 32.584 33.7883 32.5765 32.6624 32.5791C32.6857 24.0371 32.6863 15.4947 32.6639 6.95162Z" fill="white" fill-opacity="0.5"/>
<path d="M134.505 10.7517C136.642 10.5028 138.947 10.648 140.815 11.8926C141.808 12.5472 142.471 13.6258 142.858 14.7774C141.88 15.213 140.908 15.6668 139.948 16.1398C139.457 14.9533 138.507 13.8838 137.242 13.7088C136.021 13.5586 134.674 13.4972 133.567 14.1468C132.462 14.7401 132.608 16.704 133.723 17.1868C136.401 18.2952 139.731 17.8099 141.941 20.0617C143.398 21.5294 143.439 24.0591 142.474 25.8305C141.618 27.4393 139.93 28.3195 138.273 28.6557C136.968 28.8548 135.644 28.8721 134.335 28.7071C132.22 28.4308 130.192 27.2784 128.953 25.4265C129.769 24.6632 130.576 23.8865 131.332 23.0569C132.367 24.6772 134.114 25.7467 135.973 25.7832C137.118 25.8156 138.552 25.7956 139.257 24.6624C139.806 23.8865 139.615 22.7283 138.927 22.1252C138.252 21.6148 137.417 21.4614 136.619 21.3096C134.758 20.9502 132.795 20.7287 131.15 19.6502C129.164 18.419 128.848 15.3665 130.01 13.4084C130.969 11.7864 132.776 10.9882 134.505 10.7517Z" fill="white" fill-opacity="0.5"/>
<path d="M8.1171 11.0594C9.2336 11.0419 10.3501 11.0594 11.4643 11.0444C11.4523 16.8357 11.4523 22.6266 11.4643 28.4172C10.3478 28.3948 9.23127 28.4099 8.11475 28.3974C8.15392 22.6194 8.15471 16.8401 8.1171 11.0594Z" fill="white" fill-opacity="0.5"/>
<path d="M16.3369 11.0474C17.4676 11.0598 18.5957 11.0548 19.7265 11.0474C19.7123 16.8336 19.7123 22.6195 19.7265 28.4054C18.5957 28.4054 17.4652 28.3979 16.3346 28.4127C16.3455 22.6248 16.3464 16.8364 16.3369 11.0474Z" fill="white" fill-opacity="0.5"/>
<path d="M24.6022 11.0444C25.7165 11.0594 26.8282 11.0544 27.9424 11.0444C27.9424 16.8357 27.9424 22.6258 27.9424 28.4148C26.8235 28.3974 25.707 28.3924 24.5905 28.4073C24.6164 22.6219 24.5975 16.8331 24.6022 11.0444Z" fill="white" fill-opacity="0.5"/>
<path d="M43.4552 11.0526C44.8044 11.0352 46.1537 11.0825 47.5027 11.0327C49.0636 15.3903 50.6149 19.7552 52.0574 24.1567C53.6973 19.8117 55.1351 15.3802 56.7703 11.0327C58.0865 11.0701 59.4084 11.0576 60.727 11.0452C60.7153 16.8314 60.7059 22.6202 60.7317 28.4081C59.6755 28.3956 58.6217 28.3907 57.5678 28.4131C57.6752 24.4671 57.596 20.5186 57.6211 16.5726C56.1835 20.5036 54.8318 24.4721 53.4199 28.4131C52.5243 28.3956 51.6311 28.3907 50.7356 28.4081C49.3519 24.4721 47.8562 20.5775 46.5908 16.5991C46.4796 20.5276 46.5626 24.4712 46.554 28.4055C45.5167 28.3907 44.4816 28.4006 43.4465 28.3931C43.481 22.6185 43.4623 16.8372 43.4552 11.0526Z" fill="white" fill-opacity="0.5"/>
<path d="M63.9371 11.0621C67.8938 11.0521 71.8507 11.0671 75.8097 11.0571C75.791 12.092 75.7893 13.1283 75.805 14.166C72.9766 14.1759 70.148 14.161 67.3196 14.1734C67.3266 15.4246 67.3336 16.6782 67.3196 17.932C69.9506 17.9543 72.5832 17.9444 75.2142 17.932C75.2353 18.9715 75.226 20.0136 75.2284 21.0549C72.5903 21.0473 69.9529 21.035 67.3148 21.0549C67.3383 22.4711 67.3243 23.885 67.3148 25.3012C70.192 25.3289 73.0708 25.3289 75.9516 25.3012C75.9398 26.3359 75.9422 27.3755 75.9445 28.4101C71.9391 28.3753 67.9331 28.4175 63.9277 28.3877C63.9598 22.6172 63.9464 16.8384 63.9371 11.0621Z" fill="white" fill-opacity="0.5"/>
<path d="M79.0425 11.0542C81.2826 11.0816 83.5226 11.0467 85.765 11.0716C87.3861 11.1629 89.1192 11.4607 90.3987 12.6065C91.9227 13.9838 92.1531 16.3949 91.6085 18.3314C91.2897 19.605 90.2968 20.5259 89.2313 21.115C90.4108 23.546 91.5825 25.9797 92.7462 28.4163C91.4926 28.4038 90.2436 28.4013 88.9939 28.4163C87.9331 26.2459 87.0053 23.9973 85.8598 21.8766C84.7057 21.9306 83.5524 21.8966 82.3983 21.9015C82.3983 24.0696 82.3747 26.2366 82.4124 28.4047C81.2841 28.4196 80.1558 28.3972 79.0299 28.4221C79.0543 22.6301 79.0378 16.8387 79.0425 11.0542ZM82.4038 14.0411C82.3827 15.6614 82.4085 17.2769 82.3873 18.9014C83.934 18.8101 85.537 19.1179 87.0468 18.6724C88.8639 18.1745 88.9171 14.8865 87.1001 14.358C85.5841 13.8751 83.9645 14.095 82.4038 14.0336V14.0411Z" fill="white" fill-opacity="0.5"/>
<path d="M93.974 28.4008C96.1725 22.6271 98.2958 16.8193 100.494 11.0454C101.63 11.0678 102.767 11.0703 103.902 11.0454C106.096 16.8266 108.211 22.637 110.42 28.4109C109.194 28.4058 107.971 28.4107 106.747 28.4008C106.296 27.0808 105.823 25.765 105.369 24.4449C103.209 24.44 101.048 24.4449 98.8866 24.44C98.4283 25.7674 97.9793 27.0949 97.5053 28.4133C96.3284 28.3883 95.1492 28.4208 93.974 28.4008ZM99.9012 21.4762C101.387 21.427 102.874 21.427 104.363 21.4762C103.642 19.3057 102.88 17.1486 102.079 15.0047C101.429 17.1934 100.576 19.2991 99.9012 21.4762Z" fill="white" fill-opacity="0.5"/>
<path d="M118.082 11.0542C119.229 11.0542 120.38 11.0617 121.529 11.0542C123.702 16.8379 125.839 22.6358 128.033 28.4121C126.809 28.3972 125.586 28.3997 124.364 28.4047C123.93 27.0771 123.436 25.7713 122.999 24.4437C120.835 24.4338 118.672 24.4437 116.509 24.4437C116.021 25.7538 115.599 27.0913 115.12 28.4071C113.944 28.3922 112.766 28.3946 111.589 28.4146C113.772 22.6366 115.936 16.8498 118.082 11.0542ZM117.498 21.4253C118.996 21.4892 120.497 21.3465 121.993 21.4818C121.262 19.2897 120.458 17.1242 119.706 14.9421C119.047 17.1317 118.252 19.2722 117.498 21.4253Z" fill="white" fill-opacity="0.5"/>
<path d="M5.90674 35.3127C13.9715 35.283 22.0386 35.3127 30.1057 35.2979C30.1175 36.4851 30.094 37.67 30.1127 38.8547C22.0425 38.8473 13.9762 38.8671 5.90674 38.8448C5.92085 37.6683 5.9185 36.4901 5.90674 35.3127Z" fill="white" fill-opacity="0.5"/>
</svg>
