<svg width="211" height="63" viewBox="0 0 211 63" fill="none" xmlns="http://www.w3.org/2000/svg">
<path d="M0.559082 38.3379V62.0405H16.1516V58.9951H4.01788V51.8796H13.5086V48.8341H4.01788V41.3834H16.1516V38.3379H0.559082Z" fill="white" fill-opacity="0.5"/>
<path d="M24.9666 38.3379V62.0405H37.5059V58.9951H28.458V38.3379H24.9666Z" fill="white" fill-opacity="0.5"/>
<path d="M46.3208 38.3379V62.0405H58.8648V58.9951H49.8123V38.3379H46.3208Z" fill="white" fill-opacity="0.5"/>
<path d="M71.1665 38.3379H67.6797V62.0405H71.1665V38.3379Z" fill="white" fill-opacity="0.5"/>
<path d="M121.105 38.0029C112.052 38.0029 109.376 45.2115 109.376 50.157C109.376 55.2374 112.052 62.3528 121.105 62.3528C124.899 62.3528 127.579 61.063 129.607 59.028V50.5341H121.137V53.5796H126.116V57.6775C124.649 58.7031 122.894 59.2363 121.105 59.2003C113.949 59.2003 112.896 52.4295 112.896 50.157C112.896 47.8845 113.949 41.0811 121.105 41.0811C123.375 41.0985 125.548 41.9988 127.165 43.591L129.337 41.3558C127.3 39.1159 125.095 38.0029 121.1 38.0029" fill="white" fill-opacity="0.5"/>
<path d="M136.222 38.3379V41.3834H143.103V62.0405H146.599V41.3834H153.544V38.3379H136.222Z" fill="white" fill-opacity="0.5"/>
<path d="M170.53 38.0029C161.477 38.0029 158.802 45.2115 158.802 50.157C158.802 55.2374 161.477 62.3528 170.53 62.3528C179.582 62.3528 182.259 55.2374 182.259 50.157C182.259 45.2115 179.578 38.0029 170.53 38.0029ZM170.53 59.2655C163.375 59.2655 162.322 52.4295 162.322 50.157C162.322 47.8845 163.375 41.0811 170.53 41.0811C177.686 41.0811 178.696 47.8938 178.696 50.157C178.696 52.4201 177.695 59.2655 170.53 59.2655Z" fill="white" fill-opacity="0.5"/>
<path d="M100.179 62.2269L100.562 62.0453V38.338H97.0515V54.0917L79.5943 36.6523V40.8433C79.5732 41.1085 79.6136 41.375 79.7121 41.6222C79.8107 41.8692 79.965 42.0904 80.163 42.2682L81.3238 43.4279V62.0546H84.8198V46.8924L100.179 62.2269Z" fill="white" fill-opacity="0.5"/>
<path d="M54.5298 16.6198L71.1666 0V2.88715C71.1866 3.1132 71.1513 3.34073 71.0636 3.55007C70.9759 3.7594 70.8384 3.94424 70.6631 4.08858L64.7244 10.0212L70.6631 15.9539C70.8384 16.0982 70.9759 16.283 71.0636 16.4924C71.1513 16.7017 71.1866 16.9292 71.1666 17.1553V20.0424L69.5351 18.4126L64.7244 23.2183L70.6631 29.151C70.8377 29.2948 70.9747 29.4789 71.0624 29.6874C71.1502 29.8958 71.1859 30.1224 71.1666 30.3477V33.2395L54.5298 16.6198ZM58.1191 16.6198L62.9298 21.4254L67.7403 16.6198L62.9298 11.814L58.1191 16.6198Z" fill="white" fill-opacity="0.5"/>
<path d="M209.91 62.2268L210.293 62.0451V38.3379H206.797V54.0916L191.414 38.7245L191.074 38.8874V62.0498H194.57V46.8923L209.91 62.2268Z" fill="white" fill-opacity="0.5"/>
</svg>
