<svg width="133" height="30" viewBox="0 0 133 30" fill="none" xmlns="http://www.w3.org/2000/svg">
<path d="M99.97 14.6432H86.5442V28.593H82.8389V2.30371H86.4549V12.9942H99.8981V2.30781H103.603V28.6135H99.97V14.6432Z" fill="white" fill-opacity="0.5"/>
<path d="M56.7466 2.0459C59.6581 2.22958 62.4957 2.35817 65.3141 2.61737C66.0904 2.68881 66.8668 3.08883 67.5752 3.46029C69.3842 4.39503 70.3314 5.97675 70.3994 8.08504C70.4673 10.1933 69.6229 11.8179 67.9169 12.9384C67.5694 13.165 67.2085 13.369 66.894 13.5507C68.0876 14.1446 69.3319 14.6099 70.4148 15.3365C72.6703 16.8509 73.699 19.1142 73.4932 21.9144C73.2856 24.7575 71.7037 26.6086 69.2658 27.5801C67.9821 28.1275 66.6255 28.4628 65.2442 28.574C62.4472 28.723 59.6367 28.619 56.7504 28.619L56.7466 2.0459ZM60.4344 3.8603V27.276C62.1017 27.178 63.7205 27.2169 65.2868 26.9536C66.9851 26.6699 68.3225 25.6779 69.0581 23.9473C69.7889 22.2803 69.878 20.3807 69.3068 18.6463C68.7354 16.9119 67.5481 15.4772 65.9933 14.6426C65.3897 14.314 64.753 14.0466 64.0834 13.7262C66.6068 12.4241 67.6743 9.14429 66.632 6.17473C65.9196 4.13175 63.2896 3.14801 60.4267 3.8603H60.4344Z" fill="white" fill-opacity="0.5"/>
<path d="M47.7169 14.7413C47.5946 20.5478 45.906 25.1073 41.1331 27.7503C35.1744 31.0505 28.0742 28.4626 25.1259 22.0847C22.5329 16.4782 23.6528 9.141 27.7133 5.12036C34.2485 -1.35146 44.8268 1.96505 47.123 11.2309C47.4452 12.5024 47.5675 13.827 47.7169 14.7413ZM43.9533 15.4393C43.9533 12.7637 43.5652 10.1676 42.3423 7.78784C40.9449 5.07543 38.8758 3.29779 35.8284 3.26308C32.8258 3.21615 30.5743 4.78563 29.2758 7.51232C26.7 12.9188 26.6496 18.4559 29.495 23.7582C32.2125 28.8258 38.5245 28.9912 41.7 24.2214C43.4545 21.5887 43.9339 18.5742 43.9533 15.4393Z" fill="white" fill-opacity="0.5"/>
<path d="M0.803711 25.1211C2.69422 26.3048 4.58666 27.3763 6.76055 27.5211C8.10392 27.6376 9.45625 27.4993 10.7531 27.113C13.2356 26.2966 14.3032 23.4659 13.0066 21.0963C12.2619 19.7932 11.3115 18.633 10.1961 17.6655C8.17941 15.8838 5.96087 14.3388 3.90927 12.5897C2.29244 11.2141 1.06962 9.52827 1.02886 7.18528C0.986156 4.64839 2.14686 2.89931 4.26059 1.87884C6.82461 0.627742 9.51479 0.617532 12.2186 1.28696C13.42 1.5829 13.455 2.86256 14.0237 3.73609C12.1894 2.85848 10.3358 2.19926 8.33661 2.40538C7.56776 2.46975 6.81325 2.66051 6.10061 2.97073C4.12277 3.89325 3.50166 6.14235 4.80988 7.95064C5.53581 8.95682 6.51404 9.78747 7.48259 10.5671C9.33234 12.0407 11.3141 13.3387 13.1289 14.8531C14.1987 15.7249 15.1315 16.7683 15.8928 17.9451C18.3773 21.9494 16.84 26.6762 12.5738 28.3049C9.38282 29.5295 6.16855 29.407 3.00671 28.1478C2.57193 27.9743 2.17403 27.5354 1.89259 27.1273C1.4714 26.5028 1.16667 25.7925 0.803711 25.1211Z" fill="white" fill-opacity="0.5"/>
<path d="M122.039 1.61523C125.612 10.7709 129.067 19.6265 132.596 28.6639C131.305 28.6639 130.162 28.6984 129.024 28.6332C128.815 28.6332 128.545 28.2475 128.442 27.9821C127.615 25.9229 126.802 23.8574 126.029 21.7735C125.802 21.1614 125.529 20.8857 124.847 20.8981C122.169 20.9471 119.489 20.9471 116.808 20.8981C116.134 20.8857 115.849 21.1388 115.618 21.7633C114.894 23.7207 114.044 25.6268 113.382 27.6046C113.046 28.6087 112.538 28.8536 111.523 28.5658C114.995 19.6612 118.466 10.7668 122.039 1.61523ZM120.814 8.46871C119.343 12.2485 117.974 15.761 116.571 19.3633H125.071C123.652 15.7324 122.281 12.222 120.814 8.46871Z" fill="white" fill-opacity="0.5"/>
</svg>
