<svg width="164" height="22" viewBox="0 0 164 22" fill="none" xmlns="http://www.w3.org/2000/svg">
<path d="M163.668 0.299404L163.75 0.125642H149.463C145.252 0.125642 141.667 1.05237 138.707 2.87685C135.746 4.73032 133.627 7.2788 132.324 10.6092C131.509 12.7233 131.264 14.6348 131.617 16.3723C132.025 18.1968 133.084 19.4711 134.768 20.282C136.316 21.006 138.897 21.3535 142.536 21.3535H155.439L156.715 17.994H149.463C145.959 17.994 143.623 17.5017 142.455 16.546C141.178 15.5034 141.314 13.0998 142.319 10.5513C144.058 6.14936 147.67 3.39814 152.695 3.39814H158.317L157.013 6.6996H161.305L163.804 0.328361H163.668V0.299404ZM113.637 12.8392L122.328 3.83254L124.121 12.8392H113.637ZM39.7304 12.8681L48.2048 4.23799L49.7258 12.8681H39.7304ZM121.595 0.0966797L116.298 0.125642L95.9274 20.4557L103.886 0.154604H95.1668L84.6283 8.9585L79.1959 13.708H78.9514L81.5047 6.78648L78.381 0.125642H69.6079L61.6497 20.4557L57.0322 0.125642H47.417L26.204 21.3245H31.5005L36.9327 15.7931H50.2962L51.3555 21.3245H65.5609L70.6945 8.20553C70.966 7.53944 71.2104 6.78648 71.4549 5.94664C71.4821 6.64168 71.6451 7.36569 71.971 8.11866L76.4798 19.0657H77.2403L90.1692 8.17656C90.6581 7.77113 91.3915 7.01817 92.3693 5.94664C91.8804 6.93128 91.5272 7.68424 91.31 8.20553L86.1765 21.3245H105.434L110.785 15.7642H124.664L125.778 21.3245H130.667L125.914 0.0966797H121.595ZM28.5671 16.3434C30.2782 14.6057 31.5276 12.6944 32.3696 10.5803C33.6734 7.2788 33.5647 4.70135 32.0437 2.8479C30.5227 1.02341 27.6435 0.0966797 23.4336 0.0966797H9.17377L7.87002 3.42711H17.7025C22.7273 3.42711 24.1669 6.09143 22.4285 10.4934C21.4235 13.0419 20.5544 15.3877 18.463 16.4302C16.5617 17.3859 14.5789 17.6755 11.0751 17.6755H6.53911L9.93428 9.1033H5.64278L0.835205 21.3245H13.764C17.4037 21.3245 20.2557 20.9769 22.3743 20.2529C24.6829 19.442 26.7472 18.1678 28.5671 16.3434Z" fill="white" fill-opacity="0.5"/>
</svg>
