<svg width="147" height="26" viewBox="0 0 147 26" fill="none" xmlns="http://www.w3.org/2000/svg">
<path d="M17.3499 0.264148H23.1759V25.7686H11.8472L6.41928 0.483972V25.7662H0.595703V0.261719H11.9582L17.3499 25.5464V0.264148ZM41.8106 0.264148H30.3757L25.0564 25.7686H30.8112L31.8619 20.7029H40.3306L41.3775 25.7686H47.1324L41.8106 0.264148ZM32.8364 16.151L36.0932 0.483972L39.3499 16.151H32.8364ZM60.5538 15.5316L69.2748 0.264148H62.7961L55.4504 13.1621V0.264148H49.0093V25.7686H55.4516V15.9664H59.432L62.7974 25.7662H69.3109L65.8021 15.5292H60.5562L60.5538 15.5316ZM85.0496 10.2121H80.6348L77.7399 14.9122V0.264148H71.2987V25.7686H77.7411V15.2025H85.0507V25.7686H91.4931V0.264148H85.0496V10.2121ZM94.6015 25.7698H110.632V21.0333H101.044V15.0931H108.714V10.3566H103.758L101.044 14.7288V5.00069H110.632V0.264148H94.6026V25.7686L94.6015 25.7698ZM113.163 25.7698H129.189V21.0333H119.601V15.0931H127.272V10.3566H122.314L119.6 14.7288V5.00069H129.189V0.264148H113.159V25.7686L113.163 25.7698ZM138.166 21.0333V0.264148H131.722V25.7686H146.559V21.0321H138.162L138.166 21.0333Z" fill="white" fill-opacity="0.5"/>
</svg>
