<svg width="125" height="30" viewBox="0 0 125 30" fill="none" xmlns="http://www.w3.org/2000/svg">
<path d="M18.2207 26.3496L17.8503 29.1694H0.128784C0.862034 27.2186 0.815722 26.119 0.815722 24.7091V5.32531C0.815722 3.95975 0.862034 2.76267 0.128784 0.865078H17.4181L17.4489 3.73807C17.1247 3.58733 16.8623 3.45432 16.623 3.33018C15.9824 3.05529 15.1719 2.79814 14.3307 2.80701H4.85245V13.8911H15.9747L15.4267 16.0724H4.85245V27.1653H14.8787C16.5691 27.2009 18.2516 26.1013 18.2516 26.1013L18.2053 26.3407C18.2053 26.3496 18.2131 26.3496 18.2207 26.3496ZM44.8955 29.1694C45.1349 27.7772 45.1349 25.8087 44.9419 24.2037L43.3673 10.8673L34.769 29.1604H33.1328L24.3955 10.0427L22.6974 24.4963C22.5122 26.1634 22.4582 28.2738 22.6125 29.1694H19.5406C20.1349 27.7241 20.2816 27.0944 20.5594 24.7179L23.3381 0.865078H24.7505L34.9465 23.1218L45.1349 0.865078H46.2L49.0712 24.6648C49.3568 27.0324 49.5729 27.7151 50.1441 29.1694H44.8955ZM70.7754 29.1694L66.6846 18.8036H58.4568L54.4201 29.1694H51.2092C52.2281 27.7151 52.5753 27.0411 53.2932 25.2323L62.8331 0.865078H63.906L73.2916 24.5496C74.2951 26.8639 74.7658 27.5821 76.2015 29.1694H70.7754ZM96.5163 29.1694L92.4255 18.8036H84.1978L80.1609 29.1694H76.9502C77.969 27.7151 78.3163 27.0411 79.0341 25.2323L88.5741 0.865078H89.647L99.0402 24.5496C100.044 26.8639 100.514 27.5821 101.95 29.1694H96.5163ZM119.841 29.1871C117.379 26.6067 114.191 23.1839 110.201 17.7572C109.059 16.2231 108.256 16.028 107.739 15.9926V24.7091C107.739 26.1101 107.739 27.2186 108.434 29.1694H103.015C103.748 27.2186 103.702 26.119 103.702 24.7091V5.30757C103.702 3.94202 103.748 2.74494 103.015 0.847344H108.325C111.953 0.847344 120.528 0.474919 120.528 8.61505C120.528 12.9157 117.557 15.23 114.068 15.8153L113.034 15.9305C113.034 15.9305 124.349 28.6374 124.835 29.1871H119.841ZM113.427 14.1926L113.42 14.2014C115.704 13.2083 116.476 10.7166 116.399 8.6062C116.314 6.57559 115.519 2.1597 107.747 2.51439V14.5827C107.747 14.5827 112.1 14.8576 113.319 14.2458C113.389 14.2103 113.427 14.1926 113.427 14.1926ZM84.985 16.8261H91.6305L88.2808 8.37565L84.985 16.8261ZM59.2518 16.8261H65.8974L62.5476 8.37565L59.2518 16.8261Z" fill="white" fill-opacity="0.5"/>
</svg>
