<?xml version="1.0" encoding="utf-8"?>
<!-- Generator: Adobe Illustrator 22.1.0, SVG Export Plug-In . SVG Version: 6.00 Build 0)  -->
<svg version="1.1" id="Слой_1" xmlns="http://www.w3.org/2000/svg" xmlns:xlink="http://www.w3.org/1999/xlink" x="0px" y="0px"
	 viewBox="0 0 247 110" style="enable-background:new 0 0 247 110;" xml:space="preserve">
<style type="text/css">
	.st0{fill:url(#SVGID_1_);}
	.st1{fill:url(#SVGID_2_);}
	.st2{fill:url(#SVGID_3_);}
	.st3{fill:url(#SVGID_4_);}
	.st4{fill:url(#SVGID_5_);}
	.st5{fill:url(#SVGID_6_);}
	.st6{fill:url(#SVGID_7_);}
	.st7{fill:url(#SVGID_8_);}
	.st8{fill:url(#SVGID_9_);}
	.st9{fill:url(#SVGID_10_);}
	.st10{fill:url(#SVGID_11_);}
	.st11{fill:url(#SVGID_12_);}
	.st12{fill:url(#SVGID_13_);}
	.st13{fill:url(#SVGID_14_);}
	.st14{fill:url(#SVGID_15_);}
	.st15{fill:url(#SVGID_16_);}
	.st16{fill:url(#SVGID_17_);}
	.st17{fill:url(#SVGID_18_);}
	.st18{fill:url(#SVGID_19_);}
	.st19{fill:url(#SVGID_20_);}
	.st20{fill:url(#SVGID_21_);}
	.st21{fill:url(#SVGID_22_);}
	.st22{fill:url(#SVGID_23_);}
	.st23{fill:url(#SVGID_24_);}
	.st24{fill:url(#SVGID_25_);}
	.st25{fill:url(#SVGID_26_);}
	.st26{fill:url(#SVGID_27_);}
</style>
<linearGradient id="SVGID_1_" gradientUnits="userSpaceOnUse" x1="132.658" y1="-5.9895" x2="114.342" y2="124.9898" gradientTransform="matrix(1 0 0 -1 0 112)">
	<stop  offset="0" style="stop-color:#DBBB95"/>
	<stop  offset="1" style="stop-color:#B4844B"/>
</linearGradient>
<path class="st0" d="M246,4h-83V3h83h1v1v97v1V68h-1V4z M129,101H1l0-58H0l0,58l0,1h1h128V101z"/>
<linearGradient id="SVGID_2_" gradientUnits="userSpaceOnUse" x1="76.9331" y1="56.5795" x2="202.928" y2="44.8418" gradientTransform="matrix(1 0 0 -1 0 112)">
	<stop  offset="0" style="stop-color:#DBBB95"/>
	<stop  offset="1" style="stop-color:#B4844B"/>
</linearGradient>
<path class="st1" d="M54.6,59.7c0,0.6,0.1,1,0.2,1.3c0.1,0.3,0.3,0.4,0.6,0.5c0.3,0.1,0.9,0.1,1.6,0.1c0.1,0,0.1,0.1,0.1,0.2
	S57,62,57,62c-0.6,0-1,0-1.3,0l-2,0l-1.9,0c-0.3,0-0.8,0-1.4,0c-0.1,0-0.1-0.1-0.1-0.2s0-0.2,0.1-0.2c0.7,0,1.2,0,1.5-0.1
	c0.3-0.1,0.6-0.3,0.7-0.5c0.1-0.3,0.2-0.7,0.2-1.3v-13c0-0.6-0.1-1-0.2-1.2c-0.1-0.3-0.3-0.4-0.7-0.5c-0.3-0.1-0.8-0.2-1.5-0.2
	c-0.1,0-0.1-0.1-0.1-0.2s0-0.2,0.1-0.2l1.4,0c0.8,0,1.4,0.1,1.9,0.1c0.6,0,1.2,0,2-0.1l1.3,0c0.1,0,0.1,0.1,0.1,0.2s0,0.2-0.1,0.2
	c-0.7,0-1.2,0.1-1.5,0.2c-0.3,0.1-0.5,0.3-0.7,0.6c-0.1,0.3-0.2,0.7-0.2,1.2V59.7z"/>
<linearGradient id="SVGID_3_" gradientUnits="userSpaceOnUse" x1="76.7497" y1="54.6111" x2="202.7446" y2="42.8734" gradientTransform="matrix(1 0 0 -1 0 112)">
	<stop  offset="0" style="stop-color:#DBBB95"/>
	<stop  offset="1" style="stop-color:#B4844B"/>
</linearGradient>
<path class="st2" d="M75,61.7c0.1,0,0.1,0.1,0.1,0.2S75,62,75,62c-0.4,0-0.8,0-1,0l-1.5,0l-1.5,0c-0.2,0-0.6,0-1,0
	c-0.1,0-0.1-0.1-0.1-0.2s0-0.2,0.1-0.2c0.5,0,0.9,0,1.1-0.1c0.2-0.1,0.4-0.3,0.5-0.6c0.1-0.3,0.1-0.7,0.1-1.2v-4.5
	c0-1.1-0.2-1.9-0.6-2.4C70.6,52.2,69.9,52,69,52c-0.6,0-1.2,0.2-1.8,0.5c-0.6,0.3-1.1,0.7-1.6,1.3v6c0,0.6,0,1,0.1,1.2
	c0.1,0.3,0.3,0.4,0.5,0.6c0.2,0.1,0.6,0.1,1.1,0.1c0.1,0,0.1,0.1,0.1,0.2s0,0.2-0.1,0.2c-0.4,0-0.8,0-1,0l-1.5,0l-1.5,0
	c-0.2,0-0.6,0-1,0c-0.1,0-0.1-0.1-0.1-0.2s0-0.2,0.1-0.2c0.5,0,0.9,0,1.1-0.1c0.2-0.1,0.4-0.3,0.5-0.6c0.1-0.3,0.1-0.7,0.1-1.2v-5.5
	c0-0.6-0.1-1.1-0.2-1.4c-0.1-0.3-0.4-0.4-0.8-0.4c-0.3,0-0.8,0.1-1.5,0.4h-0.1c-0.1,0-0.1,0-0.2-0.1c0-0.1,0-0.2,0.1-0.2l3.2-1.5
	l0.2,0c0.2,0,0.3,0.2,0.5,0.6c0.2,0.4,0.3,1,0.3,1.7c0.7-0.8,1.4-1.4,2.1-1.8c0.7-0.4,1.4-0.6,2.2-0.6c1,0,1.8,0.3,2.4,0.9
	c0.6,0.6,0.8,1.4,0.8,2.5v5.5c0,0.6,0,1,0.1,1.2c0.1,0.3,0.3,0.4,0.5,0.6C74.1,61.6,74.5,61.7,75,61.7z"/>
<linearGradient id="SVGID_4_" gradientUnits="userSpaceOnUse" x1="76.9096" y1="56.3281" x2="202.9046" y2="44.5904" gradientTransform="matrix(1 0 0 -1 0 112)">
	<stop  offset="0" style="stop-color:#DBBB95"/>
	<stop  offset="1" style="stop-color:#B4844B"/>
</linearGradient>
<path class="st3" d="M90.4,51.2c0,0,0.1,0.1,0.1,0.2s0,0.2-0.1,0.2c-0.5,0-0.9,0.2-1.2,0.5c-0.3,0.3-0.7,0.8-1,1.6L84.8,62
	c0,0.1-0.1,0.1-0.3,0.1s-0.3,0-0.3-0.1l-3.9-8.5c-0.4-0.8-0.7-1.3-1-1.6c-0.2-0.3-0.6-0.4-0.9-0.4c-0.1,0-0.1-0.1-0.1-0.2
	s0-0.2,0.1-0.2c0.4,0,0.7,0,0.9,0l1.1,0l1.8,0c0.3,0,0.7,0,1.1,0c0.1,0,0.1,0.1,0.1,0.2s0,0.2-0.1,0.2c-1.1,0-1.7,0.2-1.7,0.7
	c0,0.1,0,0.3,0.1,0.4l3.4,7.2l2.6-6.4c0.1-0.4,0.2-0.6,0.2-0.8c0-0.4-0.2-0.6-0.5-0.8c-0.4-0.2-0.9-0.3-1.7-0.3c0,0-0.1-0.1-0.1-0.2
	s0-0.2,0.1-0.2c0.5,0,0.9,0,1.1,0l1.7,0l1,0C89.7,51.2,90,51.2,90.4,51.2z"/>
<linearGradient id="SVGID_5_" gradientUnits="userSpaceOnUse" x1="77.0174" y1="57.4843" x2="203.0123" y2="45.7466" gradientTransform="matrix(1 0 0 -1 0 112)">
	<stop  offset="0" style="stop-color:#DBBB95"/>
	<stop  offset="1" style="stop-color:#B4844B"/>
</linearGradient>
<path class="st4" d="M103.4,60.4c0.1,0,0.1,0,0.1,0.1c0.1,0.1,0.1,0.1,0,0.2c-1.2,1.1-2.6,1.6-4.1,1.6c-1.1,0-2-0.3-2.8-0.8
	c-0.8-0.5-1.4-1.2-1.8-2c-0.4-0.8-0.6-1.7-0.6-2.6c0-1.1,0.3-2.1,0.8-3c0.5-0.9,1.2-1.7,2.1-2.2c0.9-0.5,1.9-0.8,3-0.8
	c1,0,1.8,0.3,2.4,0.8c0.6,0.6,0.8,1.3,0.8,2.4c0,0.3,0,0.4-0.1,0.6c0,0.1-0.1,0.2-0.2,0.2l-6.9,0c0,0.4-0.1,0.7-0.1,1
	c0,1.6,0.4,2.9,1.1,3.9c0.8,1,1.8,1.5,3.2,1.5c0.6,0,1-0.1,1.4-0.2C102.4,61,102.8,60.7,103.4,60.4L103.4,60.4z M99.3,51.5
	c-0.8,0-1.5,0.3-2,0.8c-0.5,0.5-0.9,1.3-1,2.2l5.3-0.1c0-1-0.2-1.7-0.6-2.2C100.6,51.8,100,51.5,99.3,51.5z"/>
<linearGradient id="SVGID_6_" gradientUnits="userSpaceOnUse" x1="77.1305" y1="58.699" x2="203.1254" y2="46.9613" gradientTransform="matrix(1 0 0 -1 0 112)">
	<stop  offset="0" style="stop-color:#DBBB95"/>
	<stop  offset="1" style="stop-color:#B4844B"/>
</linearGradient>
<path class="st5" d="M110.4,52.9c0,0.7,0.2,1.2,0.6,1.6c0.4,0.4,1.1,0.8,1.9,1.2c0.7,0.3,1.2,0.6,1.5,0.9c0.4,0.2,0.7,0.6,1,1
	c0.3,0.4,0.4,0.9,0.4,1.4c0,1-0.4,1.8-1.1,2.4c-0.7,0.7-1.7,1-2.9,1c-1,0-1.9-0.3-2.7-0.8c-0.1-0.1-0.2-0.2-0.2-0.3l-0.1-2.2
	c0-0.1,0-0.1,0.1-0.1c0.1,0,0.2,0,0.2,0.1c0.4,0.9,0.8,1.6,1.4,2.1c0.6,0.5,1.2,0.7,2,0.7c0.6,0,1.1-0.1,1.4-0.4
	c0.3-0.3,0.5-0.7,0.4-1.3c0-0.7-0.2-1.3-0.7-1.6c-0.4-0.4-1-0.8-1.9-1.2c-0.6-0.3-1.1-0.6-1.5-0.8c-0.4-0.2-0.7-0.6-0.9-1
	c-0.2-0.4-0.4-0.9-0.4-1.5c0-1,0.4-1.8,1.1-2.3c0.8-0.5,1.7-0.8,2.7-0.8c0.7,0,1.4,0.1,2,0.4c0.1,0,0.2,0.1,0.2,0.1
	c0,0,0.1,0.1,0.1,0.2c0,0.4,0,0.7,0,0.9l0,1.2c0,0-0.1,0.1-0.2,0.1c-0.1,0-0.2,0-0.2-0.1c0-0.4-0.1-0.8-0.4-1.1
	c-0.3-0.4-0.7-0.6-1.1-0.8c-0.4-0.2-0.9-0.3-1.3-0.3c-0.5,0-0.8,0.1-1.1,0.4C110.5,52,110.4,52.4,110.4,52.9z"/>
<linearGradient id="SVGID_7_" gradientUnits="userSpaceOnUse" x1="77.3022" y1="60.5413" x2="203.2971" y2="48.8036" gradientTransform="matrix(1 0 0 -1 0 112)">
	<stop  offset="0" style="stop-color:#DBBB95"/>
	<stop  offset="1" style="stop-color:#B4844B"/>
</linearGradient>
<path class="st6" d="M128.5,60.5c0.1,0,0.1,0,0.2,0.1c0,0.1,0,0.1,0,0.2c-0.7,0.5-1.3,0.9-1.9,1.1c-0.5,0.2-1.1,0.3-1.7,0.3
	c-0.8,0-1.4-0.2-1.9-0.5c-0.5-0.4-0.8-0.9-0.8-1.8v-6.6c0-0.5,0-0.8-0.1-1c-0.1-0.2-0.2-0.3-0.4-0.4c-0.2-0.1-0.5-0.1-1-0.1
	c-0.1,0-0.1-0.1-0.1-0.2c0-0.1,0-0.2,0.1-0.2c0.7,0,1.4-0.2,1.8-0.6c0.5-0.4,0.7-0.9,0.8-1.5c0-0.1,0.1-0.1,0.2-0.1
	c0.1,0,0.2,0,0.2,0.1v2.1c0.9,0,2.2-0.1,3.9-0.3c0,0,0.1,0.1,0.1,0.2c0.1,0.1,0.1,0.3,0.1,0.4c0,0.1,0,0.3-0.1,0.5
	c-0.1,0.1-0.1,0.2-0.2,0.2c-1-0.3-2.3-0.4-3.8-0.4v7c0,0.8,0.2,1.3,0.6,1.7c0.4,0.4,0.9,0.6,1.7,0.6C127,61.4,127.8,61.1,128.5,60.5
	L128.5,60.5z"/>
<linearGradient id="SVGID_8_" gradientUnits="userSpaceOnUse" x1="77.3867" y1="61.449" x2="203.3816" y2="49.7113" gradientTransform="matrix(1 0 0 -1 0 112)">
	<stop  offset="0" style="stop-color:#DBBB95"/>
	<stop  offset="1" style="stop-color:#B4844B"/>
</linearGradient>
<path class="st7" d="M152.8,61.7c0.1,0,0.1,0.1,0.1,0.2s0,0.2-0.1,0.2c-0.4,0-0.8,0-1,0l-1.5,0l-1.5,0c-0.3,0-0.6,0-1,0
	c-0.1,0-0.1-0.1-0.1-0.2s0-0.2,0.1-0.2c0.5,0,0.9,0,1.1-0.1c0.2-0.1,0.4-0.3,0.5-0.6c0.1-0.3,0.1-0.7,0.1-1.2v-4.5
	c0-1.1-0.2-1.9-0.6-2.4c-0.4-0.5-1-0.8-1.8-0.8c-0.6,0-1.1,0.2-1.7,0.5c-0.6,0.3-1.1,0.7-1.6,1.3c0,0.1,0,0.2,0,0.4v5.5
	c0,0.6,0,1,0.1,1.2c0.1,0.3,0.3,0.4,0.5,0.6c0.2,0.1,0.6,0.1,1.1,0.1c0.1,0,0.1,0.1,0.1,0.2s0,0.2-0.1,0.2c-0.4,0-0.8,0-1,0l-1.5,0
	l-1.5,0c-0.2,0-0.6,0-1,0c-0.1,0-0.1-0.1-0.1-0.2s0-0.2,0.1-0.2c0.5,0,0.9,0,1.1-0.1c0.2-0.1,0.4-0.3,0.5-0.6
	c0.1-0.3,0.1-0.7,0.1-1.2v-4.5c0-1.1-0.2-1.9-0.6-2.4c-0.4-0.5-1-0.8-1.8-0.8c-0.6,0-1.1,0.1-1.7,0.4c-0.6,0.3-1.1,0.7-1.5,1.3v6
	c0,0.6,0,1,0.1,1.2c0.1,0.3,0.3,0.4,0.5,0.6c0.2,0.1,0.6,0.1,1.1,0.1c0.1,0,0.1,0.1,0.1,0.2s0,0.2-0.1,0.2c-0.4,0-0.8,0-1,0l-1.5,0
	l-1.5,0c-0.2,0-0.6,0-1,0c-0.1,0-0.1-0.1-0.1-0.2s0-0.2,0.1-0.2c0.5,0,0.9,0,1.1-0.1c0.2-0.1,0.4-0.3,0.5-0.6
	c0.1-0.3,0.1-0.7,0.1-1.2v-5.5c0-0.6-0.1-1.1-0.2-1.4c-0.1-0.3-0.4-0.4-0.8-0.4c-0.3,0-0.8,0.1-1.5,0.4h-0.1c-0.1,0-0.1,0-0.2-0.1
	c0-0.1,0-0.2,0.1-0.2l3.2-1.5l0.2,0c0.2,0,0.3,0.2,0.5,0.6c0.2,0.4,0.3,1,0.3,1.7v0c0.7-0.8,1.3-1.4,2-1.8s1.4-0.6,2.1-0.6
	c0.8,0,1.5,0.2,2,0.6s0.8,1,1,1.8c0.7-0.8,1.4-1.5,2.1-1.8c0.7-0.4,1.4-0.6,2.2-0.6c1,0,1.7,0.3,2.3,0.9c0.5,0.6,0.8,1.4,0.8,2.5
	v5.4c0,0.6,0,1,0.1,1.2c0.1,0.3,0.3,0.4,0.5,0.6C152,61.6,152.3,61.7,152.8,61.7z"/>
<linearGradient id="SVGID_9_" gradientUnits="userSpaceOnUse" x1="77.5586" y1="63.2943" x2="203.5535" y2="51.5566" gradientTransform="matrix(1 0 0 -1 0 112)">
	<stop  offset="0" style="stop-color:#DBBB95"/>
	<stop  offset="1" style="stop-color:#B4844B"/>
</linearGradient>
<path class="st8" d="M166.3,60.4c0.1,0,0.1,0,0.1,0.1c0.1,0.1,0.1,0.1,0,0.2c-1.2,1.1-2.6,1.6-4.1,1.6c-1.1,0-2-0.3-2.8-0.8
	c-0.8-0.5-1.4-1.2-1.8-2c-0.4-0.8-0.6-1.7-0.6-2.6c0-1.1,0.3-2.1,0.8-3c0.5-0.9,1.2-1.7,2.1-2.2c0.9-0.5,1.9-0.8,3-0.8
	c1,0,1.8,0.3,2.4,0.8c0.6,0.6,0.8,1.3,0.8,2.4c0,0.3,0,0.4-0.1,0.6c0,0.1-0.1,0.2-0.2,0.2l-6.9,0c0,0.4-0.1,0.7-0.1,1
	c0,1.6,0.4,2.9,1.1,3.9c0.8,1,1.8,1.5,3.2,1.5c0.6,0,1-0.1,1.4-0.2C165.3,61,165.7,60.7,166.3,60.4L166.3,60.4z M162.2,51.5
	c-0.8,0-1.5,0.3-2,0.8c-0.5,0.5-0.9,1.3-1,2.2l5.3-0.1c0-1-0.2-1.7-0.6-2.2C163.5,51.8,162.9,51.5,162.2,51.5z"/>
<linearGradient id="SVGID_10_" gradientUnits="userSpaceOnUse" x1="77.6905" y1="64.7098" x2="203.6854" y2="52.9721" gradientTransform="matrix(1 0 0 -1 0 112)">
	<stop  offset="0" style="stop-color:#DBBB95"/>
	<stop  offset="1" style="stop-color:#B4844B"/>
</linearGradient>
<path class="st9" d="M184.3,61.7c0.1,0,0.1,0.1,0.1,0.2s0,0.2-0.1,0.2c-0.4,0-0.8,0-1,0l-1.5,0l-1.5,0c-0.2,0-0.6,0-1,0
	c-0.1,0-0.1-0.1-0.1-0.2s0-0.2,0.1-0.2c0.5,0,0.9,0,1.1-0.1c0.2-0.1,0.4-0.3,0.5-0.6c0.1-0.3,0.1-0.7,0.1-1.2v-4.5
	c0-1.1-0.2-1.9-0.6-2.4c-0.4-0.5-1.1-0.8-1.9-0.8c-0.6,0-1.2,0.2-1.8,0.5c-0.6,0.3-1.1,0.7-1.6,1.3v6c0,0.6,0,1,0.1,1.2
	c0.1,0.3,0.3,0.4,0.5,0.6c0.2,0.1,0.6,0.1,1.1,0.1c0.1,0,0.1,0.1,0.1,0.2s0,0.2-0.1,0.2c-0.4,0-0.8,0-1,0l-1.5,0l-1.5,0
	c-0.2,0-0.6,0-1,0c-0.1,0-0.1-0.1-0.1-0.2s0-0.2,0.1-0.2c0.5,0,0.9,0,1.1-0.1c0.2-0.1,0.4-0.3,0.5-0.6c0.1-0.3,0.1-0.7,0.1-1.2v-5.5
	c0-0.6-0.1-1.1-0.2-1.4c-0.1-0.3-0.4-0.4-0.8-0.4c-0.3,0-0.8,0.1-1.5,0.4h-0.1c-0.1,0-0.1,0-0.2-0.1c0-0.1,0-0.2,0.1-0.2l3.2-1.5
	l0.2,0c0.2,0,0.3,0.2,0.5,0.6c0.2,0.4,0.3,1,0.3,1.7c0.7-0.8,1.4-1.4,2.1-1.8c0.7-0.4,1.4-0.6,2.2-0.6c1,0,1.8,0.3,2.4,0.9
	c0.6,0.6,0.8,1.4,0.8,2.5v5.5c0,0.6,0,1,0.1,1.2c0.1,0.3,0.3,0.4,0.5,0.6C183.4,61.6,183.8,61.7,184.3,61.7z"/>
<linearGradient id="SVGID_11_" gradientUnits="userSpaceOnUse" x1="77.8865" y1="66.8134" x2="203.8814" y2="55.0757" gradientTransform="matrix(1 0 0 -1 0 112)">
	<stop  offset="0" style="stop-color:#DBBB95"/>
	<stop  offset="1" style="stop-color:#B4844B"/>
</linearGradient>
<path class="st10" d="M196.4,60.5c0.1,0,0.1,0,0.2,0.1c0,0.1,0,0.1,0,0.2c-0.7,0.5-1.3,0.9-1.9,1.1c-0.5,0.2-1.1,0.3-1.7,0.3
	c-0.8,0-1.4-0.2-1.9-0.5c-0.5-0.4-0.8-0.9-0.8-1.8v-6.6c0-0.5,0-0.8-0.1-1c-0.1-0.2-0.2-0.3-0.4-0.4c-0.2-0.1-0.5-0.1-1-0.1
	c-0.1,0-0.1-0.1-0.1-0.2c0-0.1,0-0.2,0.1-0.2c0.7,0,1.4-0.2,1.8-0.6c0.5-0.4,0.7-0.9,0.8-1.5c0-0.1,0.1-0.1,0.2-0.1
	c0.1,0,0.2,0,0.2,0.1v2.1c0.9,0,2.2-0.1,3.9-0.3c0,0,0.1,0.1,0.1,0.2c0.1,0.1,0.1,0.3,0.1,0.4c0,0.1,0,0.3-0.1,0.5
	c-0.1,0.1-0.1,0.2-0.2,0.2c-1-0.3-2.3-0.4-3.8-0.4v7c0,0.8,0.2,1.3,0.6,1.7c0.4,0.4,0.9,0.6,1.7,0.6
	C194.9,61.4,195.7,61.1,196.4,60.5L196.4,60.5z"/>
<linearGradient id="SVGID_12_" gradientUnits="userSpaceOnUse" x1="77.9258" y1="67.2359" x2="203.9207" y2="55.4982" gradientTransform="matrix(1 0 0 -1 0 112)">
	<stop  offset="0" style="stop-color:#DBBB95"/>
	<stop  offset="1" style="stop-color:#B4844B"/>
</linearGradient>
<path class="st11" d="M202.8,52.9c0,0.7,0.2,1.2,0.6,1.6c0.4,0.4,1.1,0.8,1.9,1.2c0.7,0.3,1.2,0.6,1.5,0.9c0.4,0.2,0.7,0.6,1,1
	c0.3,0.4,0.4,0.9,0.4,1.4c0,1-0.4,1.8-1.1,2.4c-0.7,0.7-1.7,1-2.9,1c-1,0-1.9-0.3-2.7-0.8c-0.1-0.1-0.2-0.2-0.2-0.3l-0.1-2.2
	c0-0.1,0-0.1,0.1-0.1c0.1,0,0.2,0,0.2,0.1c0.4,0.9,0.8,1.6,1.4,2.1c0.6,0.5,1.2,0.7,2,0.7c0.6,0,1.1-0.1,1.4-0.4
	c0.3-0.3,0.5-0.7,0.4-1.3c0-0.7-0.2-1.3-0.7-1.6c-0.4-0.4-1-0.8-1.9-1.2c-0.6-0.3-1.1-0.6-1.5-0.8c-0.4-0.2-0.7-0.6-0.9-1
	c-0.2-0.4-0.4-0.9-0.4-1.5c0-1,0.4-1.8,1.1-2.3c0.8-0.5,1.7-0.8,2.7-0.8c0.7,0,1.4,0.1,2,0.4c0.1,0,0.2,0.1,0.2,0.1
	c0,0,0.1,0.1,0.1,0.2c0,0.4,0,0.7,0,0.9l0,1.2c0,0-0.1,0.1-0.2,0.1s-0.2,0-0.2-0.1c0-0.4-0.1-0.8-0.4-1.1c-0.3-0.4-0.7-0.6-1.1-0.8
	s-0.9-0.3-1.3-0.3c-0.5,0-0.8,0.1-1.1,0.4C202.9,52,202.8,52.4,202.8,52.9z"/>
<linearGradient id="SVGID_13_" gradientUnits="userSpaceOnUse" x1="154.3666" y1="19.2661" x2="232.4236" y2="14.7851" gradientTransform="matrix(1 0 0 -1 0 112)">
	<stop  offset="0" style="stop-color:#DBBB95"/>
	<stop  offset="1" style="stop-color:#B4844B"/>
</linearGradient>
<path class="st12" d="M175.2,101.7c0.1,0,0.1,0.1,0.1,0.2s0,0.2-0.1,0.2c-0.4,0-0.9,0-1.7-0.1c-0.7,0-1.3-0.1-1.6-0.1
	c-0.4,0-0.9,0-1.6,0.1c-0.6,0-1.1,0.1-1.4,0.1c-0.1,0-0.1-0.1-0.1-0.2s0-0.2,0.1-0.2c0.7,0,1.2-0.1,1.5-0.2c0.3-0.1,0.5-0.4,0.5-0.7
	c0-0.3-0.1-0.7-0.4-1.2l-2.5-5.3h-6.7l-1.8,4.1c-0.3,0.6-0.4,1.1-0.4,1.5c0,0.6,0.2,1,0.7,1.3c0.5,0.3,1.2,0.4,2.1,0.4
	c0.1,0,0.1,0.1,0.1,0.2s0,0.2-0.1,0.2c-0.3,0-0.8,0-1.5-0.1c-0.7,0-1.3-0.1-1.8-0.1c-0.5,0-1,0-1.7,0.1c-0.6,0-1,0.1-1.4,0.1
	c-0.1,0-0.1-0.1-0.1-0.2s0-0.2,0.1-0.2c0.5,0,1-0.1,1.3-0.3c0.4-0.2,0.7-0.6,1-1c0.3-0.5,0.7-1.2,1.1-2.2l5.9-13.9
	c0-0.1,0.1-0.1,0.2-0.1s0.1,0,0.2,0.1l6.6,13.9c0.6,1.4,1.2,2.3,1.6,2.8C174,101.4,174.6,101.7,175.2,101.7z M161.7,93.7h6.2
	l-3.3-6.9L161.7,93.7z"/>
<linearGradient id="SVGID_14_" gradientUnits="userSpaceOnUse" x1="154.0332" y1="13.4579" x2="232.0902" y2="8.9769" gradientTransform="matrix(1 0 0 -1 0 112)">
	<stop  offset="0" style="stop-color:#DBBB95"/>
	<stop  offset="1" style="stop-color:#B4844B"/>
</linearGradient>
<path class="st13" d="M185.1,101.3c1,0,1.8,0.1,2.4,0.2c0.6,0.1,1.2,0.3,1.7,0.7c0.5,0.4,0.8,1.1,0.8,2c0,1-0.3,1.9-1,2.8
	c-0.7,0.9-1.5,1.6-2.6,2.1c-1.1,0.5-2.2,0.8-3.4,0.8c-1.3,0-2.3-0.3-3.1-0.9c-0.7-0.6-1.1-1.3-1.1-2.2c0-1.4,1-2.7,2.9-4.1
	c-0.7-0.1-1.3-0.3-1.6-0.6c-0.4-0.3-0.6-0.7-0.6-1.3c0-0.6,0.2-1.1,0.5-1.5c0.3-0.4,0.8-1,1.5-1.5c-0.6-0.3-1.1-0.8-1.5-1.3
	s-0.5-1.2-0.5-1.8c0-1,0.4-1.9,1.2-2.6c0.8-0.7,1.9-1,3.2-1c1.2,0,2.2,0.3,2.9,0.9c0.5-0.3,1-0.5,1.5-0.7c0.5-0.1,1-0.2,1.5-0.2
	c0,0,0.1,0.1,0.1,0.2c0,0.1,0.1,0.3,0.1,0.4c0,0.2,0,0.4-0.1,0.7c0,0.2-0.1,0.3-0.2,0.3c-0.3-0.1-0.6-0.2-0.9-0.3
	c-0.3-0.1-0.6-0.1-1-0.1c-0.2,0-0.4,0-0.7,0.1c0.6,0.7,1,1.5,1,2.4c0,0.7-0.2,1.3-0.6,1.8c-0.4,0.6-0.9,1-1.5,1.3
	c-0.7,0.3-1.4,0.5-2.3,0.5c-0.7,0-1.3-0.1-1.8-0.3c-0.4,0.3-0.6,0.6-0.8,0.9c-0.1,0.3-0.2,0.6-0.2,0.9c0,0.4,0.1,0.7,0.4,1
	c0.3,0.2,0.7,0.4,1.3,0.4C183.3,101.3,184.1,101.3,185.1,101.3z M183.5,91.4c-1.4,0-2,0.8-2,2.5c0,0.8,0.1,1.6,0.4,2.2
	c0.3,0.6,0.7,1,1.1,1.3c0.5,0.3,1,0.4,1.5,0.4c0.6,0,1.1-0.2,1.5-0.6c0.4-0.4,0.6-1.1,0.6-2c0-1.2-0.3-2.1-0.9-2.7
	C185.1,91.8,184.3,91.4,183.5,91.4z M184.3,109c1.3,0,2.3-0.3,3.2-1c0.8-0.7,1.2-1.6,1.2-2.7c0-0.7-0.2-1.3-0.6-1.7
	c-0.4-0.3-0.8-0.6-1.4-0.6c-0.6-0.1-1.4-0.1-2.5-0.1c-0.4,0-1,0-1.7-0.1c-0.6,0.4-1.1,0.8-1.4,1.3c-0.3,0.5-0.5,1.1-0.5,1.8
	c0,1,0.3,1.7,1,2.3C182.2,108.7,183.1,109,184.3,109z"/>
<linearGradient id="SVGID_15_" gradientUnits="userSpaceOnUse" x1="154.2916" y1="17.9592" x2="232.3486" y2="13.4782" gradientTransform="matrix(1 0 0 -1 0 112)">
	<stop  offset="0" style="stop-color:#DBBB95"/>
	<stop  offset="1" style="stop-color:#B4844B"/>
</linearGradient>
<path class="st14" d="M203.1,100.4c0.1,0,0.1,0,0.1,0.1c0.1,0.1,0.1,0.1,0,0.2c-1.2,1.1-2.6,1.6-4.1,1.6c-1.1,0-2-0.3-2.8-0.8
	c-0.8-0.5-1.4-1.2-1.8-2c-0.4-0.8-0.6-1.7-0.6-2.6c0-1.1,0.3-2.1,0.8-3c0.5-0.9,1.2-1.7,2.1-2.2c0.9-0.5,1.9-0.8,3-0.8
	c1,0,1.8,0.3,2.4,0.8c0.6,0.6,0.8,1.3,0.8,2.4c0,0.3,0,0.4-0.1,0.6c0,0.1-0.1,0.2-0.2,0.2l-6.9,0c0,0.4-0.1,0.7-0.1,1
	c0,1.6,0.4,2.9,1.1,3.9c0.8,1,1.8,1.5,3.2,1.5c0.6,0,1-0.1,1.4-0.2C202.1,101,202.5,100.7,203.1,100.4L203.1,100.4z M199,91.5
	c-0.8,0-1.5,0.3-2,0.8c-0.5,0.5-0.9,1.3-1,2.2l5.3-0.1c0-1-0.2-1.7-0.6-2.2C200.3,91.8,199.7,91.5,199,91.5z"/>
<linearGradient id="SVGID_16_" gradientUnits="userSpaceOnUse" x1="154.3467" y1="18.9186" x2="232.4037" y2="14.4376" gradientTransform="matrix(1 0 0 -1 0 112)">
	<stop  offset="0" style="stop-color:#DBBB95"/>
	<stop  offset="1" style="stop-color:#B4844B"/>
</linearGradient>
<path class="st15" d="M221.1,101.7c0.1,0,0.1,0.1,0.1,0.2s0,0.2-0.1,0.2c-0.4,0-0.8,0-1,0l-1.5,0l-1.5,0c-0.2,0-0.6,0-1,0
	c-0.1,0-0.1-0.1-0.1-0.2s0-0.2,0.1-0.2c0.5,0,0.9,0,1.1-0.1c0.2-0.1,0.4-0.3,0.5-0.6c0.1-0.3,0.1-0.7,0.1-1.2v-4.5
	c0-1.1-0.2-1.9-0.6-2.4c-0.4-0.5-1.1-0.8-1.9-0.8c-0.6,0-1.2,0.2-1.8,0.5c-0.6,0.3-1.1,0.7-1.6,1.3v6c0,0.6,0,1,0.1,1.2
	c0.1,0.3,0.3,0.4,0.5,0.6c0.2,0.1,0.6,0.1,1.1,0.1c0.1,0,0.1,0.1,0.1,0.2s0,0.2-0.1,0.2c-0.4,0-0.8,0-1,0l-1.5,0l-1.5,0
	c-0.2,0-0.6,0-1,0c-0.1,0-0.1-0.1-0.1-0.2s0-0.2,0.1-0.2c0.5,0,0.9,0,1.1-0.1c0.2-0.1,0.4-0.3,0.5-0.6c0.1-0.3,0.1-0.7,0.1-1.2v-5.5
	c0-0.6-0.1-1.1-0.2-1.4c-0.1-0.3-0.4-0.4-0.8-0.4c-0.3,0-0.8,0.1-1.5,0.4h-0.1c-0.1,0-0.1,0-0.2-0.1c0-0.1,0-0.2,0.1-0.2l3.2-1.5
	l0.2,0c0.2,0,0.3,0.2,0.5,0.6c0.2,0.4,0.3,1,0.3,1.7c0.7-0.8,1.4-1.4,2.1-1.8c0.7-0.4,1.4-0.6,2.2-0.6c1,0,1.8,0.3,2.4,0.9
	s0.8,1.4,0.8,2.5v5.5c0,0.6,0,1,0.1,1.2c0.1,0.3,0.3,0.4,0.5,0.6C220.2,101.6,220.6,101.7,221.1,101.7z"/>
<linearGradient id="SVGID_17_" gradientUnits="userSpaceOnUse" x1="26.0489" y1="98.4893" x2="143.3272" y2="88.3314" gradientTransform="matrix(1 0 0 -1 0 112)">
	<stop  offset="0" style="stop-color:#DBBB95"/>
	<stop  offset="1" style="stop-color:#B4844B"/>
</linearGradient>
<path class="st16" d="M11.4,21.3c-2.1,0-3.8-0.4-5.4-1.2c-1.5-0.8-2.7-1.9-3.5-3.3c-0.8-1.4-1.2-2.9-1.2-4.6c0-1.8,0.5-3.4,1.4-4.7
	C3.7,6.1,4.9,5,6.5,4.3c1.6-0.7,3.4-1.1,5.4-1.1c1,0,1.9,0.1,2.8,0.3c0.9,0.2,1.6,0.5,2.2,0.8c0.1,0.1,0.2,0.1,0.3,0.2
	c0,0.1,0,0.2,0.1,0.4l0.3,3.3c0,0.1-0.1,0.1-0.2,0.1c-0.1,0-0.1,0-0.2-0.1c-0.9-3.1-2.8-4.6-5.8-4.6c-1.5,0-2.8,0.3-4,1
	C6.2,5.3,5.2,6.2,4.5,7.5c-0.7,1.2-1,2.6-1,4.3c0,1.6,0.3,3.1,1,4.5c0.7,1.4,1.6,2.5,2.9,3.4c1.3,0.9,2.9,1.3,4.7,1.3
	c1.3,0,2.3-0.3,2.8-0.8c0.5-0.5,0.8-1.4,0.8-2.7c0-1-0.1-1.6-0.2-2c-0.1-0.4-0.4-0.7-0.8-0.8c-0.4-0.1-1.1-0.2-2.2-0.2
	c-0.1,0-0.2-0.1-0.2-0.2c0-0.1,0-0.1,0-0.1c0-0.1,0.1-0.1,0.1-0.1c1.5,0.1,2.6,0.1,3.5,0.1c0.9,0,1.8,0,2.8-0.1c0,0,0.1,0,0.1,0.1
	c0,0,0.1,0.1,0.1,0.1c0,0.1,0,0.2-0.1,0.2c-0.5,0-0.8,0-1,0.2c-0.2,0.1-0.3,0.4-0.3,0.8c-0.1,0.4-0.1,1.2-0.1,2.2
	c0,0.8,0,1.4,0.1,1.8c0.1,0.4,0.1,0.6,0.1,0.7c0,0.1,0,0.2-0.1,0.2s-0.1,0.1-0.3,0.1C15,21.1,13.1,21.3,11.4,21.3z"/>
<linearGradient id="SVGID_18_" gradientUnits="userSpaceOnUse" x1="25.8954" y1="96.7169" x2="143.1737" y2="86.5589" gradientTransform="matrix(1 0 0 -1 0 112)">
	<stop  offset="0" style="stop-color:#DBBB95"/>
	<stop  offset="1" style="stop-color:#B4844B"/>
</linearGradient>
<path class="st17" d="M29.3,21.4c-1.1,0-2-0.3-2.9-0.8c-0.8-0.5-1.5-1.3-1.9-2.2c-0.4-0.9-0.7-1.9-0.7-3c0-1.2,0.3-2.2,0.9-3.1
	c0.6-0.9,1.4-1.5,2.3-1.9c0.9-0.4,1.9-0.6,2.8-0.6c1.1,0,2.1,0.3,2.9,0.8c0.8,0.5,1.4,1.3,1.9,2.2c0.4,0.9,0.7,1.8,0.7,2.8
	c0,1.2-0.3,2.2-0.8,3.1c-0.5,0.9-1.3,1.5-2.2,2C31.3,21.1,30.3,21.4,29.3,21.4z M30.1,20.8c1,0,1.8-0.4,2.4-1.1
	c0.6-0.7,0.8-1.8,0.8-3.4c0-1.2-0.2-2.2-0.6-3.1c-0.4-0.9-0.9-1.6-1.6-2.1c-0.7-0.5-1.4-0.8-2.3-0.8c-1,0-1.8,0.4-2.4,1.1
	c-0.5,0.7-0.8,1.8-0.8,3.1c0,1.1,0.2,2.2,0.6,3.1c0.4,1,0.9,1.7,1.6,2.3C28.5,20.6,29.2,20.8,30.1,20.8z"/>
<linearGradient id="SVGID_19_" gradientUnits="userSpaceOnUse" x1="26.0105" y1="98.046" x2="143.2888" y2="87.888" gradientTransform="matrix(1 0 0 -1 0 112)">
	<stop  offset="0" style="stop-color:#DBBB95"/>
	<stop  offset="1" style="stop-color:#B4844B"/>
</linearGradient>
<path class="st18" d="M46.7,9.9c0.4,0,0.8,0.1,1.2,0.3c0.4,0.2,0.6,0.5,0.6,0.8c0,0.2-0.1,0.4-0.3,0.6C48,11.9,47.8,12,47.5,12
	c-0.2,0-0.3,0-0.4-0.1c-0.1-0.1-0.3-0.2-0.4-0.3c-0.2-0.1-0.3-0.3-0.5-0.3c-0.1-0.1-0.3-0.1-0.5-0.1c-0.2,0-0.5,0.1-0.8,0.3
	c-0.3,0.2-0.7,0.6-1.3,1.3v6c0,0.6,0.1,1,0.2,1.2c0.1,0.3,0.4,0.4,0.8,0.6c0.4,0.1,1,0.1,1.7,0.1c0.1,0,0.1,0.1,0.1,0.2
	c0,0.1,0,0.2-0.1,0.2c-0.6,0-1.1,0-1.4,0l-2.1,0l-1.5,0c-0.2,0-0.6,0-1,0c-0.1,0-0.1-0.1-0.1-0.2c0-0.1,0-0.2,0.1-0.2
	c0.5,0,0.9,0,1.1-0.1c0.2-0.1,0.4-0.3,0.5-0.6c0.1-0.3,0.1-0.7,0.1-1.2v-5.5c0-0.6-0.1-1.1-0.2-1.4s-0.4-0.4-0.8-0.4
	c-0.3,0-0.8,0.1-1.5,0.4h-0.1c-0.1,0-0.1,0-0.2-0.1c0-0.1,0-0.2,0.1-0.2l3.2-1.5l0.2,0c0.2,0,0.3,0.2,0.5,0.6c0.2,0.4,0.3,1,0.3,1.7
	v0c0.8-0.9,1.4-1.5,1.8-1.8C45.8,10.1,46.3,9.9,46.7,9.9z"/>
<linearGradient id="SVGID_20_" gradientUnits="userSpaceOnUse" x1="26.4835" y1="103.5069" x2="143.7618" y2="93.3489" gradientTransform="matrix(1 0 0 -1 0 112)">
	<stop  offset="0" style="stop-color:#DBBB95"/>
	<stop  offset="1" style="stop-color:#B4844B"/>
</linearGradient>
<path class="st19" d="M60.7,9.8c0.8,0,1.5,0.2,2.2,0.6c0.7,0.4,1.2,1,1.7,1.8c0.4,0.8,0.6,1.7,0.6,2.8c0,1.3-0.3,2.5-0.9,3.5
	c-0.6,1-1.3,1.7-2.3,2.2c-0.9,0.5-1.9,0.7-3,0.7c-1.4,0-2.7-0.4-3.8-1.2l-2.1,1h-0.1c-0.1,0-0.1,0-0.1-0.1c0-0.1,0-0.1,0.1-0.2
	c0.6-0.4,1-0.8,1.3-1.1c0.2-0.4,0.4-0.9,0.4-1.6V4.3c0-0.7-0.1-1.2-0.2-1.5c-0.1-0.3-0.4-0.4-0.7-0.4c-0.3,0-0.7,0.1-1.3,0.4h-0.1
	c-0.1,0-0.1,0-0.1-0.1c0-0.1,0-0.1,0.1-0.2l3.5-1.7l0.1,0c0,0,0.1,0,0.1,0.1c0.1,0,0.1,0.1,0.1,0.1v11.3c0.7-0.7,1.4-1.3,2.1-1.8
	C59,10.1,59.8,9.8,60.7,9.8z M59.9,20.8c1.1,0,1.9-0.4,2.5-1.3c0.6-0.8,0.9-2,0.9-3.6c0-1.7-0.3-3-1-3.9c-0.7-0.9-1.5-1.3-2.6-1.3
	c-0.6,0-1.2,0.2-1.8,0.5c-0.6,0.3-1.2,0.8-1.8,1.4v4.6c0,0.8,0.2,1.5,0.6,2c0.4,0.5,0.9,0.9,1.5,1.1C58.8,20.7,59.4,20.8,59.9,20.8z
	"/>
<linearGradient id="SVGID_21_" gradientUnits="userSpaceOnUse" x1="26.2327" y1="100.6106" x2="143.511" y2="90.4527" gradientTransform="matrix(1 0 0 -1 0 112)">
	<stop  offset="0" style="stop-color:#DBBB95"/>
	<stop  offset="1" style="stop-color:#B4844B"/>
</linearGradient>
<path class="st20" d="M80.7,19.5c0.1,0,0.1,0,0.1,0.1c0,0.1,0,0.1-0.1,0.2l-2.9,1.4c-0.1,0-0.1,0.1-0.2,0.1c-0.2,0-0.5-0.2-0.6-0.5
	c-0.2-0.3-0.3-0.8-0.4-1.3l-1.5,1c-0.5,0.3-0.9,0.5-1.2,0.6c-0.4,0.1-0.7,0.2-1.1,0.2c-0.7,0-1.2-0.2-1.6-0.5
	c-0.4-0.4-0.6-0.8-0.6-1.4s0.2-1,0.7-1.5s1.2-0.8,2.2-1.2l3.1-1.1v-1.9c0-2.1-0.6-3.1-1.8-3.1c-0.6,0-1.1,0.2-1.5,0.6
	c-0.3,0.4-0.5,0.9-0.6,1.4c-0.1,0.3-0.2,0.6-0.3,0.8c-0.1,0.2-0.4,0.3-0.8,0.3c-0.3,0-0.5-0.1-0.7-0.3c-0.1-0.2-0.2-0.4-0.2-0.6
	c0-0.4,0.3-0.9,0.9-1.3c0.6-0.4,1.3-0.8,2.1-1.1c0.8-0.3,1.5-0.4,2.2-0.4c0.8,0,1.3,0.2,1.7,0.7c0.4,0.5,0.6,1.2,0.6,2.1V18
	c0,0.7,0.1,1.1,0.3,1.4c0.2,0.3,0.4,0.4,0.8,0.4C79.6,19.9,80.1,19.7,80.7,19.5L80.7,19.5z M76.6,19v-0.1v-3l-2.6,1
	c-0.5,0.2-0.9,0.4-1.1,0.7c-0.2,0.3-0.3,0.6-0.3,1c0,0.4,0.1,0.8,0.4,1.1c0.3,0.3,0.7,0.4,1.1,0.4c0.4,0,0.8-0.1,1.3-0.4L76.6,19z"
	/>
<linearGradient id="SVGID_22_" gradientUnits="userSpaceOnUse" x1="26.3447" y1="101.9043" x2="143.623" y2="91.7464" gradientTransform="matrix(1 0 0 -1 0 112)">
	<stop  offset="0" style="stop-color:#DBBB95"/>
	<stop  offset="1" style="stop-color:#B4844B"/>
</linearGradient>
<path class="st21" d="M90.1,21.3c-1.2,0-2.2-0.3-3.1-0.8c-0.8-0.5-1.4-1.2-1.8-2.1s-0.6-1.7-0.6-2.7c0-1.2,0.3-2.2,0.9-3.1
	c0.6-0.9,1.4-1.6,2.3-2c1-0.5,1.9-0.7,2.9-0.7c0.8,0,1.6,0.2,2.2,0.5c0.7,0.3,1,0.7,1,1.2c0,0.2-0.1,0.5-0.3,0.6
	c-0.2,0.2-0.4,0.3-0.7,0.3c-0.5,0-0.9-0.3-1.2-0.9c-0.2-0.4-0.5-0.7-0.8-0.8c-0.3-0.2-0.7-0.3-1.2-0.3c-1,0-1.9,0.4-2.5,1.2
	c-0.6,0.8-0.9,1.9-0.9,3.2c0,1.6,0.4,2.9,1.2,3.9c0.8,1,2,1.5,3.5,1.5c1.1,0,2.1-0.3,2.9-0.9h0c0.1,0,0.1,0,0.1,0.1
	c0.1,0.1,0.1,0.1,0,0.1c-0.7,0.6-1.3,1-2,1.3C91.6,21.2,90.8,21.3,90.1,21.3z"/>
<linearGradient id="SVGID_23_" gradientUnits="userSpaceOnUse" x1="26.8296" y1="107.5027" x2="144.1079" y2="97.3447" gradientTransform="matrix(1 0 0 -1 0 112)">
	<stop  offset="0" style="stop-color:#DBBB95"/>
	<stop  offset="1" style="stop-color:#B4844B"/>
</linearGradient>
<path class="st22" d="M111.3,20.7c0.1,0,0.1,0.1,0.1,0.2c0,0.1,0,0.2-0.1,0.2c-0.4,0-0.8,0-1,0l-1.5,0l-1.5,0c-0.3,0-0.6,0-1,0
	c-0.1,0-0.1-0.1-0.1-0.2c0-0.1,0-0.2,0.1-0.2c0.5,0,0.9,0,1.1-0.1c0.2-0.1,0.4-0.3,0.5-0.6c0.1-0.3,0.1-0.7,0.1-1.2v-4.5
	c0-1.1-0.2-1.9-0.6-2.4c-0.4-0.5-1.1-0.8-1.9-0.8c-0.6,0-1.2,0.2-1.8,0.5c-0.6,0.3-1.1,0.7-1.6,1.3v6c0,0.5,0,1,0.1,1.2
	c0.1,0.3,0.3,0.4,0.5,0.6c0.2,0.1,0.6,0.1,1.1,0.1c0.1,0,0.1,0.1,0.1,0.2c0,0.1,0,0.2-0.1,0.2c-0.4,0-0.8,0-1,0l-1.5,0l-1.5,0
	c-0.3,0-0.6,0-1,0c-0.1,0-0.1-0.1-0.1-0.2c0-0.1,0-0.2,0.1-0.2c0.5,0,0.9,0,1.1-0.1c0.2-0.1,0.4-0.3,0.5-0.6
	c0.1-0.3,0.1-0.7,0.1-1.2V4.3c0-0.7-0.1-1.2-0.2-1.5c-0.1-0.3-0.4-0.4-0.7-0.4c-0.3,0-0.7,0.1-1.3,0.4h-0.1c-0.1,0-0.1,0-0.1-0.1
	c0-0.1,0-0.1,0.1-0.2l3.6-1.7h0.1c0.1,0,0.1,0,0.2,0.1c0.1,0,0.1,0.1,0.1,0.1v11.4c0.7-0.8,1.4-1.4,2.1-1.8c0.7-0.4,1.4-0.6,2.2-0.6
	c1,0,1.8,0.3,2.4,0.9s0.8,1.4,0.8,2.5v5.4c0,0.5,0,1,0.1,1.2c0.1,0.3,0.3,0.4,0.5,0.6C110.4,20.6,110.8,20.7,111.3,20.7z"/>
<linearGradient id="SVGID_24_" gradientUnits="userSpaceOnUse" x1="26.5744" y1="104.5556" x2="143.8526" y2="94.3976" gradientTransform="matrix(1 0 0 -1 0 112)">
	<stop  offset="0" style="stop-color:#DBBB95"/>
	<stop  offset="1" style="stop-color:#B4844B"/>
</linearGradient>
<path class="st23" d="M124.7,19.4c0.1,0,0.1,0,0.1,0.1c0.1,0.1,0.1,0.1,0,0.2c-1.2,1.1-2.6,1.6-4.1,1.6c-1.1,0-2-0.3-2.8-0.8
	c-0.8-0.5-1.4-1.2-1.8-2c-0.4-0.8-0.6-1.7-0.6-2.6c0-1.1,0.3-2.1,0.8-3c0.5-0.9,1.2-1.7,2.1-2.2c0.9-0.5,1.9-0.8,3-0.8
	c1,0,1.8,0.3,2.4,0.8c0.6,0.6,0.8,1.3,0.8,2.4c0,0.3,0,0.4-0.1,0.6c0,0.1-0.1,0.2-0.2,0.2l-6.9,0c0,0.4-0.1,0.7-0.1,1
	c0,1.6,0.4,2.9,1.1,3.9c0.8,1,1.8,1.5,3.2,1.5c0.6,0,1-0.1,1.4-0.2C123.7,20,124.2,19.7,124.7,19.4L124.7,19.4z M120.7,10.5
	c-0.8,0-1.5,0.3-2,0.8c-0.5,0.5-0.9,1.3-1,2.2l5.3-0.1c0-1-0.2-1.7-0.6-2.2C121.9,10.8,121.4,10.5,120.7,10.5z"/>
<linearGradient id="SVGID_25_" gradientUnits="userSpaceOnUse" x1="26.6982" y1="105.986" x2="143.9765" y2="95.828" gradientTransform="matrix(1 0 0 -1 0 112)">
	<stop  offset="0" style="stop-color:#DBBB95"/>
	<stop  offset="1" style="stop-color:#B4844B"/>
</linearGradient>
<path class="st24" d="M141,10.2c0,0,0.1,0.1,0.1,0.2c0,0.1,0,0.2-0.1,0.2c-0.5,0-0.9,0.2-1.2,0.5c-0.3,0.3-0.7,0.8-1,1.6l-3.5,8.4
	c0,0.1-0.1,0.1-0.3,0.1s-0.3,0-0.3-0.1l-3.9-8.5c-0.4-0.8-0.7-1.3-1-1.6c-0.2-0.3-0.6-0.4-0.9-0.4c-0.1,0-0.1-0.1-0.1-0.2
	c0-0.1,0-0.2,0.1-0.2c0.4,0,0.7,0,0.9,0l1.1,0l1.8,0c0.3,0,0.7,0,1.1,0c0.1,0,0.1,0.1,0.1,0.2c0,0.1,0,0.2-0.1,0.2
	c-1.1,0-1.7,0.2-1.7,0.7c0,0.1,0,0.3,0.1,0.4l3.4,7.2l2.6-6.4c0.1-0.4,0.2-0.6,0.2-0.8c0-0.4-0.2-0.6-0.5-0.8
	c-0.4-0.2-0.9-0.3-1.7-0.3c0,0-0.1-0.1-0.1-0.2c0-0.1,0-0.2,0.1-0.2c0.5,0,0.9,0,1.1,0l1.7,0l1,0C140.3,10.2,140.6,10.2,141,10.2z"
	/>
<linearGradient id="SVGID_26_" gradientUnits="userSpaceOnUse" x1="114.4847" y1="26.8057" x2="240.4796" y2="15.068" gradientTransform="matrix(1 0 0 -1 0 112)">
	<stop  offset="0" style="stop-color:#DBBB95"/>
	<stop  offset="1" style="stop-color:#B4844B"/>
</linearGradient>
<path class="st25" d="M233,100.6c0.1,0,0.1,0,0.2,0.1c0,0.1,0,0.1,0,0.2c-0.7,0.5-1.3,0.9-1.9,1.1c-0.5,0.2-1.1,0.3-1.7,0.3
	c-0.8,0-1.4-0.2-1.9-0.5c-0.5-0.4-0.8-0.9-0.8-1.8v-6.6c0-0.5,0-0.8-0.1-1c-0.1-0.2-0.2-0.3-0.4-0.4c-0.2-0.1-0.5-0.1-1-0.1
	c-0.1,0-0.1-0.1-0.1-0.2c0-0.1,0-0.2,0.1-0.2c0.7,0,1.4-0.2,1.8-0.6c0.5-0.4,0.7-0.9,0.8-1.5c0-0.1,0.1-0.1,0.2-0.1
	c0.1,0,0.2,0,0.2,0.1v2.1c0.9,0,2.2-0.1,3.9-0.3c0,0,0.1,0.1,0.1,0.2c0.1,0.1,0.1,0.3,0.1,0.4c0,0.1,0,0.3-0.1,0.5
	c-0.1,0.1-0.1,0.2-0.2,0.2c-1-0.3-2.3-0.4-3.8-0.4v7c0,0.8,0.2,1.3,0.6,1.7c0.4,0.4,0.9,0.6,1.7,0.6
	C231.5,101.4,232.3,101.1,233,100.6L233,100.6z"/>
<linearGradient id="SVGID_27_" gradientUnits="userSpaceOnUse" x1="114.2038" y1="27.2002" x2="240.1987" y2="15.4625" gradientTransform="matrix(1 0 0 -1 0 112)">
	<stop  offset="0" style="stop-color:#DBBB95"/>
	<stop  offset="1" style="stop-color:#B4844B"/>
</linearGradient>
<path class="st26" d="M239.1,92.9c0,0.7,0.2,1.2,0.6,1.6c0.4,0.4,1.1,0.8,1.9,1.2c0.7,0.3,1.2,0.6,1.5,0.9c0.4,0.2,0.7,0.6,1,1
	c0.3,0.4,0.4,0.9,0.4,1.4c0,1-0.4,1.8-1.1,2.4c-0.7,0.7-1.7,1-2.9,1c-1,0-1.9-0.3-2.7-0.8c-0.1-0.1-0.2-0.2-0.2-0.3l-0.1-2.2
	c0-0.1,0-0.1,0.1-0.1c0.1,0,0.2,0,0.2,0.1c0.4,0.9,0.8,1.6,1.4,2.1c0.6,0.5,1.2,0.7,2,0.7c0.6,0,1.1-0.1,1.4-0.4
	c0.3-0.3,0.5-0.7,0.4-1.3c0-0.7-0.2-1.3-0.7-1.6c-0.4-0.4-1-0.8-1.9-1.2c-0.6-0.3-1.1-0.6-1.5-0.8c-0.4-0.2-0.7-0.6-0.9-1
	c-0.2-0.4-0.4-0.9-0.4-1.5c0-1,0.4-1.8,1.1-2.3c0.8-0.5,1.7-0.8,2.7-0.8c0.7,0,1.4,0.1,2,0.4c0.1,0,0.2,0.1,0.2,0.1
	c0,0,0.1,0.1,0.1,0.2c0,0.4,0,0.7,0,0.9l0,1.2c0,0-0.1,0.1-0.2,0.1s-0.2,0-0.2-0.1c0-0.4-0.1-0.8-0.4-1.1c-0.3-0.4-0.7-0.6-1.1-0.8
	s-0.9-0.3-1.3-0.3c-0.5,0-0.8,0.1-1.1,0.4C239.2,92.1,239.1,92.4,239.1,92.9z"/>
</svg>
