<svg width="61" height="22" viewBox="0 0 61 22" fill="none" xmlns="http://www.w3.org/2000/svg">
<path d="M16.0042 13.2978C16.0276 13.5294 16.1348 13.7444 16.3057 13.9027C16.4766 14.061 16.6995 14.1516 16.9325 14.1577C17.155 14.1507 17.3667 14.0608 17.5261 13.9058C17.6856 13.7508 17.7811 13.5418 17.794 13.3201C17.794 13.2534 17.794 13.1867 17.794 13.0977L18.5366 13.7129C18.4855 14.0881 18.2971 14.4311 18.0079 14.6761C17.7186 14.921 17.3488 15.0505 16.9696 15.0398C17.0177 15.1728 17.0403 15.3135 17.0365 15.4549C17.0073 15.7558 16.8975 16.0434 16.7184 16.2873C16.5394 16.5312 16.2978 16.7225 16.0191 16.841L15.2764 16.248C15.4008 16.2558 15.5254 16.2376 15.6424 16.1947C15.7594 16.1519 15.8662 16.0852 15.9559 15.9989C16.0457 15.9126 16.1165 15.8086 16.1639 15.6936C16.2112 15.5785 16.234 15.4549 16.2309 15.3305C16.2278 15.2062 16.1989 15.0838 16.1458 14.9712C16.0928 14.8587 16.0169 14.7583 15.923 14.6766C15.829 14.5949 15.719 14.5336 15.6001 14.4966C15.4811 14.4596 15.3557 14.4476 15.2319 14.4616C15.1055 14.4604 14.9802 14.485 14.8637 14.5339C14.7472 14.5828 14.6419 14.6549 14.5543 14.7458C14.4667 14.8367 14.3986 14.9445 14.3542 15.0626C14.3098 15.1807 14.2901 15.3066 14.2961 15.4326C14.3863 15.9547 14.6603 16.4276 15.0688 16.7659C15.4772 17.1043 15.9933 17.286 16.5241 17.2783C17.1143 17.2986 17.6902 17.0946 18.1356 16.7075L17.6529 16.3369C17.7015 16.1471 17.793 15.9708 17.9204 15.8218C18.0479 15.6727 18.2079 15.5548 18.3881 15.4771L18.8708 15.8477C19.0598 15.5074 19.1594 15.1249 19.1604 14.7358C19.1604 13.6759 18.3435 12.3342 17.0439 12.3342C16.9127 12.3262 16.7813 12.3446 16.6574 12.3884C16.5335 12.4321 16.4196 12.5002 16.3226 12.5887C16.2256 12.6772 16.1475 12.7843 16.0928 12.9036C16.0381 13.0229 16.008 13.1519 16.0042 13.283M10.5161 17.219C10.5141 17.4497 10.6035 17.6719 10.7649 17.8371C10.9262 18.0023 11.1464 18.0972 11.3776 18.1011C11.5173 18.1014 11.6555 18.0725 11.7834 18.0163C11.9113 17.9602 12.026 17.8779 12.1202 17.7749V18.7608C11.8937 18.8892 11.6381 18.9581 11.3776 18.9609C11.1309 18.9829 10.883 18.9372 10.6605 18.8288C10.438 18.7203 10.2494 18.5533 10.1151 18.3457C9.97607 18.5522 9.78448 18.7181 9.55999 18.8262C9.33549 18.9343 9.0862 18.9808 8.83773 18.9609C8.57759 18.9553 8.32271 18.8866 8.09509 18.7608V17.7898C8.18571 17.8971 8.29975 17.9823 8.42848 18.0389C8.55722 18.0954 8.69721 18.1218 8.83773 18.1159C8.95276 18.1159 9.06663 18.093 9.17263 18.0484C9.27862 18.0038 9.3746 17.9385 9.45489 17.8563C9.53519 17.774 9.59817 17.6766 9.64013 17.5697C9.68209 17.4628 9.70217 17.3486 9.6992 17.2338C9.7052 17.1224 9.68862 17.0108 9.65045 16.9059C9.61228 16.801 9.5533 16.7048 9.47704 16.6232C9.40078 16.5415 9.30881 16.476 9.20661 16.4307C9.10442 16.3853 8.99411 16.361 8.88229 16.3592C7.97627 16.3592 7.60495 17.219 7.60495 18.0047C7.60804 18.5668 7.80794 19.1101 8.17006 19.5406C8.53217 19.971 9.0337 20.2616 9.5878 20.3619V19.7689C9.76 19.6902 9.94804 19.6521 10.1374 19.6577C10.3365 19.6494 10.5348 19.6875 10.7166 19.7689V20.3619C11.2616 20.2428 11.7517 19.9469 12.1104 19.5205C12.4691 19.0941 12.6763 18.5611 12.6995 18.0047C12.6995 17.1968 12.3653 16.3592 11.4221 16.3592C11.3106 16.362 11.2008 16.387 11.0991 16.4327C10.9974 16.4784 10.9058 16.5439 10.8297 16.6254C10.7537 16.7068 10.6946 16.8025 10.6561 16.907C10.6175 17.0115 10.6002 17.1226 10.6052 17.2338M4.05512 15.3437C4.05831 15.5574 4.13788 15.763 4.27949 15.9233C4.42109 16.0837 4.61543 16.1883 4.82747 16.2183L4.08483 16.8113C3.80762 16.7013 3.56464 16.5198 3.38067 16.2854C3.19671 16.051 3.07836 15.7721 3.03771 15.4771C3.04043 15.3343 3.07068 15.1934 3.12682 15.062C3.05999 15.062 3.01543 15.062 2.97087 15.062C2.61656 15.0258 2.28409 14.874 2.02497 14.6301C1.76585 14.3862 1.59454 14.0639 1.53757 13.7129L2.3322 13.0977C2.3223 13.1715 2.3223 13.2463 2.3322 13.3201C2.34424 13.5358 2.43454 13.7398 2.58623 13.8939C2.73793 14.0481 2.94065 14.1418 3.15653 14.1577C3.38824 14.1544 3.61019 14.0641 3.77813 13.9047C3.94606 13.7454 4.04762 13.5287 4.06255 13.2978C4.06376 13.1691 4.03851 13.0415 3.98834 12.9229C3.93818 12.8043 3.86418 12.6972 3.77091 12.6083C3.67764 12.5194 3.56708 12.4505 3.44608 12.4059C3.32508 12.3613 3.1962 12.342 3.06741 12.3491C2.47261 12.3981 1.9193 12.673 1.52142 13.117C1.12354 13.561 0.911373 14.1404 0.928608 14.7358C0.924617 15.1181 1.01653 15.4952 1.19596 15.8329L1.67125 15.4771C1.85286 15.5539 2.01431 15.6714 2.14309 15.8205C2.27187 15.9696 2.36453 16.1463 2.41389 16.3369L1.93117 16.7075C2.38705 17.0916 2.96863 17.2948 3.56498 17.2783C4.10185 17.2963 4.62643 17.1155 5.03775 16.7707C5.44906 16.4258 5.71804 15.9413 5.7929 15.4104C5.79992 15.2902 5.7826 15.1698 5.74199 15.0563C5.70137 14.9429 5.6383 14.8389 5.55651 14.7503C5.47473 14.6618 5.37593 14.5906 5.26598 14.541C5.15604 14.4914 5.03721 14.4644 4.91659 14.4616C4.79894 14.4596 4.68206 14.4809 4.57271 14.5243C4.46335 14.5677 4.36368 14.6322 4.27945 14.7142C4.19521 14.7962 4.12809 14.8941 4.08194 15.0021C4.03579 15.1101 4.01153 15.2262 4.01057 15.3437M16.4498 6.34501L16.0488 6.67116L16.4721 8.06469L15.2096 7.32345L14.7937 7.65701L16.1824 8.39825L14.6972 9.58423L14.2961 9.09501L14.8234 8.67251L14.4224 8.21294L13.8951 8.62803L13.5535 8.12399L14.0808 7.70889L13.6797 7.19744L10.9691 9.42116L13.5535 11.5115L14.0139 10.9407C14.1797 10.9541 14.3381 11.0152 14.4698 11.1164C14.6016 11.2177 14.7012 11.3549 14.7566 11.5115L14.2961 12.0896L14.5783 12.3046C15.2175 11.7173 16.0491 11.3826 16.9177 11.3632C17.3451 11.3661 17.7678 11.4533 18.1614 11.6197C18.555 11.7861 18.9118 12.0285 19.2113 12.3329C19.5107 12.6373 19.747 12.9978 19.9065 13.3936C20.066 13.7895 20.1456 14.2129 20.1407 14.6395C20.1434 15.2614 19.9738 15.8719 19.6506 16.4036L20.1407 16.7743C20.1145 16.9614 20.0357 17.1373 19.9135 17.2816C19.7912 17.4259 19.6306 17.5327 19.4501 17.5896L18.9896 17.219C18.6632 17.5334 18.2766 17.7788 17.853 17.9405C17.4293 18.1023 16.9773 18.1771 16.5241 18.1604C16.0974 18.1624 15.6747 18.0793 15.2807 17.916C14.8867 17.7526 14.5294 17.5123 14.2298 17.2091C13.9303 16.9059 13.6944 16.546 13.5362 16.1506C13.3779 15.7551 13.3005 15.3321 13.3084 14.9063C13.3199 14.3071 13.4698 13.7186 13.7466 13.1867L13.5535 12.942L13.0856 13.5647C12.9122 13.5515 12.7472 13.4843 12.614 13.3726C12.4808 13.2609 12.386 13.1103 12.343 12.942L12.8109 12.3935L10.6275 10.5923V13.4535H11.3701C11.465 13.5798 11.5171 13.733 11.5187 13.8908C11.5084 14.051 11.4654 14.2074 11.3924 14.3504H10.6498V14.7358C11.4526 14.8295 12.1929 15.2141 12.7303 15.8168C13.2676 16.4194 13.5644 17.198 13.5644 18.0047C13.5644 18.8114 13.2676 19.5901 12.7303 20.1927C12.1929 20.7953 11.4526 21.18 10.6498 21.2736V21.8443C10.4871 21.9394 10.3034 21.9929 10.1151 22C9.90799 21.9923 9.70514 21.9391 9.52096 21.8443V21.2736C8.72699 21.1536 8.00202 20.7546 7.47651 20.1486C6.951 19.5425 6.65946 18.7691 6.65437 17.9677C6.66417 17.1788 6.95626 16.4195 7.47787 15.8269C7.99948 15.2342 8.71624 14.8472 9.49868 14.7358V14.3578H8.75604C8.66726 14.221 8.62077 14.0612 8.62237 13.8982C8.61894 13.735 8.66558 13.5747 8.75604 13.4387H9.49868V10.5923L7.27076 12.3935L7.7609 12.942C7.71142 13.1068 7.61475 13.2535 7.4828 13.3641C7.35086 13.4748 7.18939 13.5445 7.01826 13.5647L6.5504 12.942L6.26819 13.1867C6.57218 13.7088 6.73113 14.3024 6.72863 14.9063C6.73556 15.3324 6.65719 15.7556 6.49814 16.1511C6.33908 16.5466 6.10253 16.9065 5.80235 17.2095C5.50217 17.5126 5.1444 17.7528 4.75001 17.9161C4.35562 18.0793 3.93254 18.1624 3.50557 18.1604C2.63465 18.1641 1.79716 17.826 1.17368 17.219L0.683537 17.5896C0.509379 17.5232 0.355152 17.4135 0.235552 17.2707C0.115953 17.128 0.0349654 16.9571 0.000307084 16.7743L0.46817 16.4036C0.171889 15.8619 0.0113662 15.2566 0.000307084 14.6395C-0.00558352 14.2126 0.0733255 13.7888 0.232477 13.3925C0.391629 12.9962 0.627869 12.6353 0.92755 12.3307C1.22723 12.0261 1.58441 11.7837 1.97847 11.6177C2.37252 11.4516 2.79563 11.3651 3.22337 11.3632C4.09919 11.3793 4.93899 11.714 5.58497 12.3046L5.84489 12.1119L5.38445 11.5115C5.44363 11.3573 5.54428 11.2225 5.67531 11.1218C5.80634 11.0211 5.96267 10.9584 6.12709 10.9407L6.58753 11.5115L9.17192 9.4434L6.45385 7.21968L6.06026 7.73113L6.58753 8.14623L6.19393 8.65027L5.65923 8.23517L5.26563 8.69474L5.77063 9.11725L5.38445 9.62129L3.89917 8.43531L5.26563 7.69407L4.91659 7.32345L3.6541 8.00539L4.0774 6.64151L3.67638 6.31536L3.21594 7.79784L1.73066 6.60445L2.12426 6.12264L2.63668 6.53773L3.05256 6.05593L2.52529 5.59636L2.91889 5.12938L3.45359 5.52965L3.82491 5.06267L2.68867 4.21024C2.80139 3.8309 3.05333 3.50796 3.39418 3.30593L9.49868 8.27965V4.95889H8.88229V5.59636H8.2659V4.95889H7.61237V5.59636H6.9737V3.72102L8.45899 4.33625V3.80997L7.11481 3.26146L8.45899 2.73517V2.22372L6.9737 2.80189V0.904312H7.61237V1.58625H8.25105V0.904312H8.86744V1.58625H9.48383V0.103773C9.66682 0.0358068 9.86041 0.000675084 10.0557 0C10.2459 0.0021006 10.4344 0.0372145 10.6126 0.103773V8.27965L16.7171 3.30593C17.0462 3.52101 17.2944 3.8391 17.4227 4.21024L16.2716 5.09973L16.6652 5.56671L17.1999 5.16644L17.5935 5.63342L17.0662 6.09299L17.4598 6.5748L17.9871 6.1597L18.3881 6.64151L16.9028 7.8349L16.4498 6.34501Z" fill="white"/>
<path d="M56.2701 3.99513C55.9271 3.96247 55.5811 4.00536 55.2565 4.12078C54.9319 4.2362 54.6366 4.42133 54.3916 4.6631C54.1465 4.90487 53.9576 5.19739 53.8382 5.52C53.7188 5.84261 53.6718 6.18745 53.7006 6.53017C53.7006 8.01265 55.2824 8.68718 56.8197 9.20605C57.8648 9.49837 58.8382 10.0031 59.6788 10.6886C60.1251 11.1114 60.4739 11.6262 60.7009 12.197C60.9278 12.7679 61.0276 13.3813 60.9933 13.9945C60.9339 16.5814 59.1218 18.3308 55.9211 18.3456C54.4676 18.3595 53.0301 18.0426 51.7177 17.419L51.5989 13.5275H52.542C52.6163 16.1367 53.8491 17.508 56.0102 17.508C57.7479 17.508 58.706 16.3517 58.706 14.5875C58.706 13.105 57.4435 12.4157 55.5274 11.7782C54.5227 11.4817 53.5933 10.9737 52.802 10.2883C52.4333 9.92436 52.142 9.48997 51.9455 9.01108C51.749 8.53219 51.6513 8.01865 51.6583 7.5012C51.6583 4.47694 53.8194 3.17236 56.5003 3.17236C57.7514 3.2059 58.9793 3.51736 60.0947 4.08408L60.1838 7.45672H59.2407C59.0401 5.05511 57.993 4.00996 56.2701 4.00996M46.8905 13.9945C46.8905 12.0228 46.0365 10.696 44.0388 10.696H42.3827V17.293H43.7195C45.836 17.293 46.8905 16.0477 46.8905 13.9945ZM46.3558 6.94527C46.3558 5.55915 45.6132 4.1582 44.0685 4.1582H42.3827V9.85834H43.868C45.5241 9.85834 46.3336 8.46481 46.3336 6.94527M39.7092 17.3227V4.18785H38.1794V3.34284H44.8631C47.6926 3.34284 49.0962 4.93651 49.0962 6.80443C49.0962 8.79837 47.2841 9.92505 45.6726 10.2587C48.8066 10.5477 49.6606 12.5491 49.6606 14.0242C49.6606 17.0336 47.0836 18.1751 44.5587 18.1751H38.0605V17.3227H39.7092ZM35.647 13.2533C35.647 17.8119 33.1517 18.3604 30.6564 18.3604C26.3565 18.3604 25.4579 16.1367 25.4579 13.0383V4.18785H23.8613V3.34284H29.8915V4.18785H28.1834V12.7641C28.1834 15.7883 28.978 17.293 31.154 17.293C33.3299 17.293 34.4587 16.2034 34.4587 13.0531V4.1582H32.8621V3.34284H37.0951V4.18785H35.6098L35.647 13.2533Z" fill="white"/>
</svg>
