<svg width="18" height="18" viewBox="0 0 18 18" fill="none" xmlns="http://www.w3.org/2000/svg">
<path fill-rule="evenodd" clip-rule="evenodd" d="M13.5 0H4.5C2.01472 0 0 2.01472 0 4.5V13.5C0 15.9853 2.01472 18 4.5 18H13.5C15.9853 18 18 15.9853 18 13.5V4.5C18 2.01472 15.9853 0 13.5 0ZM12.5998 8.43259C12.7109 9.18161 12.583 9.94658 12.2342 10.6187C11.8855 11.2908 11.3337 11.8359 10.6573 12.1763C9.98094 12.5167 9.21445 12.6352 8.46685 12.5149C7.71926 12.3946 7.02863 12.0417 6.4932 11.5062C5.95777 10.9708 5.6048 10.2802 5.48451 9.53258C5.36421 8.78498 5.48271 8.01849 5.82314 7.34212C6.16357 6.66575 6.70861 6.11395 7.38073 5.7652C8.05285 5.41645 8.81782 5.28851 9.56685 5.39958C10.3309 5.51288 11.0382 5.8689 11.5844 6.41506C12.1305 6.96122 12.4865 7.66855 12.5998 8.43259ZM14.7804 4.54289C14.8755 4.35958 14.9104 4.15095 14.8801 3.94668C14.8492 3.7383 14.7521 3.54539 14.6031 3.39644C14.4542 3.24749 14.2613 3.15039 14.0529 3.11949C13.8486 3.0892 13.64 3.12409 13.4567 3.21921C13.2734 3.31432 13.1247 3.46481 13.0319 3.64928C12.939 3.83374 12.9067 4.04278 12.9395 4.24667C12.9723 4.45056 13.0686 4.63892 13.2146 4.78494C13.3607 4.93097 13.549 5.02723 13.7529 5.06004C13.9568 5.09285 14.1658 5.06053 14.3503 4.96768C14.5348 4.87484 14.6853 4.72619 14.7804 4.54289Z" fill="url(#paint0_linear_24_47)"/>
<defs>
<linearGradient id="paint0_linear_24_47" x1="2.22844" y1="2.62681" x2="14.7416" y2="16.64" gradientUnits="userSpaceOnUse">
<stop stop-color="#B48349"/>
<stop offset="1" stop-color="#DEBF9A"/>
</linearGradient>
</defs>
</svg>
