<svg width="24" height="29" viewBox="0 0 24 29" fill="none" xmlns="http://www.w3.org/2000/svg">
<path fill-rule="evenodd" clip-rule="evenodd" d="M10.8929 28.4142C10.5824 28.1675 10.1417 27.808 9.61429 27.3513C8.56069 26.439 7.15377 25.1327 5.744 23.5578C2.96657 20.4547 0 16.1156 0 11.5999C0 5.19345 5.37257 0 12 0C18.6274 0 24 5.19345 24 11.5999C24 16.1152 21.0337 20.4545 18.256 23.5578C16.8462 25.1327 15.4393 26.439 14.3857 27.3513C13.8583 27.8081 13.4177 28.1675 13.1071 28.4142C12.7975 28.6602 12.4654 28.9821 12.0422 28.9991C12.0281 28.9998 12.0138 29 11.9998 29C11.5574 29 11.2131 28.669 10.8924 28.4142L10.8929 28.4142ZM12.0002 7.73372C9.51497 7.73372 7.50023 9.68129 7.50023 12.0837C7.50023 14.4861 9.51497 16.4337 12.0002 16.4337C14.4855 16.4337 16.5002 14.4861 16.5002 12.0837C16.5002 9.68129 14.4855 7.73372 12.0002 7.73372Z" fill="white"/>
</svg>
