<svg viewBox="0 0 100 96" fill="none" xmlns="http://www.w3.org/2000/svg">
<path d="M53.4015 58.5622C53.4015 59.4881 53.4911 60.1601 53.6703 60.5782C53.8793 60.9964 54.2527 61.2801 54.7903 61.4294C55.3279 61.5788 56.194 61.6534 57.3887 61.6534C57.4484 61.6534 57.4783 61.743 57.4783 61.9222C57.4783 62.1014 57.4484 62.191 57.3887 62.191C56.4927 62.191 55.7908 62.1761 55.2831 62.1462L52.1471 62.1014L49.1455 62.1462C48.6079 62.1761 47.8762 62.191 46.9503 62.191C46.8607 62.191 46.8159 62.1014 46.8159 61.9222C46.8159 61.743 46.8607 61.6534 46.9503 61.6534C48.1151 61.6534 48.9663 61.5788 49.5039 61.4294C50.0713 61.2801 50.4596 60.9964 50.6687 60.5782C50.8777 60.1302 50.9823 59.4582 50.9823 58.5622V37.8199C50.9823 36.9239 50.8777 36.2668 50.6687 35.8487C50.4596 35.4305 50.0713 35.1468 49.5039 34.9975C48.9663 34.8183 48.1151 34.7287 46.9503 34.7287C46.8607 34.7287 46.8159 34.6391 46.8159 34.4599C46.8159 34.2807 46.8607 34.1911 46.9503 34.1911L49.1455 34.2359C50.3999 34.2956 51.4004 34.3255 52.1471 34.3255C52.9833 34.3255 54.0287 34.2956 55.2831 34.2359L57.3887 34.1911C57.4484 34.1911 57.4783 34.2807 57.4783 34.4599C57.4783 34.6391 57.4484 34.7287 57.3887 34.7287C56.2239 34.7287 55.3577 34.8183 54.7903 34.9975C54.2527 35.1767 53.8793 35.4903 53.6703 35.9383C53.4911 36.3564 53.4015 37.0135 53.4015 37.9095V58.5622Z" fill="url(#paint0_linear_342_22)"/>
<path d="M98.291 93.6537C98.4104 93.6537 98.4702 93.7433 98.4702 93.9225C98.4702 94.1017 98.4104 94.1913 98.291 94.1913C97.7534 94.1913 96.8872 94.1614 95.6926 94.1017C94.5577 94.042 93.7214 94.0121 93.1838 94.0121C92.5566 94.0121 91.7353 94.042 90.7198 94.1017C89.7641 94.1614 89.0473 94.1913 88.5694 94.1913C88.4499 94.1913 88.3902 94.1017 88.3902 93.9225C88.3902 93.7433 88.4499 93.6537 88.5694 93.6537C89.7939 93.6537 90.675 93.5492 91.2126 93.3401C91.7502 93.1012 92.019 92.7129 92.019 92.1753C92.019 91.7572 91.8547 91.1748 91.5262 90.4281L87.315 81.3337H76.6526L73.6062 88.6809C73.1881 89.6964 72.979 90.5326 72.979 91.1897C72.979 92.0558 73.3374 92.683 74.0542 93.0713C74.771 93.4596 75.891 93.6537 77.4142 93.6537C77.5635 93.6537 77.6382 93.7433 77.6382 93.9225C77.6382 94.1017 77.5635 94.1913 77.4142 94.1913C76.8766 94.1913 76.1001 94.1614 75.0846 94.1017C73.9497 94.042 72.9641 94.0121 72.1278 94.0121C71.3812 94.0121 70.5001 94.042 69.4846 94.1017C68.5886 94.1614 67.8569 94.1913 67.2894 94.1913C67.1401 94.1913 67.0654 94.1017 67.0654 93.9225C67.0654 93.7433 67.1401 93.6537 67.2894 93.6537C68.1257 93.6537 68.8276 93.5044 69.395 93.2057C69.9924 92.907 70.5449 92.3694 71.0526 91.5929C71.5902 90.8164 72.1577 89.7113 72.755 88.2777L82.1182 65.7433C82.1779 65.6537 82.2675 65.609 82.387 65.609C82.5363 65.609 82.6259 65.6537 82.6558 65.7433L93.0494 88.0537C93.7363 89.5769 94.3486 90.7417 94.8862 91.5481C95.4238 92.3246 95.9464 92.8772 96.4542 93.2057C96.9918 93.5044 97.604 93.6537 98.291 93.6537ZM77.011 80.5273H86.9118L81.6702 69.2825L77.011 80.5273Z" fill="url(#paint1_linear_342_22)"/>
<path d="M18.144 30.7289C14.8885 30.7289 12.0512 30.0718 9.63201 28.7577C7.24268 27.4137 5.40588 25.6217 4.12162 23.3817C2.83735 21.1118 2.19522 18.6329 2.19522 15.9449C2.19522 13.0479 2.91202 10.5241 4.34562 8.37373C5.80908 6.22333 7.79521 4.58067 10.304 3.44573C12.8427 2.28094 15.68 1.69854 18.816 1.69854C20.4587 1.69854 21.9669 1.8628 23.3408 2.19134C24.7147 2.51987 25.8794 2.9828 26.8352 3.58013C27.0442 3.72947 27.1637 3.84893 27.1936 3.93853C27.2234 3.99827 27.2533 4.20733 27.2832 4.56573L27.8208 9.58332C27.8208 9.67292 27.7312 9.73266 27.552 9.76252C27.4026 9.79239 27.313 9.76252 27.2832 9.67292C26.6261 7.19399 25.5808 5.3572 24.1472 4.16253C22.7435 2.96787 20.7573 2.37053 18.1888 2.37053C15.7099 2.37053 13.4848 2.90813 11.5136 3.98333C9.54241 5.02866 7.98935 6.53693 6.85441 8.50812C5.71948 10.4495 5.15202 12.7343 5.15202 15.3625C5.15202 17.8414 5.65975 20.2009 6.67521 22.4409C7.72055 24.6809 9.30348 26.5177 11.424 27.9513C13.5744 29.3849 16.2176 30.1017 19.3536 30.1017C21.5637 30.1017 23.1168 29.6836 24.0128 28.8473C24.9387 27.9812 25.4016 26.5625 25.4016 24.5913C25.4016 23.0382 25.297 21.963 25.088 21.3657C24.8789 20.7385 24.4309 20.3204 23.744 20.1113C23.0571 19.9022 21.8624 19.7977 20.16 19.7977C19.9808 19.7977 19.8912 19.6782 19.8912 19.4393C19.8912 19.3497 19.9061 19.275 19.936 19.2153C19.9957 19.1257 20.0555 19.0809 20.1152 19.0809C22.4149 19.2302 24.2667 19.3049 25.6704 19.3049C27.0144 19.3049 28.448 19.2601 29.9712 19.1705C30.0309 19.1705 30.0757 19.2153 30.1056 19.3049C30.1653 19.3646 30.1952 19.4244 30.1952 19.4841C30.1952 19.6932 30.1205 19.7977 29.9712 19.7977C29.1946 19.7678 28.6421 19.8724 28.3136 20.1113C27.985 20.3204 27.776 20.7684 27.6864 21.4553C27.5968 22.1422 27.552 23.3369 27.552 25.0393C27.552 26.3833 27.5968 27.339 27.6864 27.9065C27.8058 28.474 27.8656 28.8324 27.8656 28.9817C27.8656 29.1609 27.8357 29.2804 27.776 29.3401C27.7162 29.3998 27.5818 29.4596 27.3728 29.5193C23.7589 30.3257 20.6827 30.7289 18.144 30.7289Z" fill="url(#paint2_linear_342_22)"/>
<path fill-rule="evenodd" clip-rule="evenodd" d="M98.1999 1L54.3999 1L54.3999 3.2922e-05L3.05176e-05 3.2922e-05L2.81397e-05 54.3999L1.52151e-05 1L1.52588e-05 2.92603e-06L1.00002 2.96974e-06L98.1999 3.77099e-06L99.1999 3.8147e-06L99.1999 1L99.1999 94.9998L99.1999 95.9998L98.1999 95.9998L1.00002 95.9998L1.86919e-05 95.9998L1.87356e-05 94.9998L2.81397e-05 54.3999L1.00002 54.3999L1.00002 94.9998L43.1999 94.9998L43.1999 95.9997L99.1998 95.9997L99.1998 43.1998L98.1999 43.1998L98.1999 1Z" fill="url(#paint3_linear_342_22)"/>
<defs>
<linearGradient id="paint0_linear_342_22" x1="53.1872" y1="41.0431" x2="90.549" y2="41.6188" gradientUnits="userSpaceOnUse">
<stop stop-color="#DBBB95"/>
<stop offset="1" stop-color="#B4844B"/>
</linearGradient>
<linearGradient id="paint1_linear_342_22" x1="72.1335" y1="73.0436" x2="94.1145" y2="73.2428" gradientUnits="userSpaceOnUse">
<stop stop-color="#DBBB95"/>
<stop offset="1" stop-color="#B4844B"/>
</linearGradient>
<linearGradient id="paint2_linear_342_22" x1="15.2945" y1="9.04356" x2="83.3873" y2="10.9569" gradientUnits="userSpaceOnUse">
<stop stop-color="#DBBB95"/>
<stop offset="1" stop-color="#B4844B"/>
</linearGradient>
<linearGradient id="paint3_linear_342_22" x1="99.1998" y1="95.9998" x2="59.9518" y2="-20.2422" gradientUnits="userSpaceOnUse">
<stop stop-color="#DBBB95"/>
<stop offset="1" stop-color="#B4844B"/>
</linearGradient>
</defs>
</svg>
