<svg viewBox="0 0 247 110" fill="none" xmlns="http://www.w3.org/2000/svg">
<path fill-rule="evenodd" clip-rule="evenodd" d="M246 4L163 4L163 3L246 3L247 3L247 4L247 68L246 68L246 4ZM68 101L0.999996 101L0.999998 43L-1.74846e-06 43L-4.28372e-06 101L-4.32743e-06 102L0.999996 102L68 102L68 101Z" fill="url(#paint0_linear_407_45)"/>
<path d="M54.572 59.732C54.572 60.292 54.628 60.712 54.74 60.992C54.852 61.2533 55.0667 61.4307 55.384 61.524C55.72 61.6173 56.2427 61.664 56.952 61.664C57.008 61.664 57.036 61.72 57.036 61.832C57.036 61.944 57.008 62 56.952 62C56.392 62 55.944 61.9907 55.608 61.972L53.62 61.944L51.688 61.972C51.352 61.9907 50.8947 62 50.316 62C50.26 62 50.232 61.944 50.232 61.832C50.232 61.72 50.26 61.664 50.316 61.664C51.0253 61.664 51.5387 61.6173 51.856 61.524C52.192 61.4307 52.416 61.2533 52.528 60.992C52.6587 60.712 52.724 60.292 52.724 59.732V46.768C52.724 46.208 52.6587 45.7973 52.528 45.536C52.416 45.2747 52.192 45.0973 51.856 45.004C51.5387 44.892 51.0253 44.836 50.316 44.836C50.26 44.836 50.232 44.78 50.232 44.668C50.232 44.556 50.26 44.5 50.316 44.5L51.688 44.528C52.472 44.5653 53.116 44.584 53.62 44.584C54.18 44.584 54.852 44.5653 55.636 44.528L56.952 44.5C57.008 44.5 57.036 44.556 57.036 44.668C57.036 44.78 57.008 44.836 56.952 44.836C56.2613 44.836 55.748 44.892 55.412 45.004C55.0947 45.116 54.8707 45.312 54.74 45.592C54.628 45.8533 54.572 46.264 54.572 46.824V59.732Z" fill="url(#paint1_linear_407_45)"/>
<path d="M74.9569 61.664C75.0129 61.664 75.0409 61.72 75.0409 61.832C75.0409 61.944 75.0129 62 74.9569 62C74.5275 62 74.1915 61.9907 73.9489 61.972L72.4369 61.944L70.8969 61.972C70.6542 61.9907 70.3182 62 69.8889 62C69.8329 62 69.8049 61.944 69.8049 61.832C69.8049 61.72 69.8329 61.664 69.8889 61.664C70.3929 61.664 70.7662 61.6173 71.0089 61.524C71.2515 61.412 71.4102 61.2253 71.4849 60.964C71.5782 60.7027 71.6249 60.292 71.6249 59.732V55.196C71.6249 54.0947 71.4102 53.2827 70.9809 52.76C70.5702 52.2373 69.9262 51.976 69.0489 51.976C68.4702 51.976 67.8822 52.1347 67.2849 52.452C66.7062 52.7507 66.1742 53.1707 65.6889 53.712V59.732C65.6889 60.292 65.7262 60.7027 65.8009 60.964C65.8942 61.2253 66.0622 61.412 66.3049 61.524C66.5475 61.6173 66.9209 61.664 67.4249 61.664C67.4809 61.664 67.5089 61.72 67.5089 61.832C67.5089 61.944 67.4809 62 67.4249 62C66.9955 62 66.6595 61.9907 66.4169 61.972L64.9049 61.944L63.3649 61.972C63.1222 61.9907 62.7862 62 62.3569 62C62.3009 62 62.2729 61.944 62.2729 61.832C62.2729 61.72 62.3009 61.664 62.3569 61.664C62.8609 61.664 63.2342 61.6173 63.4769 61.524C63.7195 61.412 63.8782 61.2253 63.9529 60.964C64.0462 60.7027 64.0929 60.292 64.0929 59.732V54.188C64.0929 53.5533 64.0182 53.096 63.8689 52.816C63.7195 52.536 63.4675 52.396 63.1129 52.396C62.8142 52.396 62.3102 52.536 61.6009 52.816H61.5449C61.4702 52.816 61.4142 52.7787 61.3769 52.704C61.3582 52.6107 61.3862 52.5453 61.4609 52.508L64.7089 50.968L64.8769 50.94C65.0449 50.94 65.2222 51.1547 65.4089 51.584C65.5955 52.0133 65.6889 52.564 65.6889 53.236C66.3982 52.4147 67.0982 51.808 67.7889 51.416C68.4982 51.024 69.2262 50.828 69.9729 50.828C71.0182 50.828 71.8209 51.1173 72.3809 51.696C72.9409 52.2747 73.2209 53.124 73.2209 54.244V59.732C73.2209 60.292 73.2582 60.7027 73.3329 60.964C73.4262 61.2253 73.5942 61.412 73.8369 61.524C74.0795 61.6173 74.4529 61.664 74.9569 61.664Z" fill="url(#paint2_linear_407_45)"/>
<path d="M90.4297 51.192C90.467 51.192 90.4857 51.248 90.4857 51.36C90.4857 51.472 90.467 51.528 90.4297 51.528C89.963 51.528 89.5617 51.6867 89.2257 52.004C88.8897 52.3027 88.5724 52.8253 88.2737 53.572L84.7737 61.972C84.7364 62.0653 84.6337 62.112 84.4657 62.112C84.2977 62.112 84.195 62.0653 84.1577 61.972L80.2377 53.516C79.8644 52.7133 79.547 52.1813 79.2857 51.92C79.043 51.6587 78.735 51.528 78.3617 51.528C78.3057 51.528 78.2777 51.472 78.2777 51.36C78.2777 51.248 78.3057 51.192 78.3617 51.192C78.735 51.192 79.0244 51.2013 79.2297 51.22L80.2937 51.248L82.1137 51.22C82.3937 51.2013 82.767 51.192 83.2337 51.192C83.2897 51.192 83.3177 51.248 83.3177 51.36C83.3177 51.472 83.2897 51.528 83.2337 51.528C82.1137 51.528 81.5537 51.752 81.5537 52.2C81.5537 52.3307 81.591 52.4707 81.6657 52.62L85.0817 59.844L87.7137 53.432C87.8444 53.0773 87.9097 52.8067 87.9097 52.62C87.9097 52.2467 87.7324 51.976 87.3777 51.808C87.023 51.6213 86.463 51.528 85.6977 51.528C85.6604 51.528 85.6417 51.472 85.6417 51.36C85.6417 51.248 85.6604 51.192 85.6977 51.192C86.2017 51.192 86.5844 51.2013 86.8457 51.22L88.5257 51.248L89.5337 51.22C89.7204 51.2013 90.019 51.192 90.4297 51.192Z" fill="url(#paint3_linear_407_45)"/>
<path d="M103.354 60.432C103.41 60.432 103.457 60.4693 103.494 60.544C103.55 60.6 103.56 60.656 103.522 60.712C102.29 61.7947 100.928 62.336 99.4343 62.336C98.3517 62.336 97.4277 62.084 96.6623 61.58C95.897 61.076 95.309 60.4133 94.8983 59.592C94.5063 58.7707 94.3103 57.8933 94.3103 56.96C94.3103 55.8587 94.5717 54.8507 95.0943 53.936C95.617 53.0027 96.3263 52.2747 97.2223 51.752C98.137 51.2107 99.1357 50.94 100.218 50.94C101.264 50.94 102.066 51.22 102.626 51.78C103.186 52.34 103.466 53.124 103.466 54.132C103.466 54.3933 103.438 54.58 103.382 54.692C103.345 54.804 103.27 54.86 103.158 54.86L96.2143 54.888C96.177 55.2987 96.1583 55.6347 96.1583 55.896C96.1583 57.52 96.541 58.836 97.3063 59.844C98.0717 60.852 99.145 61.356 100.526 61.356C101.086 61.356 101.562 61.2813 101.954 61.132C102.365 60.9827 102.822 60.7493 103.326 60.432H103.354ZM99.2943 51.5C98.4917 51.5 97.829 51.7707 97.3063 52.312C96.7837 52.8347 96.4383 53.572 96.2703 54.524L101.59 54.412C101.59 53.46 101.385 52.7413 100.974 52.256C100.564 51.752 100.004 51.5 99.2943 51.5Z" fill="url(#paint4_linear_407_45)"/>
<path d="M110.36 52.9C110.36 53.5533 110.575 54.076 111.004 54.468C111.433 54.8413 112.059 55.2427 112.88 55.672C113.533 56.008 114.037 56.2973 114.392 56.54C114.765 56.7827 115.083 57.1 115.344 57.492C115.605 57.884 115.736 58.36 115.736 58.92C115.736 59.872 115.381 60.6747 114.672 61.328C113.963 61.9813 113.001 62.308 111.788 62.308C110.799 62.308 109.903 62.028 109.1 61.468C108.988 61.3933 108.932 61.2813 108.932 61.132L108.876 58.948C108.876 58.892 108.923 58.864 109.016 58.864C109.128 58.8453 109.193 58.864 109.212 58.92C109.567 59.8533 110.024 60.5627 110.584 61.048C111.163 61.5333 111.825 61.776 112.572 61.776C113.188 61.776 113.655 61.6267 113.972 61.328C114.289 61.0293 114.429 60.5907 114.392 60.012C114.373 59.3027 114.149 58.7613 113.72 58.388C113.309 57.996 112.684 57.5947 111.844 57.184C111.228 56.8853 110.733 56.6147 110.36 56.372C110.005 56.1293 109.697 55.812 109.436 55.42C109.193 55.028 109.072 54.5427 109.072 53.964C109.072 52.956 109.445 52.1907 110.192 51.668C110.957 51.1267 111.853 50.856 112.88 50.856C113.627 50.856 114.308 50.996 114.924 51.276C115.036 51.3133 115.101 51.36 115.12 51.416C115.157 51.4533 115.176 51.5093 115.176 51.584C115.176 51.9573 115.167 52.2467 115.148 52.452L115.12 53.628C115.12 53.6653 115.064 53.684 114.952 53.684C114.84 53.684 114.784 53.6653 114.784 53.628C114.784 53.236 114.635 52.872 114.336 52.536C114.037 52.1813 113.664 51.9013 113.216 51.696C112.768 51.4907 112.32 51.388 111.872 51.388C111.405 51.388 111.032 51.5187 110.752 51.78C110.491 52.0227 110.36 52.396 110.36 52.9Z" fill="url(#paint5_linear_407_45)"/>
<path d="M128.501 60.544C128.576 60.544 128.632 60.5907 128.669 60.684C128.706 60.7587 128.697 60.8147 128.641 60.852C127.95 61.3933 127.325 61.776 126.765 62C126.224 62.224 125.654 62.336 125.057 62.336C124.273 62.336 123.629 62.1587 123.125 61.804C122.621 61.4493 122.369 60.8613 122.369 60.04V53.46C122.369 52.9747 122.332 52.6293 122.257 52.424C122.201 52.2187 122.08 52.088 121.893 52.032C121.706 51.9573 121.389 51.92 120.941 51.92C120.866 51.92 120.829 51.864 120.829 51.752C120.829 51.6213 120.866 51.556 120.941 51.556C121.688 51.5373 122.294 51.3413 122.761 50.968C123.228 50.576 123.498 50.0627 123.573 49.428C123.573 49.372 123.648 49.344 123.797 49.344C123.928 49.344 123.993 49.372 123.993 49.428V51.5C124.926 51.4813 126.224 51.388 127.885 51.22C127.922 51.22 127.96 51.2947 127.997 51.444C128.053 51.5747 128.081 51.724 128.081 51.892C128.081 52.0413 128.044 52.2 127.969 52.368C127.913 52.5173 127.848 52.5827 127.773 52.564C126.746 52.3027 125.486 52.1533 123.993 52.116V59.088C123.993 59.8533 124.18 60.4227 124.553 60.796C124.945 61.1693 125.496 61.356 126.205 61.356C127.026 61.356 127.773 61.0947 128.445 60.572L128.501 60.544Z" fill="url(#paint6_linear_407_45)"/>
<path d="M152.83 61.664C152.905 61.664 152.942 61.72 152.942 61.832C152.942 61.944 152.905 62 152.83 62C152.401 62 152.055 61.9907 151.794 61.972L150.282 61.944L148.77 61.972C148.509 61.9907 148.163 62 147.734 62C147.678 62 147.65 61.944 147.65 61.832C147.65 61.72 147.678 61.664 147.734 61.664C148.238 61.664 148.611 61.6173 148.854 61.524C149.097 61.412 149.265 61.2253 149.358 60.964C149.451 60.684 149.498 60.2733 149.498 59.732V55.28C149.498 54.1787 149.302 53.3667 148.91 52.844C148.518 52.3027 147.911 52.032 147.09 52.032C146.53 52.032 145.961 52.1907 145.382 52.508C144.822 52.8067 144.299 53.236 143.814 53.796C143.833 53.8893 143.842 54.0387 143.842 54.244V59.732C143.842 60.292 143.889 60.7027 143.982 60.964C144.075 61.2253 144.243 61.412 144.486 61.524C144.729 61.6173 145.102 61.664 145.606 61.664C145.662 61.664 145.69 61.72 145.69 61.832C145.69 61.944 145.662 62 145.606 62C145.177 62 144.831 61.9907 144.57 61.972L143.058 61.944L141.518 61.972C141.275 61.9907 140.939 62 140.51 62C140.454 62 140.426 61.944 140.426 61.832C140.426 61.72 140.454 61.664 140.51 61.664C141.014 61.664 141.387 61.6173 141.63 61.524C141.873 61.412 142.031 61.2253 142.106 60.964C142.199 60.7027 142.246 60.292 142.246 59.732V55.28C142.246 54.1787 142.05 53.3667 141.658 52.844C141.266 52.3027 140.669 52.032 139.866 52.032C139.306 52.032 138.746 52.1813 138.186 52.48C137.626 52.7787 137.113 53.1987 136.646 53.74V59.732C136.646 60.292 136.683 60.7027 136.758 60.964C136.851 61.2253 137.019 61.412 137.262 61.524C137.505 61.6173 137.878 61.664 138.382 61.664C138.438 61.664 138.466 61.72 138.466 61.832C138.466 61.944 138.438 62 138.382 62C137.953 62 137.617 61.9907 137.374 61.972L135.862 61.944L134.322 61.972C134.079 61.9907 133.743 62 133.314 62C133.258 62 133.23 61.944 133.23 61.832C133.23 61.72 133.258 61.664 133.314 61.664C133.818 61.664 134.191 61.6173 134.434 61.524C134.677 61.412 134.835 61.2253 134.91 60.964C135.003 60.7027 135.05 60.292 135.05 59.732V54.188C135.05 53.5533 134.975 53.096 134.826 52.816C134.677 52.536 134.425 52.396 134.07 52.396C133.771 52.396 133.267 52.536 132.558 52.816H132.502C132.427 52.816 132.371 52.7787 132.334 52.704C132.315 52.6107 132.343 52.5453 132.418 52.508L135.666 50.968L135.834 50.94C136.002 50.94 136.179 51.1547 136.366 51.584C136.553 52.0133 136.646 52.564 136.646 53.236V53.264C137.318 52.4427 137.99 51.8453 138.662 51.472C139.334 51.0987 140.034 50.912 140.762 50.912C141.602 50.912 142.283 51.1173 142.806 51.528C143.329 51.9387 143.655 52.5547 143.786 53.376C144.477 52.536 145.167 51.92 145.858 51.528C146.549 51.1173 147.267 50.912 148.014 50.912C149.003 50.912 149.759 51.2013 150.282 51.78C150.823 52.34 151.094 53.18 151.094 54.3V59.732C151.094 60.292 151.131 60.7027 151.206 60.964C151.299 61.2253 151.467 61.412 151.71 61.524C151.953 61.6173 152.326 61.664 152.83 61.664Z" fill="url(#paint7_linear_407_45)"/>
<path d="M166.261 60.432C166.317 60.432 166.364 60.4693 166.401 60.544C166.457 60.6 166.467 60.656 166.429 60.712C165.197 61.7947 163.835 62.336 162.341 62.336C161.259 62.336 160.335 62.084 159.569 61.58C158.804 61.076 158.216 60.4133 157.805 59.592C157.413 58.7707 157.217 57.8933 157.217 56.96C157.217 55.8587 157.479 54.8507 158.001 53.936C158.524 53.0027 159.233 52.2747 160.129 51.752C161.044 51.2107 162.043 50.94 163.125 50.94C164.171 50.94 164.973 51.22 165.533 51.78C166.093 52.34 166.373 53.124 166.373 54.132C166.373 54.3933 166.345 54.58 166.289 54.692C166.252 54.804 166.177 54.86 166.065 54.86L159.121 54.888C159.084 55.2987 159.065 55.6347 159.065 55.896C159.065 57.52 159.448 58.836 160.213 59.844C160.979 60.852 162.052 61.356 163.433 61.356C163.993 61.356 164.469 61.2813 164.861 61.132C165.272 60.9827 165.729 60.7493 166.233 60.432H166.261ZM162.201 51.5C161.399 51.5 160.736 51.7707 160.213 52.312C159.691 52.8347 159.345 53.572 159.177 54.524L164.497 54.412C164.497 53.46 164.292 52.7413 163.881 52.256C163.471 51.752 162.911 51.5 162.201 51.5Z" fill="url(#paint8_linear_407_45)"/>
<path d="M184.299 61.664C184.355 61.664 184.383 61.72 184.383 61.832C184.383 61.944 184.355 62 184.299 62C183.87 62 183.534 61.9907 183.291 61.972L181.779 61.944L180.239 61.972C179.996 61.9907 179.66 62 179.231 62C179.175 62 179.147 61.944 179.147 61.832C179.147 61.72 179.175 61.664 179.231 61.664C179.735 61.664 180.108 61.6173 180.351 61.524C180.594 61.412 180.752 61.2253 180.827 60.964C180.92 60.7027 180.967 60.292 180.967 59.732V55.196C180.967 54.0947 180.752 53.2827 180.323 52.76C179.912 52.2373 179.268 51.976 178.391 51.976C177.812 51.976 177.224 52.1347 176.627 52.452C176.048 52.7507 175.516 53.1707 175.031 53.712V59.732C175.031 60.292 175.068 60.7027 175.143 60.964C175.236 61.2253 175.404 61.412 175.647 61.524C175.89 61.6173 176.263 61.664 176.767 61.664C176.823 61.664 176.851 61.72 176.851 61.832C176.851 61.944 176.823 62 176.767 62C176.338 62 176.002 61.9907 175.759 61.972L174.247 61.944L172.707 61.972C172.464 61.9907 172.128 62 171.699 62C171.643 62 171.615 61.944 171.615 61.832C171.615 61.72 171.643 61.664 171.699 61.664C172.203 61.664 172.576 61.6173 172.819 61.524C173.062 61.412 173.22 61.2253 173.295 60.964C173.388 60.7027 173.435 60.292 173.435 59.732V54.188C173.435 53.5533 173.36 53.096 173.211 52.816C173.062 52.536 172.81 52.396 172.455 52.396C172.156 52.396 171.652 52.536 170.943 52.816H170.887C170.812 52.816 170.756 52.7787 170.719 52.704C170.7 52.6107 170.728 52.5453 170.803 52.508L174.051 50.968L174.219 50.94C174.387 50.94 174.564 51.1547 174.751 51.584C174.938 52.0133 175.031 52.564 175.031 53.236C175.74 52.4147 176.44 51.808 177.131 51.416C177.84 51.024 178.568 50.828 179.315 50.828C180.36 50.828 181.163 51.1173 181.723 51.696C182.283 52.2747 182.563 53.124 182.563 54.244V59.732C182.563 60.292 182.6 60.7027 182.675 60.964C182.768 61.2253 182.936 61.412 183.179 61.524C183.422 61.6173 183.795 61.664 184.299 61.664Z" fill="url(#paint9_linear_407_45)"/>
<path d="M196.412 60.544C196.487 60.544 196.543 60.5907 196.58 60.684C196.617 60.7587 196.608 60.8147 196.552 60.852C195.861 61.3933 195.236 61.776 194.676 62C194.135 62.224 193.565 62.336 192.968 62.336C192.184 62.336 191.54 62.1587 191.036 61.804C190.532 61.4493 190.28 60.8613 190.28 60.04V53.46C190.28 52.9747 190.243 52.6293 190.168 52.424C190.112 52.2187 189.991 52.088 189.804 52.032C189.617 51.9573 189.3 51.92 188.852 51.92C188.777 51.92 188.74 51.864 188.74 51.752C188.74 51.6213 188.777 51.556 188.852 51.556C189.599 51.5373 190.205 51.3413 190.672 50.968C191.139 50.576 191.409 50.0627 191.484 49.428C191.484 49.372 191.559 49.344 191.708 49.344C191.839 49.344 191.904 49.372 191.904 49.428V51.5C192.837 51.4813 194.135 51.388 195.796 51.22C195.833 51.22 195.871 51.2947 195.908 51.444C195.964 51.5747 195.992 51.724 195.992 51.892C195.992 52.0413 195.955 52.2 195.88 52.368C195.824 52.5173 195.759 52.5827 195.684 52.564C194.657 52.3027 193.397 52.1533 191.904 52.116V59.088C191.904 59.8533 192.091 60.4227 192.464 60.796C192.856 61.1693 193.407 61.356 194.116 61.356C194.937 61.356 195.684 61.0947 196.356 60.572L196.412 60.544Z" fill="url(#paint10_linear_407_45)"/>
<path d="M202.793 52.9C202.793 53.5533 203.008 54.076 203.437 54.468C203.866 54.8413 204.492 55.2427 205.313 55.672C205.966 56.008 206.47 56.2973 206.825 56.54C207.198 56.7827 207.516 57.1 207.777 57.492C208.038 57.884 208.169 58.36 208.169 58.92C208.169 59.872 207.814 60.6747 207.105 61.328C206.396 61.9813 205.434 62.308 204.221 62.308C203.232 62.308 202.336 62.028 201.533 61.468C201.421 61.3933 201.365 61.2813 201.365 61.132L201.309 58.948C201.309 58.892 201.356 58.864 201.449 58.864C201.561 58.8453 201.626 58.864 201.645 58.92C202 59.8533 202.457 60.5627 203.017 61.048C203.596 61.5333 204.258 61.776 205.005 61.776C205.621 61.776 206.088 61.6267 206.405 61.328C206.722 61.0293 206.862 60.5907 206.825 60.012C206.806 59.3027 206.582 58.7613 206.153 58.388C205.742 57.996 205.117 57.5947 204.277 57.184C203.661 56.8853 203.166 56.6147 202.793 56.372C202.438 56.1293 202.13 55.812 201.869 55.42C201.626 55.028 201.505 54.5427 201.505 53.964C201.505 52.956 201.878 52.1907 202.625 51.668C203.39 51.1267 204.286 50.856 205.313 50.856C206.06 50.856 206.741 50.996 207.357 51.276C207.469 51.3133 207.534 51.36 207.553 51.416C207.59 51.4533 207.609 51.5093 207.609 51.584C207.609 51.9573 207.6 52.2467 207.581 52.452L207.553 53.628C207.553 53.6653 207.497 53.684 207.385 53.684C207.273 53.684 207.217 53.6653 207.217 53.628C207.217 53.236 207.068 52.872 206.769 52.536C206.47 52.1813 206.097 51.9013 205.649 51.696C205.201 51.4907 204.753 51.388 204.305 51.388C203.838 51.388 203.465 51.5187 203.185 51.78C202.924 52.0227 202.793 52.396 202.793 52.9Z" fill="url(#paint11_linear_407_45)"/>
<path d="M109.849 101.664C109.923 101.664 109.961 101.72 109.961 101.832C109.961 101.944 109.923 102 109.849 102C109.494 102 108.943 101.981 108.197 101.944C107.45 101.907 106.909 101.888 106.573 101.888C106.162 101.888 105.639 101.907 105.005 101.944C104.407 101.981 103.95 102 103.633 102C103.558 102 103.521 101.944 103.521 101.832C103.521 101.72 103.558 101.664 103.633 101.664C104.323 101.664 104.827 101.599 105.145 101.468C105.462 101.337 105.621 101.113 105.621 100.796C105.621 100.535 105.499 100.133 105.257 99.592L102.765 94.3H96.1006L94.3366 98.444C94.0752 99.0787 93.9446 99.592 93.9446 99.984C93.9446 100.563 94.1686 100.992 94.6166 101.272C95.0832 101.533 95.7739 101.664 96.6886 101.664C96.7819 101.664 96.8286 101.72 96.8286 101.832C96.8286 101.944 96.7819 102 96.6886 102C96.3526 102 95.8672 101.981 95.2326 101.944C94.5232 101.907 93.9072 101.888 93.3846 101.888C92.8992 101.888 92.3392 101.907 91.7046 101.944C91.1446 101.981 90.6779 102 90.3046 102C90.2112 102 90.1646 101.944 90.1646 101.832C90.1646 101.72 90.2112 101.664 90.3046 101.664C90.8272 101.664 91.2659 101.571 91.6206 101.384C91.9939 101.179 92.3392 100.833 92.6566 100.348C92.9926 99.844 93.3566 99.1253 93.7486 98.192L99.6566 84.248C99.6939 84.192 99.7592 84.164 99.8526 84.164C99.9459 84.164 100.002 84.192 100.021 84.248L106.629 98.164C107.263 99.5453 107.805 100.479 108.253 100.964C108.701 101.431 109.233 101.664 109.849 101.664ZM96.3246 93.74H102.513L99.2366 86.824L96.3246 93.74Z" fill="url(#paint12_linear_407_45)"/>
<path d="M121.669 90.828C122.434 90.828 123.143 91.0333 123.797 91.444C124.45 91.8547 124.973 92.452 125.365 93.236C125.757 94.02 125.953 94.9347 125.953 95.98C125.953 97.38 125.635 98.5653 125.001 99.536C124.366 100.488 123.582 101.197 122.649 101.664C121.734 102.131 120.829 102.364 119.933 102.364C119.354 102.364 118.831 102.308 118.365 102.196C117.917 102.084 117.45 101.897 116.965 101.636V107.432C116.965 107.992 117.03 108.403 117.161 108.664C117.31 108.925 117.581 109.103 117.973 109.196C118.365 109.308 118.962 109.364 119.765 109.364C119.802 109.364 119.821 109.42 119.821 109.532C119.821 109.644 119.802 109.7 119.765 109.7C119.13 109.7 118.626 109.691 118.253 109.672L116.209 109.644L114.669 109.672C114.407 109.691 114.062 109.7 113.633 109.7C113.577 109.7 113.549 109.644 113.549 109.532C113.549 109.42 113.577 109.364 113.633 109.364C114.137 109.364 114.51 109.308 114.753 109.196C114.995 109.103 115.163 108.925 115.257 108.664C115.35 108.403 115.397 107.992 115.397 107.432V94.272C115.397 93.6 115.322 93.124 115.173 92.844C115.023 92.5453 114.762 92.396 114.389 92.396C113.978 92.396 113.483 92.5267 112.905 92.788L112.849 92.816C112.774 92.816 112.727 92.7693 112.709 92.676C112.671 92.5827 112.681 92.5173 112.737 92.48L115.845 90.996C115.882 90.9773 115.947 90.968 116.041 90.968C116.302 90.968 116.517 91.164 116.685 91.556C116.853 91.948 116.946 92.508 116.965 93.236C118.551 91.6307 120.119 90.828 121.669 90.828ZM120.773 101.776C121.762 101.776 122.574 101.347 123.209 100.488C123.843 99.6107 124.161 98.3973 124.161 96.848C124.161 95.28 123.815 94.0667 123.125 93.208C122.434 92.3307 121.557 91.892 120.493 91.892C119.839 91.892 119.233 92.0507 118.673 92.368C118.113 92.6853 117.543 93.1333 116.965 93.712V100.012C117.487 100.591 118.038 101.029 118.617 101.328C119.214 101.627 119.933 101.776 120.773 101.776Z" fill="url(#paint13_linear_407_45)"/>
<path d="M141.458 100.488C141.532 100.488 141.579 100.535 141.598 100.628C141.616 100.703 141.588 100.759 141.514 100.796L138.63 102.168C138.555 102.205 138.48 102.224 138.406 102.224C138.163 102.224 137.948 102.065 137.762 101.748C137.575 101.412 137.454 100.964 137.398 100.404L135.942 101.356C135.475 101.655 135.064 101.869 134.71 102C134.355 102.131 133.982 102.196 133.59 102.196C132.899 102.196 132.357 102.019 131.965 101.664C131.592 101.291 131.406 100.824 131.406 100.264C131.406 99.704 131.63 99.2187 132.078 98.808C132.526 98.3973 133.263 98.0053 134.29 97.632L137.37 96.484V94.58C137.37 92.4893 136.782 91.444 135.606 91.444C134.971 91.444 134.486 91.6587 134.15 92.088C133.832 92.4987 133.618 92.9747 133.506 93.516C133.45 93.852 133.347 94.132 133.198 94.356C133.048 94.5613 132.796 94.664 132.442 94.664C132.143 94.664 131.91 94.58 131.742 94.412C131.592 94.244 131.518 94.048 131.518 93.824C131.518 93.376 131.807 92.928 132.386 92.48C132.964 92.032 133.655 91.6587 134.458 91.36C135.26 91.0613 135.979 90.912 136.614 90.912C137.379 90.912 137.958 91.1547 138.35 91.64C138.742 92.1253 138.938 92.8253 138.938 93.74V98.976C138.938 99.6293 139.022 100.105 139.19 100.404C139.358 100.703 139.638 100.852 140.03 100.852C140.384 100.852 140.842 100.731 141.402 100.488H141.458ZM137.37 100.012V99.872V96.876L134.766 97.884C134.243 98.0893 133.86 98.332 133.618 98.612C133.394 98.8733 133.282 99.1907 133.282 99.564C133.282 100.012 133.421 100.395 133.701 100.712C134 101.011 134.383 101.16 134.85 101.16C135.223 101.16 135.671 101.011 136.194 100.712L137.37 100.012Z" fill="url(#paint14_linear_407_45)"/>
<path d="M152.068 90.94C152.479 90.94 152.871 91.052 153.244 91.276C153.617 91.5 153.804 91.7707 153.804 92.088C153.804 92.3307 153.72 92.536 153.552 92.704C153.403 92.872 153.179 92.956 152.88 92.956C152.712 92.956 152.563 92.928 152.432 92.872C152.32 92.7973 152.18 92.6947 152.012 92.564C151.844 92.4147 151.685 92.3027 151.536 92.228C151.387 92.1533 151.209 92.116 151.004 92.116C150.761 92.116 150.5 92.2187 150.22 92.424C149.959 92.6293 149.539 93.068 148.96 93.74V99.732C148.96 100.292 149.025 100.703 149.156 100.964C149.305 101.225 149.567 101.412 149.94 101.524C150.313 101.617 150.892 101.664 151.676 101.664C151.751 101.664 151.788 101.72 151.788 101.832C151.788 101.944 151.751 102 151.676 102C151.079 102 150.603 101.991 150.248 101.972L148.176 101.944L146.636 101.972C146.393 101.991 146.057 102 145.628 102C145.572 102 145.544 101.944 145.544 101.832C145.544 101.72 145.572 101.664 145.628 101.664C146.132 101.664 146.505 101.617 146.748 101.524C146.991 101.412 147.149 101.225 147.224 100.964C147.317 100.703 147.364 100.292 147.364 99.732V94.188C147.364 93.5533 147.289 93.096 147.14 92.816C146.991 92.536 146.739 92.396 146.384 92.396C146.085 92.396 145.581 92.536 144.872 92.816H144.816C144.741 92.816 144.685 92.7787 144.648 92.704C144.629 92.6107 144.657 92.5453 144.732 92.508L147.98 90.968L148.148 90.94C148.316 90.94 148.493 91.1547 148.68 91.584C148.867 92.0133 148.96 92.564 148.96 93.236V93.264C149.725 92.368 150.332 91.7613 150.78 91.444C151.228 91.108 151.657 90.94 152.068 90.94Z" fill="url(#paint15_linear_407_45)"/>
<path d="M166.075 100.544C166.15 100.544 166.206 100.591 166.243 100.684C166.281 100.759 166.271 100.815 166.215 100.852C165.525 101.393 164.899 101.776 164.339 102C163.798 102.224 163.229 102.336 162.631 102.336C161.847 102.336 161.203 102.159 160.699 101.804C160.195 101.449 159.943 100.861 159.943 100.04V93.46C159.943 92.9747 159.906 92.6293 159.831 92.424C159.775 92.2187 159.654 92.088 159.467 92.032C159.281 91.9573 158.963 91.92 158.515 91.92C158.441 91.92 158.403 91.864 158.403 91.752C158.403 91.6213 158.441 91.556 158.515 91.556C159.262 91.5373 159.869 91.3413 160.335 90.968C160.802 90.576 161.073 90.0627 161.147 89.428C161.147 89.372 161.222 89.344 161.371 89.344C161.502 89.344 161.567 89.372 161.567 89.428V91.5C162.501 91.4813 163.798 91.388 165.459 91.22C165.497 91.22 165.534 91.2947 165.571 91.444C165.627 91.5747 165.655 91.724 165.655 91.892C165.655 92.0413 165.618 92.2 165.543 92.368C165.487 92.5173 165.422 92.5827 165.347 92.564C164.321 92.3027 163.061 92.1533 161.567 92.116V99.088C161.567 99.8533 161.754 100.423 162.127 100.796C162.519 101.169 163.07 101.356 163.779 101.356C164.601 101.356 165.347 101.095 166.019 100.572L166.075 100.544Z" fill="url(#paint16_linear_407_45)"/>
<path d="M190.404 101.664C190.479 101.664 190.516 101.72 190.516 101.832C190.516 101.944 190.479 102 190.404 102C189.975 102 189.629 101.991 189.368 101.972L187.856 101.944L186.344 101.972C186.083 101.991 185.737 102 185.308 102C185.252 102 185.224 101.944 185.224 101.832C185.224 101.72 185.252 101.664 185.308 101.664C185.812 101.664 186.185 101.617 186.428 101.524C186.671 101.412 186.839 101.225 186.932 100.964C187.025 100.684 187.072 100.273 187.072 99.732V95.28C187.072 94.1787 186.876 93.3667 186.484 92.844C186.092 92.3027 185.485 92.032 184.664 92.032C184.104 92.032 183.535 92.1907 182.956 92.508C182.396 92.8067 181.873 93.236 181.388 93.796C181.407 93.8893 181.416 94.0387 181.416 94.244V99.732C181.416 100.292 181.463 100.703 181.556 100.964C181.649 101.225 181.817 101.412 182.06 101.524C182.303 101.617 182.676 101.664 183.18 101.664C183.236 101.664 183.264 101.72 183.264 101.832C183.264 101.944 183.236 102 183.18 102C182.751 102 182.405 101.991 182.144 101.972L180.632 101.944L179.092 101.972C178.849 101.991 178.513 102 178.084 102C178.028 102 178 101.944 178 101.832C178 101.72 178.028 101.664 178.084 101.664C178.588 101.664 178.961 101.617 179.204 101.524C179.447 101.412 179.605 101.225 179.68 100.964C179.773 100.703 179.82 100.292 179.82 99.732V95.28C179.82 94.1787 179.624 93.3667 179.232 92.844C178.84 92.3027 178.243 92.032 177.44 92.032C176.88 92.032 176.32 92.1813 175.76 92.48C175.2 92.7787 174.687 93.1987 174.22 93.74V99.732C174.22 100.292 174.257 100.703 174.332 100.964C174.425 101.225 174.593 101.412 174.836 101.524C175.079 101.617 175.452 101.664 175.956 101.664C176.012 101.664 176.04 101.72 176.04 101.832C176.04 101.944 176.012 102 175.956 102C175.527 102 175.191 101.991 174.948 101.972L173.436 101.944L171.896 101.972C171.653 101.991 171.317 102 170.888 102C170.832 102 170.804 101.944 170.804 101.832C170.804 101.72 170.832 101.664 170.888 101.664C171.392 101.664 171.765 101.617 172.008 101.524C172.251 101.412 172.409 101.225 172.484 100.964C172.577 100.703 172.624 100.292 172.624 99.732V94.188C172.624 93.5533 172.549 93.096 172.4 92.816C172.251 92.536 171.999 92.396 171.644 92.396C171.345 92.396 170.841 92.536 170.132 92.816H170.076C170.001 92.816 169.945 92.7787 169.908 92.704C169.889 92.6107 169.917 92.5453 169.992 92.508L173.24 90.968L173.408 90.94C173.576 90.94 173.753 91.1547 173.94 91.584C174.127 92.0133 174.22 92.564 174.22 93.236V93.264C174.892 92.4427 175.564 91.8453 176.236 91.472C176.908 91.0987 177.608 90.912 178.336 90.912C179.176 90.912 179.857 91.1173 180.38 91.528C180.903 91.9387 181.229 92.5547 181.36 93.376C182.051 92.536 182.741 91.92 183.432 91.528C184.123 91.1173 184.841 90.912 185.588 90.912C186.577 90.912 187.333 91.2013 187.856 91.78C188.397 92.34 188.668 93.18 188.668 94.3V99.732C188.668 100.292 188.705 100.703 188.78 100.964C188.873 101.225 189.041 101.412 189.284 101.524C189.527 101.617 189.9 101.664 190.404 101.664Z" fill="url(#paint17_linear_407_45)"/>
<path d="M203.836 100.432C203.892 100.432 203.938 100.469 203.976 100.544C204.032 100.6 204.041 100.656 204.004 100.712C202.772 101.795 201.409 102.336 199.916 102.336C198.833 102.336 197.909 102.084 197.144 101.58C196.378 101.076 195.79 100.413 195.38 99.592C194.988 98.7707 194.792 97.8933 194.792 96.96C194.792 95.8587 195.053 94.8507 195.576 93.936C196.098 93.0027 196.808 92.2747 197.704 91.752C198.618 91.2107 199.617 90.94 200.7 90.94C201.745 90.94 202.548 91.22 203.108 91.78C203.668 92.34 203.948 93.124 203.948 94.132C203.948 94.3933 203.92 94.58 203.864 94.692C203.826 94.804 203.752 94.86 203.64 94.86L196.696 94.888C196.658 95.2987 196.64 95.6347 196.64 95.896C196.64 97.52 197.022 98.836 197.788 99.844C198.553 100.852 199.626 101.356 201.008 101.356C201.568 101.356 202.044 101.281 202.436 101.132C202.846 100.983 203.304 100.749 203.808 100.432H203.836ZM199.776 91.5C198.973 91.5 198.31 91.7707 197.788 92.312C197.265 92.8347 196.92 93.572 196.752 94.524L202.072 94.412C202.072 93.46 201.866 92.7413 201.456 92.256C201.045 91.752 200.485 91.5 199.776 91.5Z" fill="url(#paint18_linear_407_45)"/>
<path d="M221.873 101.664C221.929 101.664 221.957 101.72 221.957 101.832C221.957 101.944 221.929 102 221.873 102C221.444 102 221.108 101.991 220.865 101.972L219.353 101.944L217.813 101.972C217.571 101.991 217.235 102 216.805 102C216.749 102 216.721 101.944 216.721 101.832C216.721 101.72 216.749 101.664 216.805 101.664C217.309 101.664 217.683 101.617 217.925 101.524C218.168 101.412 218.327 101.225 218.401 100.964C218.495 100.703 218.541 100.292 218.541 99.732V95.196C218.541 94.0947 218.327 93.2827 217.897 92.76C217.487 92.2373 216.843 91.976 215.965 91.976C215.387 91.976 214.799 92.1347 214.201 92.452C213.623 92.7507 213.091 93.1707 212.605 93.712V99.732C212.605 100.292 212.643 100.703 212.717 100.964C212.811 101.225 212.979 101.412 213.221 101.524C213.464 101.617 213.837 101.664 214.341 101.664C214.397 101.664 214.425 101.72 214.425 101.832C214.425 101.944 214.397 102 214.341 102C213.912 102 213.576 101.991 213.333 101.972L211.821 101.944L210.281 101.972C210.039 101.991 209.703 102 209.273 102C209.217 102 209.189 101.944 209.189 101.832C209.189 101.72 209.217 101.664 209.273 101.664C209.777 101.664 210.151 101.617 210.393 101.524C210.636 101.412 210.795 101.225 210.869 100.964C210.963 100.703 211.009 100.292 211.009 99.732V94.188C211.009 93.5533 210.935 93.096 210.785 92.816C210.636 92.536 210.384 92.396 210.029 92.396C209.731 92.396 209.227 92.536 208.517 92.816H208.461C208.387 92.816 208.331 92.7787 208.293 92.704C208.275 92.6107 208.303 92.5453 208.377 92.508L211.625 90.968L211.793 90.94C211.961 90.94 212.139 91.1547 212.325 91.584C212.512 92.0133 212.605 92.564 212.605 93.236C213.315 92.4147 214.015 91.808 214.705 91.416C215.415 91.024 216.143 90.828 216.889 90.828C217.935 90.828 218.737 91.1173 219.297 91.696C219.857 92.2747 220.137 93.124 220.137 94.244V99.732C220.137 100.292 220.175 100.703 220.249 100.964C220.343 101.225 220.511 101.412 220.753 101.524C220.996 101.617 221.369 101.664 221.873 101.664Z" fill="url(#paint19_linear_407_45)"/>
<path d="M233.986 100.544C234.061 100.544 234.117 100.591 234.154 100.684C234.191 100.759 234.182 100.815 234.126 100.852C233.435 101.393 232.81 101.776 232.25 102C231.709 102.224 231.139 102.336 230.542 102.336C229.758 102.336 229.114 102.159 228.61 101.804C228.106 101.449 227.854 100.861 227.854 100.04V93.46C227.854 92.9747 227.817 92.6293 227.742 92.424C227.686 92.2187 227.565 92.088 227.378 92.032C227.191 91.9573 226.874 91.92 226.426 91.92C226.351 91.92 226.314 91.864 226.314 91.752C226.314 91.6213 226.351 91.556 226.426 91.556C227.173 91.5373 227.779 91.3413 228.246 90.968C228.713 90.576 228.983 90.0627 229.058 89.428C229.058 89.372 229.133 89.344 229.282 89.344C229.413 89.344 229.478 89.372 229.478 89.428V91.5C230.411 91.4813 231.709 91.388 233.37 91.22C233.407 91.22 233.445 91.2947 233.482 91.444C233.538 91.5747 233.566 91.724 233.566 91.892C233.566 92.0413 233.529 92.2 233.454 92.368C233.398 92.5173 233.333 92.5827 233.258 92.564C232.231 92.3027 230.971 92.1533 229.478 92.116V99.088C229.478 99.8533 229.665 100.423 230.038 100.796C230.43 101.169 230.981 101.356 231.69 101.356C232.511 101.356 233.258 101.095 233.93 100.572L233.986 100.544Z" fill="url(#paint20_linear_407_45)"/>
<path d="M240.367 92.9C240.367 93.5533 240.582 94.076 241.011 94.468C241.44 94.8413 242.066 95.2427 242.887 95.672C243.54 96.008 244.044 96.2973 244.399 96.54C244.772 96.7827 245.09 97.1 245.351 97.492C245.612 97.884 245.743 98.36 245.743 98.92C245.743 99.872 245.388 100.675 244.679 101.328C243.97 101.981 243.008 102.308 241.795 102.308C240.806 102.308 239.91 102.028 239.107 101.468C238.995 101.393 238.939 101.281 238.939 101.132L238.883 98.948C238.883 98.892 238.93 98.864 239.023 98.864C239.135 98.8453 239.2 98.864 239.219 98.92C239.574 99.8533 240.031 100.563 240.591 101.048C241.17 101.533 241.832 101.776 242.579 101.776C243.195 101.776 243.662 101.627 243.979 101.328C244.296 101.029 244.436 100.591 244.399 100.012C244.38 99.3027 244.156 98.7613 243.727 98.388C243.316 97.996 242.691 97.5947 241.851 97.184C241.235 96.8853 240.74 96.6147 240.367 96.372C240.012 96.1293 239.704 95.812 239.443 95.42C239.2 95.028 239.079 94.5427 239.079 93.964C239.079 92.956 239.452 92.1907 240.199 91.668C240.964 91.1267 241.86 90.856 242.887 90.856C243.634 90.856 244.315 90.996 244.931 91.276C245.043 91.3133 245.108 91.36 245.127 91.416C245.164 91.4533 245.183 91.5093 245.183 91.584C245.183 91.9573 245.174 92.2467 245.155 92.452L245.127 93.628C245.127 93.6653 245.071 93.684 244.959 93.684C244.847 93.684 244.791 93.6653 244.791 93.628C244.791 93.236 244.642 92.872 244.343 92.536C244.044 92.1813 243.671 91.9013 243.223 91.696C242.775 91.4907 242.327 91.388 241.879 91.388C241.412 91.388 241.039 91.5187 240.759 91.78C240.498 92.0227 240.367 92.396 240.367 92.9Z" fill="url(#paint21_linear_407_45)"/>
<path d="M11.424 21.336C9.37066 21.336 7.57866 20.9253 6.04799 20.104C4.53599 19.2827 3.37866 18.172 2.57599 16.772C1.77333 15.372 1.37199 13.832 1.37199 12.152C1.37199 10.3413 1.82933 8.76401 2.74399 7.42001C3.65866 6.05735 4.90933 5.01201 6.49599 4.28401C8.10133 3.55601 9.89333 3.19201 11.872 3.19201C12.8613 3.19201 13.7947 3.28535 14.672 3.47201C15.5493 3.65868 16.2773 3.92935 16.856 4.28401C17.0053 4.35868 17.0893 4.42401 17.108 4.48001C17.1267 4.53601 17.1453 4.67601 17.164 4.90001L17.5 8.20401C17.5 8.26001 17.444 8.29735 17.332 8.31601C17.2387 8.33468 17.1827 8.30668 17.164 8.23201C16.3053 5.17068 14.364 3.64001 11.34 3.64001C9.86533 3.64001 8.53066 3.97601 7.33599 4.64801C6.15999 5.30135 5.22666 6.24401 4.53599 7.47601C3.86399 8.68935 3.52799 10.108 3.52799 11.732C3.52799 13.3187 3.85466 14.812 4.50799 16.212C5.16133 17.612 6.14133 18.7507 7.44799 19.628C8.75466 20.4867 10.332 20.916 12.18 20.916C13.5053 20.916 14.4387 20.664 14.98 20.16C15.5213 19.6373 15.792 18.7507 15.792 17.5C15.792 16.5293 15.7267 15.8573 15.596 15.484C15.484 15.092 15.2133 14.8307 14.784 14.7C14.3733 14.5693 13.6453 14.504 12.6 14.504C12.488 14.504 12.432 14.4293 12.432 14.28C12.432 14.224 12.4413 14.1773 12.46 14.14C12.4973 14.084 12.5347 14.056 12.572 14.056C14.028 14.1493 15.204 14.196 16.1 14.196C16.9587 14.196 17.8827 14.168 18.872 14.112C18.9093 14.112 18.9373 14.14 18.956 14.196C18.9933 14.2333 19.012 14.2707 19.012 14.308C19.012 14.4387 18.9653 14.504 18.872 14.504C18.4053 14.4853 18.0787 14.5507 17.892 14.7C17.724 14.8307 17.612 15.1107 17.556 15.54C17.5 15.9507 17.472 16.6973 17.472 17.78C17.472 18.62 17.5 19.2173 17.556 19.572C17.6307 19.9267 17.668 20.1507 17.668 20.244C17.668 20.356 17.6493 20.4307 17.612 20.468C17.5747 20.5053 17.4907 20.5427 17.36 20.58C15.0453 21.084 13.0667 21.336 11.424 21.336Z" fill="url(#paint22_linear_407_45)"/>
<path d="M29.2563 21.364C28.1736 21.364 27.2123 21.1027 26.3723 20.58C25.5509 20.0387 24.9163 19.32 24.4683 18.424C24.0203 17.5093 23.7963 16.52 23.7963 15.456C23.7963 14.2427 24.0856 13.216 24.6643 12.376C25.2616 11.5173 26.0176 10.8827 26.9323 10.472C27.8656 10.0427 28.8083 9.82801 29.7603 9.82801C30.8616 9.82801 31.8229 10.0987 32.6443 10.64C33.4656 11.1813 34.0909 11.9 34.5203 12.796C34.9683 13.6733 35.1923 14.6067 35.1923 15.596C35.1923 16.7533 34.9216 17.7707 34.3803 18.648C33.8389 19.5067 33.1109 20.1787 32.1963 20.664C31.3003 21.1307 30.3203 21.364 29.2563 21.364ZM30.0683 20.832C31.0949 20.832 31.8883 20.468 32.4483 19.74C33.0083 19.012 33.2883 17.892 33.2883 16.38C33.2883 15.2227 33.0923 14.1867 32.7003 13.272C32.3269 12.3573 31.8043 11.648 31.1323 11.144C30.4603 10.6213 29.6949 10.36 28.8363 10.36C27.8283 10.36 27.0443 10.724 26.4843 11.452C25.9429 12.18 25.6723 13.2253 25.6723 14.588C25.6723 15.7267 25.8589 16.772 26.2323 17.724C26.6056 18.676 27.1283 19.432 27.8003 19.992C28.4723 20.552 29.2283 20.832 30.0683 20.832Z" fill="url(#paint23_linear_407_45)"/>
<path d="M46.6867 9.94001C47.0974 9.94001 47.4894 10.052 47.8627 10.276C48.236 10.5 48.4227 10.7707 48.4227 11.088C48.4227 11.3307 48.3387 11.536 48.1707 11.704C48.0214 11.872 47.7974 11.956 47.4987 11.956C47.3307 11.956 47.1814 11.928 47.0507 11.872C46.9387 11.7973 46.7987 11.6947 46.6307 11.564C46.4627 11.4147 46.304 11.3027 46.1547 11.228C46.0054 11.1533 45.828 11.116 45.6227 11.116C45.38 11.116 45.1187 11.2187 44.8387 11.424C44.5774 11.6293 44.1574 12.068 43.5787 12.74V18.732C43.5787 19.292 43.644 19.7027 43.7747 19.964C43.924 20.2253 44.1854 20.412 44.5587 20.524C44.932 20.6173 45.5107 20.664 46.2947 20.664C46.3694 20.664 46.4067 20.72 46.4067 20.832C46.4067 20.944 46.3694 21 46.2947 21C45.6974 21 45.2214 20.9907 44.8667 20.972L42.7947 20.944L41.2547 20.972C41.012 20.9907 40.676 21 40.2467 21C40.1907 21 40.1627 20.944 40.1627 20.832C40.1627 20.72 40.1907 20.664 40.2467 20.664C40.7507 20.664 41.124 20.6173 41.3667 20.524C41.6094 20.412 41.768 20.2253 41.8427 19.964C41.936 19.7027 41.9827 19.292 41.9827 18.732V13.188C41.9827 12.5533 41.908 12.096 41.7587 11.816C41.6094 11.536 41.3574 11.396 41.0027 11.396C40.704 11.396 40.2 11.536 39.4907 11.816H39.4347C39.36 11.816 39.304 11.7787 39.2667 11.704C39.248 11.6107 39.276 11.5453 39.3507 11.508L42.5987 9.96801L42.7667 9.94001C42.9347 9.94001 43.112 10.1547 43.2987 10.584C43.4854 11.0133 43.5787 11.564 43.5787 12.236V12.264C44.344 11.368 44.9507 10.7613 45.3987 10.444C45.8467 10.108 46.276 9.94001 46.6867 9.94001Z" fill="url(#paint24_linear_407_45)"/>
<path d="M60.7219 9.82801C61.5246 9.82801 62.2713 10.024 62.9619 10.416C63.6526 10.808 64.2033 11.396 64.6139 12.18C65.0246 12.9453 65.2299 13.888 65.2299 15.008C65.2299 16.352 64.9313 17.5093 64.3339 18.48C63.7553 19.432 62.9899 20.1507 62.0379 20.636C61.1046 21.1213 60.1153 21.364 59.0699 21.364C57.6326 21.364 56.3633 20.9533 55.2619 20.132L53.1339 21.14H53.0779C53.0033 21.14 52.9566 21.1027 52.9379 21.028C52.9193 20.9533 52.9379 20.8973 52.9939 20.86C53.5913 20.4493 54.0113 20.0667 54.2539 19.712C54.4966 19.3387 54.6179 18.8067 54.6179 18.116V4.28401C54.6179 3.61201 54.5433 3.12668 54.3939 2.82801C54.2633 2.52935 54.0299 2.38001 53.6939 2.38001C53.4326 2.38001 53.0126 2.50135 52.4339 2.74401H52.3779C52.3219 2.74401 52.2753 2.69735 52.2379 2.60401C52.2193 2.51068 52.2379 2.45468 52.2939 2.43601L55.7939 0.728012L55.9339 0.700012C55.9713 0.700012 56.0179 0.728012 56.0739 0.784011C56.1486 0.821345 56.1859 0.868012 56.1859 0.924013V12.264C56.8953 11.5173 57.6046 10.9293 58.3139 10.5C59.0233 10.052 59.8259 9.82801 60.7219 9.82801ZM59.9379 20.832C61.0206 20.832 61.8606 20.412 62.4579 19.572C63.0739 18.732 63.3819 17.528 63.3819 15.96C63.3819 14.28 63.0553 12.992 62.4019 12.096C61.7486 11.2 60.8806 10.752 59.7979 10.752C59.1633 10.752 58.5566 10.9293 57.9779 11.284C57.3993 11.62 56.8019 12.096 56.1859 12.712V17.304C56.1859 18.1253 56.3819 18.7973 56.7739 19.32C57.1846 19.8427 57.6793 20.2253 58.2579 20.468C58.8366 20.7107 59.3966 20.832 59.9379 20.832Z" fill="url(#paint25_linear_407_45)"/>
<path d="M80.6794 19.488C80.754 19.488 80.8007 19.5347 80.8194 19.628C80.838 19.7027 80.81 19.7587 80.7354 19.796L77.8514 21.168C77.7767 21.2053 77.702 21.224 77.6274 21.224C77.3847 21.224 77.17 21.0653 76.9834 20.748C76.7967 20.412 76.6754 19.964 76.6194 19.404L75.1634 20.356C74.6967 20.6547 74.286 20.8693 73.9314 21C73.5767 21.1307 73.2034 21.196 72.8114 21.196C72.1207 21.196 71.5794 21.0187 71.1874 20.664C70.814 20.2907 70.6274 19.824 70.6274 19.264C70.6274 18.704 70.8514 18.2187 71.2994 17.808C71.7474 17.3973 72.4847 17.0053 73.5114 16.632L76.5914 15.484V13.58C76.5914 11.4893 76.0034 10.444 74.8274 10.444C74.1927 10.444 73.7074 10.6587 73.3714 11.088C73.054 11.4987 72.8394 11.9747 72.7274 12.516C72.6714 12.852 72.5687 13.132 72.4194 13.356C72.27 13.5613 72.018 13.664 71.6634 13.664C71.3647 13.664 71.1314 13.58 70.9634 13.412C70.814 13.244 70.7394 13.048 70.7394 12.824C70.7394 12.376 71.0287 11.928 71.6074 11.48C72.186 11.032 72.8767 10.6587 73.6794 10.36C74.482 10.0613 75.2007 9.91201 75.8354 9.91201C76.6007 9.91201 77.1794 10.1547 77.5714 10.64C77.9634 11.1253 78.1594 11.8253 78.1594 12.74V17.976C78.1594 18.6293 78.2434 19.1053 78.4114 19.404C78.5794 19.7027 78.8594 19.852 79.2514 19.852C79.606 19.852 80.0634 19.7307 80.6234 19.488H80.6794ZM76.5914 19.012V18.872V15.876L73.9874 16.884C73.4647 17.0893 73.082 17.332 72.8394 17.612C72.6154 17.8733 72.5034 18.1907 72.5034 18.564C72.5034 19.012 72.6434 19.3947 72.9234 19.712C73.222 20.0107 73.6047 20.16 74.0714 20.16C74.4447 20.16 74.8927 20.0107 75.4154 19.712L76.5914 19.012Z" fill="url(#paint26_linear_407_45)"/>
<path d="M90.0578 21.336C88.8445 21.336 87.8272 21.0747 87.0058 20.552C86.1845 20.0107 85.5778 19.32 85.1858 18.48C84.7938 17.64 84.5978 16.7533 84.5978 15.82C84.5978 14.6253 84.8965 13.5893 85.4938 12.712C86.0912 11.816 86.8565 11.1347 87.7898 10.668C88.7418 10.1827 89.7125 9.94001 90.7018 9.94001C91.5232 9.94001 92.2698 10.108 92.9418 10.444C93.6325 10.7613 93.9778 11.1627 93.9778 11.648C93.9778 11.8907 93.8845 12.1053 93.6978 12.292C93.5298 12.46 93.2965 12.544 92.9978 12.544C92.4938 12.544 92.0832 12.236 91.7658 11.62C91.5232 11.2467 91.2618 10.9667 90.9818 10.78C90.7018 10.5933 90.3005 10.5 89.7778 10.5C88.7325 10.5 87.9112 10.9107 87.3138 11.732C86.7352 12.5347 86.4458 13.6173 86.4458 14.98C86.4458 16.548 86.8378 17.836 87.6218 18.844C88.4058 19.852 89.5818 20.356 91.1498 20.356C92.2885 20.356 93.2405 20.048 94.0058 19.432H94.0338C94.0898 19.432 94.1365 19.46 94.1738 19.516C94.2298 19.572 94.2392 19.6187 94.2018 19.656C93.5485 20.2347 92.8858 20.664 92.2138 20.944C91.5605 21.2053 90.8418 21.336 90.0578 21.336Z" fill="url(#paint27_linear_407_45)"/>
<path d="M111.258 20.664C111.314 20.664 111.342 20.72 111.342 20.832C111.342 20.944 111.314 21 111.258 21C110.828 21 110.483 20.9907 110.222 20.972L108.71 20.944L107.198 20.972C106.936 20.9907 106.591 21 106.162 21C106.106 21 106.078 20.944 106.078 20.832C106.078 20.72 106.106 20.664 106.162 20.664C106.666 20.664 107.039 20.6173 107.282 20.524C107.524 20.412 107.692 20.2253 107.786 19.964C107.879 19.684 107.926 19.2733 107.926 18.732V14.28C107.926 13.1787 107.711 12.3667 107.282 11.844C106.871 11.3027 106.227 11.032 105.35 11.032C104.771 11.032 104.183 11.1907 103.586 11.508C102.988 11.8067 102.447 12.2267 101.962 12.768V18.732C101.962 19.2733 102.008 19.684 102.102 19.964C102.195 20.2253 102.363 20.412 102.606 20.524C102.848 20.6173 103.222 20.664 103.726 20.664C103.782 20.664 103.81 20.72 103.81 20.832C103.81 20.944 103.782 21 103.726 21C103.296 21 102.951 20.9907 102.69 20.972L101.178 20.944L99.6656 20.972C99.4042 20.9907 99.0589 21 98.6296 21C98.5736 21 98.5456 20.944 98.5456 20.832C98.5456 20.72 98.5736 20.664 98.6296 20.664C99.1336 20.664 99.5069 20.6173 99.7496 20.524C99.9922 20.412 100.16 20.2253 100.254 19.964C100.347 19.684 100.394 19.2733 100.394 18.732V4.25601C100.394 3.58401 100.328 3.09868 100.198 2.80001C100.067 2.50135 99.8336 2.35201 99.4976 2.35201C99.2176 2.35201 98.7882 2.48268 98.2096 2.74401H98.1536C98.0976 2.74401 98.0509 2.69735 98.0136 2.60401C97.9762 2.51068 97.9949 2.45468 98.0696 2.43601L101.626 0.700012H101.71C101.784 0.700012 101.84 0.728012 101.878 0.784011C101.934 0.821345 101.962 0.868012 101.962 0.924013V12.292C102.671 11.4707 103.371 10.8733 104.062 10.5C104.771 10.108 105.508 9.91201 106.274 9.91201C107.3 9.91201 108.094 10.2013 108.654 10.78C109.214 11.3587 109.494 12.1987 109.494 13.3V18.732C109.494 19.2733 109.54 19.684 109.634 19.964C109.727 20.2253 109.895 20.412 110.138 20.524C110.38 20.6173 110.754 20.664 111.258 20.664Z" fill="url(#paint28_linear_407_45)"/>
<path d="M124.726 19.432C124.782 19.432 124.829 19.4693 124.866 19.544C124.922 19.6 124.932 19.656 124.894 19.712C123.662 20.7947 122.3 21.336 120.806 21.336C119.724 21.336 118.8 21.084 118.034 20.58C117.269 20.076 116.681 19.4133 116.27 18.592C115.878 17.7707 115.682 16.8933 115.682 15.96C115.682 14.8587 115.944 13.8507 116.466 12.936C116.989 12.0027 117.698 11.2747 118.594 10.752C119.509 10.2107 120.508 9.94001 121.59 9.94001C122.636 9.94001 123.438 10.22 123.998 10.78C124.558 11.34 124.838 12.124 124.838 13.132C124.838 13.3933 124.81 13.58 124.754 13.692C124.717 13.804 124.642 13.86 124.53 13.86L117.586 13.888C117.549 14.2987 117.53 14.6347 117.53 14.896C117.53 16.52 117.913 17.836 118.678 18.844C119.444 19.852 120.517 20.356 121.898 20.356C122.458 20.356 122.934 20.2813 123.326 20.132C123.737 19.9827 124.194 19.7493 124.698 19.432H124.726ZM120.666 10.5C119.864 10.5 119.201 10.7707 118.678 11.312C118.156 11.8347 117.81 12.572 117.642 13.524L122.962 13.412C122.962 12.46 122.757 11.7413 122.346 11.256C121.936 10.752 121.376 10.5 120.666 10.5Z" fill="url(#paint29_linear_407_45)"/>
<path d="M140.972 10.192C141.009 10.192 141.028 10.248 141.028 10.36C141.028 10.472 141.009 10.528 140.972 10.528C140.505 10.528 140.104 10.6867 139.768 11.004C139.432 11.3027 139.115 11.8253 138.816 12.572L135.316 20.972C135.279 21.0653 135.176 21.112 135.008 21.112C134.84 21.112 134.737 21.0653 134.7 20.972L130.78 12.516C130.407 11.7133 130.089 11.1813 129.828 10.92C129.585 10.6587 129.277 10.528 128.904 10.528C128.848 10.528 128.82 10.472 128.82 10.36C128.82 10.248 128.848 10.192 128.904 10.192C129.277 10.192 129.567 10.2013 129.772 10.22L130.836 10.248L132.656 10.22C132.936 10.2013 133.309 10.192 133.776 10.192C133.832 10.192 133.86 10.248 133.86 10.36C133.86 10.472 133.832 10.528 133.776 10.528C132.656 10.528 132.096 10.752 132.096 11.2C132.096 11.3307 132.133 11.4707 132.208 11.62L135.624 18.844L138.256 12.432C138.387 12.0773 138.452 11.8067 138.452 11.62C138.452 11.2467 138.275 10.976 137.92 10.808C137.565 10.6213 137.005 10.528 136.24 10.528C136.203 10.528 136.184 10.472 136.184 10.36C136.184 10.248 136.203 10.192 136.24 10.192C136.744 10.192 137.127 10.2013 137.388 10.22L139.068 10.248L140.076 10.22C140.263 10.2013 140.561 10.192 140.972 10.192Z" fill="url(#paint30_linear_407_45)"/>
<defs>
<linearGradient id="paint0_linear_407_45" x1="247" y1="102" x2="228.684" y2="-28.9793" gradientUnits="userSpaceOnUse">
<stop stop-color="#DBBB95"/>
<stop offset="1" stop-color="#B4844B"/>
</linearGradient>
<linearGradient id="paint1_linear_407_45" x1="77.5231" y1="49.087" x2="203.518" y2="60.8247" gradientUnits="userSpaceOnUse">
<stop stop-color="#DBBB95"/>
<stop offset="1" stop-color="#B4844B"/>
</linearGradient>
<linearGradient id="paint2_linear_407_45" x1="77.5231" y1="49.087" x2="203.518" y2="60.8247" gradientUnits="userSpaceOnUse">
<stop stop-color="#DBBB95"/>
<stop offset="1" stop-color="#B4844B"/>
</linearGradient>
<linearGradient id="paint3_linear_407_45" x1="77.5231" y1="49.087" x2="203.518" y2="60.8247" gradientUnits="userSpaceOnUse">
<stop stop-color="#DBBB95"/>
<stop offset="1" stop-color="#B4844B"/>
</linearGradient>
<linearGradient id="paint4_linear_407_45" x1="77.5231" y1="49.087" x2="203.518" y2="60.8247" gradientUnits="userSpaceOnUse">
<stop stop-color="#DBBB95"/>
<stop offset="1" stop-color="#B4844B"/>
</linearGradient>
<linearGradient id="paint5_linear_407_45" x1="77.5231" y1="49.087" x2="203.518" y2="60.8247" gradientUnits="userSpaceOnUse">
<stop stop-color="#DBBB95"/>
<stop offset="1" stop-color="#B4844B"/>
</linearGradient>
<linearGradient id="paint6_linear_407_45" x1="77.5231" y1="49.087" x2="203.518" y2="60.8247" gradientUnits="userSpaceOnUse">
<stop stop-color="#DBBB95"/>
<stop offset="1" stop-color="#B4844B"/>
</linearGradient>
<linearGradient id="paint7_linear_407_45" x1="77.5231" y1="49.087" x2="203.518" y2="60.8247" gradientUnits="userSpaceOnUse">
<stop stop-color="#DBBB95"/>
<stop offset="1" stop-color="#B4844B"/>
</linearGradient>
<linearGradient id="paint8_linear_407_45" x1="77.5231" y1="49.087" x2="203.518" y2="60.8247" gradientUnits="userSpaceOnUse">
<stop stop-color="#DBBB95"/>
<stop offset="1" stop-color="#B4844B"/>
</linearGradient>
<linearGradient id="paint9_linear_407_45" x1="77.5231" y1="49.087" x2="203.518" y2="60.8247" gradientUnits="userSpaceOnUse">
<stop stop-color="#DBBB95"/>
<stop offset="1" stop-color="#B4844B"/>
</linearGradient>
<linearGradient id="paint10_linear_407_45" x1="77.5231" y1="49.087" x2="203.518" y2="60.8247" gradientUnits="userSpaceOnUse">
<stop stop-color="#DBBB95"/>
<stop offset="1" stop-color="#B4844B"/>
</linearGradient>
<linearGradient id="paint11_linear_407_45" x1="77.5231" y1="49.087" x2="203.518" y2="60.8247" gradientUnits="userSpaceOnUse">
<stop stop-color="#DBBB95"/>
<stop offset="1" stop-color="#B4844B"/>
</linearGradient>
<linearGradient id="paint12_linear_407_45" x1="114.206" y1="89.0869" x2="221.389" y2="97.5608" gradientUnits="userSpaceOnUse">
<stop stop-color="#DBBB95"/>
<stop offset="1" stop-color="#B4844B"/>
</linearGradient>
<linearGradient id="paint13_linear_407_45" x1="114.206" y1="89.0869" x2="221.389" y2="97.5608" gradientUnits="userSpaceOnUse">
<stop stop-color="#DBBB95"/>
<stop offset="1" stop-color="#B4844B"/>
</linearGradient>
<linearGradient id="paint14_linear_407_45" x1="114.206" y1="89.0869" x2="221.389" y2="97.5608" gradientUnits="userSpaceOnUse">
<stop stop-color="#DBBB95"/>
<stop offset="1" stop-color="#B4844B"/>
</linearGradient>
<linearGradient id="paint15_linear_407_45" x1="114.206" y1="89.0869" x2="221.389" y2="97.5608" gradientUnits="userSpaceOnUse">
<stop stop-color="#DBBB95"/>
<stop offset="1" stop-color="#B4844B"/>
</linearGradient>
<linearGradient id="paint16_linear_407_45" x1="114.206" y1="89.0869" x2="221.389" y2="97.5608" gradientUnits="userSpaceOnUse">
<stop stop-color="#DBBB95"/>
<stop offset="1" stop-color="#B4844B"/>
</linearGradient>
<linearGradient id="paint17_linear_407_45" x1="114.206" y1="89.0869" x2="221.389" y2="97.5608" gradientUnits="userSpaceOnUse">
<stop stop-color="#DBBB95"/>
<stop offset="1" stop-color="#B4844B"/>
</linearGradient>
<linearGradient id="paint18_linear_407_45" x1="114.206" y1="89.0869" x2="221.389" y2="97.5608" gradientUnits="userSpaceOnUse">
<stop stop-color="#DBBB95"/>
<stop offset="1" stop-color="#B4844B"/>
</linearGradient>
<linearGradient id="paint19_linear_407_45" x1="114.206" y1="89.0869" x2="221.389" y2="97.5608" gradientUnits="userSpaceOnUse">
<stop stop-color="#DBBB95"/>
<stop offset="1" stop-color="#B4844B"/>
</linearGradient>
<linearGradient id="paint20_linear_407_45" x1="114.206" y1="89.0869" x2="221.389" y2="97.5608" gradientUnits="userSpaceOnUse">
<stop stop-color="#DBBB95"/>
<stop offset="1" stop-color="#B4844B"/>
</linearGradient>
<linearGradient id="paint21_linear_407_45" x1="114.206" y1="89.0869" x2="221.389" y2="97.5608" gradientUnits="userSpaceOnUse">
<stop stop-color="#DBBB95"/>
<stop offset="1" stop-color="#B4844B"/>
</linearGradient>
<linearGradient id="paint22_linear_407_45" x1="26.5187" y1="8.08697" x2="143.797" y2="18.2449" gradientUnits="userSpaceOnUse">
<stop stop-color="#DBBB95"/>
<stop offset="1" stop-color="#B4844B"/>
</linearGradient>
<linearGradient id="paint23_linear_407_45" x1="26.5187" y1="8.08697" x2="143.797" y2="18.2449" gradientUnits="userSpaceOnUse">
<stop stop-color="#DBBB95"/>
<stop offset="1" stop-color="#B4844B"/>
</linearGradient>
<linearGradient id="paint24_linear_407_45" x1="26.5187" y1="8.08697" x2="143.797" y2="18.2449" gradientUnits="userSpaceOnUse">
<stop stop-color="#DBBB95"/>
<stop offset="1" stop-color="#B4844B"/>
</linearGradient>
<linearGradient id="paint25_linear_407_45" x1="26.5187" y1="8.08697" x2="143.797" y2="18.2449" gradientUnits="userSpaceOnUse">
<stop stop-color="#DBBB95"/>
<stop offset="1" stop-color="#B4844B"/>
</linearGradient>
<linearGradient id="paint26_linear_407_45" x1="26.5187" y1="8.08697" x2="143.797" y2="18.2449" gradientUnits="userSpaceOnUse">
<stop stop-color="#DBBB95"/>
<stop offset="1" stop-color="#B4844B"/>
</linearGradient>
<linearGradient id="paint27_linear_407_45" x1="26.5187" y1="8.08697" x2="143.797" y2="18.2449" gradientUnits="userSpaceOnUse">
<stop stop-color="#DBBB95"/>
<stop offset="1" stop-color="#B4844B"/>
</linearGradient>
<linearGradient id="paint28_linear_407_45" x1="26.5187" y1="8.08697" x2="143.797" y2="18.2449" gradientUnits="userSpaceOnUse">
<stop stop-color="#DBBB95"/>
<stop offset="1" stop-color="#B4844B"/>
</linearGradient>
<linearGradient id="paint29_linear_407_45" x1="26.5187" y1="8.08697" x2="143.797" y2="18.2449" gradientUnits="userSpaceOnUse">
<stop stop-color="#DBBB95"/>
<stop offset="1" stop-color="#B4844B"/>
</linearGradient>
<linearGradient id="paint30_linear_407_45" x1="26.5187" y1="8.08697" x2="143.797" y2="18.2449" gradientUnits="userSpaceOnUse">
<stop stop-color="#DBBB95"/>
<stop offset="1" stop-color="#B4844B"/>
</linearGradient>
</defs>
</svg>
