<svg viewBox="0 0 247 110" fill="none" xmlns="http://www.w3.org/2000/svg">
<path fill-rule="evenodd" clip-rule="evenodd" d="M246 4L163 4L163 3L246 3L247 3L247 4L247 101L247 102L247 68L246 68L246 4ZM129 101L0.999996 101L0.999998 43L-1.74846e-06 43L-4.28372e-06 101L-4.32743e-06 102L0.999996 102L129 102L129 101Z" fill="url(#paint0_linear_342_13)"/>
<path d="M54.572 59.732C54.572 60.292 54.628 60.712 54.74 60.992C54.852 61.2533 55.0667 61.4307 55.384 61.524C55.72 61.6173 56.2427 61.664 56.952 61.664C57.008 61.664 57.036 61.72 57.036 61.832C57.036 61.944 57.008 62 56.952 62C56.392 62 55.944 61.9907 55.608 61.972L53.62 61.944L51.688 61.972C51.352 61.9907 50.8947 62 50.316 62C50.26 62 50.232 61.944 50.232 61.832C50.232 61.72 50.26 61.664 50.316 61.664C51.0253 61.664 51.5387 61.6173 51.856 61.524C52.192 61.4307 52.416 61.2533 52.528 60.992C52.6587 60.712 52.724 60.292 52.724 59.732V46.768C52.724 46.208 52.6587 45.7973 52.528 45.536C52.416 45.2747 52.192 45.0973 51.856 45.004C51.5387 44.892 51.0253 44.836 50.316 44.836C50.26 44.836 50.232 44.78 50.232 44.668C50.232 44.556 50.26 44.5 50.316 44.5L51.688 44.528C52.472 44.5653 53.116 44.584 53.62 44.584C54.18 44.584 54.852 44.5653 55.636 44.528L56.952 44.5C57.008 44.5 57.036 44.556 57.036 44.668C57.036 44.78 57.008 44.836 56.952 44.836C56.2613 44.836 55.748 44.892 55.412 45.004C55.0947 45.116 54.8707 45.312 54.74 45.592C54.628 45.8533 54.572 46.264 54.572 46.824V59.732Z" fill="url(#paint1_linear_342_13)"/>
<path d="M74.9569 61.664C75.0129 61.664 75.0409 61.72 75.0409 61.832C75.0409 61.944 75.0129 62 74.9569 62C74.5275 62 74.1915 61.9907 73.9489 61.972L72.4369 61.944L70.8969 61.972C70.6542 61.9907 70.3182 62 69.8889 62C69.8329 62 69.8049 61.944 69.8049 61.832C69.8049 61.72 69.8329 61.664 69.8889 61.664C70.3929 61.664 70.7662 61.6173 71.0089 61.524C71.2515 61.412 71.4102 61.2253 71.4849 60.964C71.5782 60.7027 71.6249 60.292 71.6249 59.732V55.196C71.6249 54.0947 71.4102 53.2827 70.9809 52.76C70.5702 52.2373 69.9262 51.976 69.0489 51.976C68.4702 51.976 67.8822 52.1347 67.2849 52.452C66.7062 52.7507 66.1742 53.1707 65.6889 53.712V59.732C65.6889 60.292 65.7262 60.7027 65.8009 60.964C65.8942 61.2253 66.0622 61.412 66.3049 61.524C66.5475 61.6173 66.9209 61.664 67.4249 61.664C67.4809 61.664 67.5089 61.72 67.5089 61.832C67.5089 61.944 67.4809 62 67.4249 62C66.9955 62 66.6595 61.9907 66.4169 61.972L64.9049 61.944L63.3649 61.972C63.1222 61.9907 62.7862 62 62.3569 62C62.3009 62 62.2729 61.944 62.2729 61.832C62.2729 61.72 62.3009 61.664 62.3569 61.664C62.8609 61.664 63.2342 61.6173 63.4769 61.524C63.7195 61.412 63.8782 61.2253 63.9529 60.964C64.0462 60.7027 64.0929 60.292 64.0929 59.732V54.188C64.0929 53.5533 64.0182 53.096 63.8689 52.816C63.7195 52.536 63.4675 52.396 63.1129 52.396C62.8142 52.396 62.3102 52.536 61.6009 52.816H61.5449C61.4702 52.816 61.4142 52.7787 61.3769 52.704C61.3582 52.6107 61.3862 52.5453 61.4609 52.508L64.7089 50.968L64.8769 50.94C65.0449 50.94 65.2222 51.1547 65.4089 51.584C65.5955 52.0133 65.6889 52.564 65.6889 53.236C66.3982 52.4147 67.0982 51.808 67.7889 51.416C68.4982 51.024 69.2262 50.828 69.9729 50.828C71.0182 50.828 71.8209 51.1173 72.3809 51.696C72.9409 52.2747 73.2209 53.124 73.2209 54.244V59.732C73.2209 60.292 73.2582 60.7027 73.3329 60.964C73.4262 61.2253 73.5942 61.412 73.8369 61.524C74.0795 61.6173 74.4529 61.664 74.9569 61.664Z" fill="url(#paint2_linear_342_13)"/>
<path d="M90.4297 51.192C90.467 51.192 90.4857 51.248 90.4857 51.36C90.4857 51.472 90.467 51.528 90.4297 51.528C89.963 51.528 89.5617 51.6867 89.2257 52.004C88.8897 52.3027 88.5724 52.8253 88.2737 53.572L84.7737 61.972C84.7364 62.0653 84.6337 62.112 84.4657 62.112C84.2977 62.112 84.195 62.0653 84.1577 61.972L80.2377 53.516C79.8644 52.7133 79.547 52.1813 79.2857 51.92C79.043 51.6587 78.735 51.528 78.3617 51.528C78.3057 51.528 78.2777 51.472 78.2777 51.36C78.2777 51.248 78.3057 51.192 78.3617 51.192C78.735 51.192 79.0244 51.2013 79.2297 51.22L80.2937 51.248L82.1137 51.22C82.3937 51.2013 82.767 51.192 83.2337 51.192C83.2897 51.192 83.3177 51.248 83.3177 51.36C83.3177 51.472 83.2897 51.528 83.2337 51.528C82.1137 51.528 81.5537 51.752 81.5537 52.2C81.5537 52.3307 81.591 52.4707 81.6657 52.62L85.0817 59.844L87.7137 53.432C87.8444 53.0773 87.9097 52.8067 87.9097 52.62C87.9097 52.2467 87.7324 51.976 87.3777 51.808C87.023 51.6213 86.463 51.528 85.6977 51.528C85.6604 51.528 85.6417 51.472 85.6417 51.36C85.6417 51.248 85.6604 51.192 85.6977 51.192C86.2017 51.192 86.5844 51.2013 86.8457 51.22L88.5257 51.248L89.5337 51.22C89.7204 51.2013 90.019 51.192 90.4297 51.192Z" fill="url(#paint3_linear_342_13)"/>
<path d="M103.354 60.432C103.41 60.432 103.457 60.4693 103.494 60.544C103.55 60.6 103.56 60.656 103.522 60.712C102.29 61.7947 100.928 62.336 99.4343 62.336C98.3517 62.336 97.4277 62.084 96.6623 61.58C95.897 61.076 95.309 60.4133 94.8983 59.592C94.5063 58.7707 94.3103 57.8933 94.3103 56.96C94.3103 55.8587 94.5717 54.8507 95.0943 53.936C95.617 53.0027 96.3263 52.2747 97.2223 51.752C98.137 51.2107 99.1357 50.94 100.218 50.94C101.264 50.94 102.066 51.22 102.626 51.78C103.186 52.34 103.466 53.124 103.466 54.132C103.466 54.3933 103.438 54.58 103.382 54.692C103.345 54.804 103.27 54.86 103.158 54.86L96.2143 54.888C96.177 55.2987 96.1583 55.6347 96.1583 55.896C96.1583 57.52 96.541 58.836 97.3063 59.844C98.0717 60.852 99.145 61.356 100.526 61.356C101.086 61.356 101.562 61.2813 101.954 61.132C102.365 60.9827 102.822 60.7493 103.326 60.432H103.354ZM99.2943 51.5C98.4917 51.5 97.829 51.7707 97.3063 52.312C96.7837 52.8347 96.4383 53.572 96.2703 54.524L101.59 54.412C101.59 53.46 101.385 52.7413 100.974 52.256C100.564 51.752 100.004 51.5 99.2943 51.5Z" fill="url(#paint4_linear_342_13)"/>
<path d="M110.36 52.9C110.36 53.5533 110.575 54.076 111.004 54.468C111.433 54.8413 112.059 55.2427 112.88 55.672C113.533 56.008 114.037 56.2973 114.392 56.54C114.765 56.7827 115.083 57.1 115.344 57.492C115.605 57.884 115.736 58.36 115.736 58.92C115.736 59.872 115.381 60.6747 114.672 61.328C113.963 61.9813 113.001 62.308 111.788 62.308C110.799 62.308 109.903 62.028 109.1 61.468C108.988 61.3933 108.932 61.2813 108.932 61.132L108.876 58.948C108.876 58.892 108.923 58.864 109.016 58.864C109.128 58.8453 109.193 58.864 109.212 58.92C109.567 59.8533 110.024 60.5627 110.584 61.048C111.163 61.5333 111.825 61.776 112.572 61.776C113.188 61.776 113.655 61.6267 113.972 61.328C114.289 61.0293 114.429 60.5907 114.392 60.012C114.373 59.3027 114.149 58.7613 113.72 58.388C113.309 57.996 112.684 57.5947 111.844 57.184C111.228 56.8853 110.733 56.6147 110.36 56.372C110.005 56.1293 109.697 55.812 109.436 55.42C109.193 55.028 109.072 54.5427 109.072 53.964C109.072 52.956 109.445 52.1907 110.192 51.668C110.957 51.1267 111.853 50.856 112.88 50.856C113.627 50.856 114.308 50.996 114.924 51.276C115.036 51.3133 115.101 51.36 115.12 51.416C115.157 51.4533 115.176 51.5093 115.176 51.584C115.176 51.9573 115.167 52.2467 115.148 52.452L115.12 53.628C115.12 53.6653 115.064 53.684 114.952 53.684C114.84 53.684 114.784 53.6653 114.784 53.628C114.784 53.236 114.635 52.872 114.336 52.536C114.037 52.1813 113.664 51.9013 113.216 51.696C112.768 51.4907 112.32 51.388 111.872 51.388C111.405 51.388 111.032 51.5187 110.752 51.78C110.491 52.0227 110.36 52.396 110.36 52.9Z" fill="url(#paint5_linear_342_13)"/>
<path d="M128.501 60.544C128.576 60.544 128.632 60.5907 128.669 60.684C128.706 60.7587 128.697 60.8147 128.641 60.852C127.95 61.3933 127.325 61.776 126.765 62C126.224 62.224 125.654 62.336 125.057 62.336C124.273 62.336 123.629 62.1587 123.125 61.804C122.621 61.4493 122.369 60.8613 122.369 60.04V53.46C122.369 52.9747 122.332 52.6293 122.257 52.424C122.201 52.2187 122.08 52.088 121.893 52.032C121.706 51.9573 121.389 51.92 120.941 51.92C120.866 51.92 120.829 51.864 120.829 51.752C120.829 51.6213 120.866 51.556 120.941 51.556C121.688 51.5373 122.294 51.3413 122.761 50.968C123.228 50.576 123.498 50.0627 123.573 49.428C123.573 49.372 123.648 49.344 123.797 49.344C123.928 49.344 123.993 49.372 123.993 49.428V51.5C124.926 51.4813 126.224 51.388 127.885 51.22C127.922 51.22 127.96 51.2947 127.997 51.444C128.053 51.5747 128.081 51.724 128.081 51.892C128.081 52.0413 128.044 52.2 127.969 52.368C127.913 52.5173 127.848 52.5827 127.773 52.564C126.746 52.3027 125.486 52.1533 123.993 52.116V59.088C123.993 59.8533 124.18 60.4227 124.553 60.796C124.945 61.1693 125.496 61.356 126.205 61.356C127.026 61.356 127.773 61.0947 128.445 60.572L128.501 60.544Z" fill="url(#paint6_linear_342_13)"/>
<path d="M152.83 61.664C152.905 61.664 152.942 61.72 152.942 61.832C152.942 61.944 152.905 62 152.83 62C152.401 62 152.055 61.9907 151.794 61.972L150.282 61.944L148.77 61.972C148.509 61.9907 148.163 62 147.734 62C147.678 62 147.65 61.944 147.65 61.832C147.65 61.72 147.678 61.664 147.734 61.664C148.238 61.664 148.611 61.6173 148.854 61.524C149.097 61.412 149.265 61.2253 149.358 60.964C149.451 60.684 149.498 60.2733 149.498 59.732V55.28C149.498 54.1787 149.302 53.3667 148.91 52.844C148.518 52.3027 147.911 52.032 147.09 52.032C146.53 52.032 145.961 52.1907 145.382 52.508C144.822 52.8067 144.299 53.236 143.814 53.796C143.833 53.8893 143.842 54.0387 143.842 54.244V59.732C143.842 60.292 143.889 60.7027 143.982 60.964C144.075 61.2253 144.243 61.412 144.486 61.524C144.729 61.6173 145.102 61.664 145.606 61.664C145.662 61.664 145.69 61.72 145.69 61.832C145.69 61.944 145.662 62 145.606 62C145.177 62 144.831 61.9907 144.57 61.972L143.058 61.944L141.518 61.972C141.275 61.9907 140.939 62 140.51 62C140.454 62 140.426 61.944 140.426 61.832C140.426 61.72 140.454 61.664 140.51 61.664C141.014 61.664 141.387 61.6173 141.63 61.524C141.873 61.412 142.031 61.2253 142.106 60.964C142.199 60.7027 142.246 60.292 142.246 59.732V55.28C142.246 54.1787 142.05 53.3667 141.658 52.844C141.266 52.3027 140.669 52.032 139.866 52.032C139.306 52.032 138.746 52.1813 138.186 52.48C137.626 52.7787 137.113 53.1987 136.646 53.74V59.732C136.646 60.292 136.683 60.7027 136.758 60.964C136.851 61.2253 137.019 61.412 137.262 61.524C137.505 61.6173 137.878 61.664 138.382 61.664C138.438 61.664 138.466 61.72 138.466 61.832C138.466 61.944 138.438 62 138.382 62C137.953 62 137.617 61.9907 137.374 61.972L135.862 61.944L134.322 61.972C134.079 61.9907 133.743 62 133.314 62C133.258 62 133.23 61.944 133.23 61.832C133.23 61.72 133.258 61.664 133.314 61.664C133.818 61.664 134.191 61.6173 134.434 61.524C134.677 61.412 134.835 61.2253 134.91 60.964C135.003 60.7027 135.05 60.292 135.05 59.732V54.188C135.05 53.5533 134.975 53.096 134.826 52.816C134.677 52.536 134.425 52.396 134.07 52.396C133.771 52.396 133.267 52.536 132.558 52.816H132.502C132.427 52.816 132.371 52.7787 132.334 52.704C132.315 52.6107 132.343 52.5453 132.418 52.508L135.666 50.968L135.834 50.94C136.002 50.94 136.179 51.1547 136.366 51.584C136.553 52.0133 136.646 52.564 136.646 53.236V53.264C137.318 52.4427 137.99 51.8453 138.662 51.472C139.334 51.0987 140.034 50.912 140.762 50.912C141.602 50.912 142.283 51.1173 142.806 51.528C143.329 51.9387 143.655 52.5547 143.786 53.376C144.477 52.536 145.167 51.92 145.858 51.528C146.549 51.1173 147.267 50.912 148.014 50.912C149.003 50.912 149.759 51.2013 150.282 51.78C150.823 52.34 151.094 53.18 151.094 54.3V59.732C151.094 60.292 151.131 60.7027 151.206 60.964C151.299 61.2253 151.467 61.412 151.71 61.524C151.953 61.6173 152.326 61.664 152.83 61.664Z" fill="url(#paint7_linear_342_13)"/>
<path d="M166.261 60.432C166.317 60.432 166.364 60.4693 166.401 60.544C166.457 60.6 166.467 60.656 166.429 60.712C165.197 61.7947 163.835 62.336 162.341 62.336C161.259 62.336 160.335 62.084 159.569 61.58C158.804 61.076 158.216 60.4133 157.805 59.592C157.413 58.7707 157.217 57.8933 157.217 56.96C157.217 55.8587 157.479 54.8507 158.001 53.936C158.524 53.0027 159.233 52.2747 160.129 51.752C161.044 51.2107 162.043 50.94 163.125 50.94C164.171 50.94 164.973 51.22 165.533 51.78C166.093 52.34 166.373 53.124 166.373 54.132C166.373 54.3933 166.345 54.58 166.289 54.692C166.252 54.804 166.177 54.86 166.065 54.86L159.121 54.888C159.084 55.2987 159.065 55.6347 159.065 55.896C159.065 57.52 159.448 58.836 160.213 59.844C160.979 60.852 162.052 61.356 163.433 61.356C163.993 61.356 164.469 61.2813 164.861 61.132C165.272 60.9827 165.729 60.7493 166.233 60.432H166.261ZM162.201 51.5C161.399 51.5 160.736 51.7707 160.213 52.312C159.691 52.8347 159.345 53.572 159.177 54.524L164.497 54.412C164.497 53.46 164.292 52.7413 163.881 52.256C163.471 51.752 162.911 51.5 162.201 51.5Z" fill="url(#paint8_linear_342_13)"/>
<path d="M184.299 61.664C184.355 61.664 184.383 61.72 184.383 61.832C184.383 61.944 184.355 62 184.299 62C183.87 62 183.534 61.9907 183.291 61.972L181.779 61.944L180.239 61.972C179.996 61.9907 179.66 62 179.231 62C179.175 62 179.147 61.944 179.147 61.832C179.147 61.72 179.175 61.664 179.231 61.664C179.735 61.664 180.108 61.6173 180.351 61.524C180.594 61.412 180.752 61.2253 180.827 60.964C180.92 60.7027 180.967 60.292 180.967 59.732V55.196C180.967 54.0947 180.752 53.2827 180.323 52.76C179.912 52.2373 179.268 51.976 178.391 51.976C177.812 51.976 177.224 52.1347 176.627 52.452C176.048 52.7507 175.516 53.1707 175.031 53.712V59.732C175.031 60.292 175.068 60.7027 175.143 60.964C175.236 61.2253 175.404 61.412 175.647 61.524C175.89 61.6173 176.263 61.664 176.767 61.664C176.823 61.664 176.851 61.72 176.851 61.832C176.851 61.944 176.823 62 176.767 62C176.338 62 176.002 61.9907 175.759 61.972L174.247 61.944L172.707 61.972C172.464 61.9907 172.128 62 171.699 62C171.643 62 171.615 61.944 171.615 61.832C171.615 61.72 171.643 61.664 171.699 61.664C172.203 61.664 172.576 61.6173 172.819 61.524C173.062 61.412 173.22 61.2253 173.295 60.964C173.388 60.7027 173.435 60.292 173.435 59.732V54.188C173.435 53.5533 173.36 53.096 173.211 52.816C173.062 52.536 172.81 52.396 172.455 52.396C172.156 52.396 171.652 52.536 170.943 52.816H170.887C170.812 52.816 170.756 52.7787 170.719 52.704C170.7 52.6107 170.728 52.5453 170.803 52.508L174.051 50.968L174.219 50.94C174.387 50.94 174.564 51.1547 174.751 51.584C174.938 52.0133 175.031 52.564 175.031 53.236C175.74 52.4147 176.44 51.808 177.131 51.416C177.84 51.024 178.568 50.828 179.315 50.828C180.36 50.828 181.163 51.1173 181.723 51.696C182.283 52.2747 182.563 53.124 182.563 54.244V59.732C182.563 60.292 182.6 60.7027 182.675 60.964C182.768 61.2253 182.936 61.412 183.179 61.524C183.422 61.6173 183.795 61.664 184.299 61.664Z" fill="url(#paint9_linear_342_13)"/>
<path d="M196.412 60.544C196.487 60.544 196.543 60.5907 196.58 60.684C196.617 60.7587 196.608 60.8147 196.552 60.852C195.861 61.3933 195.236 61.776 194.676 62C194.135 62.224 193.565 62.336 192.968 62.336C192.184 62.336 191.54 62.1587 191.036 61.804C190.532 61.4493 190.28 60.8613 190.28 60.04V53.46C190.28 52.9747 190.243 52.6293 190.168 52.424C190.112 52.2187 189.991 52.088 189.804 52.032C189.617 51.9573 189.3 51.92 188.852 51.92C188.777 51.92 188.74 51.864 188.74 51.752C188.74 51.6213 188.777 51.556 188.852 51.556C189.599 51.5373 190.205 51.3413 190.672 50.968C191.139 50.576 191.409 50.0627 191.484 49.428C191.484 49.372 191.559 49.344 191.708 49.344C191.839 49.344 191.904 49.372 191.904 49.428V51.5C192.837 51.4813 194.135 51.388 195.796 51.22C195.833 51.22 195.871 51.2947 195.908 51.444C195.964 51.5747 195.992 51.724 195.992 51.892C195.992 52.0413 195.955 52.2 195.88 52.368C195.824 52.5173 195.759 52.5827 195.684 52.564C194.657 52.3027 193.397 52.1533 191.904 52.116V59.088C191.904 59.8533 192.091 60.4227 192.464 60.796C192.856 61.1693 193.407 61.356 194.116 61.356C194.937 61.356 195.684 61.0947 196.356 60.572L196.412 60.544Z" fill="url(#paint10_linear_342_13)"/>
<path d="M202.793 52.9C202.793 53.5533 203.008 54.076 203.437 54.468C203.866 54.8413 204.492 55.2427 205.313 55.672C205.966 56.008 206.47 56.2973 206.825 56.54C207.198 56.7827 207.516 57.1 207.777 57.492C208.038 57.884 208.169 58.36 208.169 58.92C208.169 59.872 207.814 60.6747 207.105 61.328C206.396 61.9813 205.434 62.308 204.221 62.308C203.232 62.308 202.336 62.028 201.533 61.468C201.421 61.3933 201.365 61.2813 201.365 61.132L201.309 58.948C201.309 58.892 201.356 58.864 201.449 58.864C201.561 58.8453 201.626 58.864 201.645 58.92C202 59.8533 202.457 60.5627 203.017 61.048C203.596 61.5333 204.258 61.776 205.005 61.776C205.621 61.776 206.088 61.6267 206.405 61.328C206.722 61.0293 206.862 60.5907 206.825 60.012C206.806 59.3027 206.582 58.7613 206.153 58.388C205.742 57.996 205.117 57.5947 204.277 57.184C203.661 56.8853 203.166 56.6147 202.793 56.372C202.438 56.1293 202.13 55.812 201.869 55.42C201.626 55.028 201.505 54.5427 201.505 53.964C201.505 52.956 201.878 52.1907 202.625 51.668C203.39 51.1267 204.286 50.856 205.313 50.856C206.06 50.856 206.741 50.996 207.357 51.276C207.469 51.3133 207.534 51.36 207.553 51.416C207.59 51.4533 207.609 51.5093 207.609 51.584C207.609 51.9573 207.6 52.2467 207.581 52.452L207.553 53.628C207.553 53.6653 207.497 53.684 207.385 53.684C207.273 53.684 207.217 53.6653 207.217 53.628C207.217 53.236 207.068 52.872 206.769 52.536C206.47 52.1813 206.097 51.9013 205.649 51.696C205.201 51.4907 204.753 51.388 204.305 51.388C203.838 51.388 203.465 51.5187 203.185 51.78C202.924 52.0227 202.793 52.396 202.793 52.9Z" fill="url(#paint11_linear_342_13)"/>
<path d="M171.197 101.664C171.272 101.664 171.309 101.72 171.309 101.832C171.309 101.944 171.272 102 171.197 102C170.842 102 170.292 101.981 169.545 101.944C168.798 101.907 168.257 101.888 167.921 101.888C167.51 101.888 166.988 101.907 166.353 101.944C165.756 101.981 165.298 102 164.981 102C164.906 102 164.869 101.944 164.869 101.832C164.869 101.72 164.906 101.664 164.981 101.664C165.672 101.664 166.176 101.599 166.493 101.468C166.81 101.337 166.969 101.113 166.969 100.796C166.969 100.535 166.848 100.133 166.605 99.592L164.113 94.3H157.449L155.685 98.444C155.424 99.0787 155.293 99.592 155.293 99.984C155.293 100.563 155.517 100.992 155.965 101.272C156.432 101.533 157.122 101.664 158.037 101.664C158.13 101.664 158.177 101.72 158.177 101.832C158.177 101.944 158.13 102 158.037 102C157.701 102 157.216 101.981 156.581 101.944C155.872 101.907 155.256 101.888 154.733 101.888C154.248 101.888 153.688 101.907 153.053 101.944C152.493 101.981 152.026 102 151.653 102C151.56 102 151.513 101.944 151.513 101.832C151.513 101.72 151.56 101.664 151.653 101.664C152.176 101.664 152.614 101.571 152.969 101.384C153.342 101.179 153.688 100.833 154.005 100.348C154.341 99.844 154.705 99.1253 155.097 98.192L161.005 84.248C161.042 84.192 161.108 84.164 161.201 84.164C161.294 84.164 161.35 84.192 161.369 84.248L167.977 98.164C168.612 99.5453 169.153 100.479 169.601 100.964C170.049 101.431 170.581 101.664 171.197 101.664ZM157.673 93.74H163.861L160.585 86.824L157.673 93.74Z" fill="url(#paint12_linear_342_13)"/>
<path d="M181.141 101.328C182.149 101.347 182.961 101.403 183.577 101.496C184.193 101.571 184.762 101.813 185.285 102.224C185.808 102.635 186.069 103.288 186.069 104.184C186.069 105.192 185.742 106.125 185.089 106.984C184.436 107.861 183.568 108.552 182.485 109.056C181.421 109.579 180.301 109.84 179.125 109.84C177.837 109.84 176.82 109.551 176.073 108.972C175.345 108.412 174.981 107.675 174.981 106.76C174.981 105.379 175.942 104.016 177.865 102.672C177.156 102.579 176.614 102.383 176.241 102.084C175.868 101.804 175.681 101.375 175.681 100.796C175.681 100.236 175.84 99.7413 176.157 99.312C176.474 98.864 176.988 98.36 177.697 97.8C177.062 97.4827 176.568 97.044 176.213 96.484C175.858 95.924 175.681 95.308 175.681 94.636C175.681 93.5907 176.092 92.7227 176.913 92.032C177.753 91.3413 178.826 90.996 180.133 90.996C181.346 90.996 182.317 91.2853 183.045 91.864C183.549 91.5653 184.034 91.3413 184.501 91.192C184.986 91.0427 185.5 90.968 186.041 90.968C186.078 90.968 186.106 91.0333 186.125 91.164C186.162 91.2947 186.181 91.4347 186.181 91.584C186.181 91.808 186.153 92.032 186.097 92.256C186.06 92.48 186.004 92.5733 185.929 92.536C185.612 92.4053 185.304 92.3027 185.005 92.228C184.725 92.1533 184.408 92.116 184.053 92.116C183.866 92.116 183.642 92.1347 183.381 92.172C184.016 92.8627 184.333 93.6653 184.333 94.58C184.333 95.2333 184.146 95.8493 183.773 96.428C183.418 96.988 182.905 97.436 182.233 97.772C181.561 98.108 180.796 98.276 179.937 98.276C179.284 98.276 178.677 98.1733 178.117 97.968C177.744 98.2853 177.473 98.584 177.305 98.864C177.156 99.144 177.081 99.452 177.081 99.788C177.081 100.199 177.202 100.516 177.445 100.74C177.706 100.945 178.126 101.095 178.705 101.188C179.284 101.281 180.096 101.328 181.141 101.328ZM179.461 91.416C178.098 91.416 177.417 92.2653 177.417 93.964C177.417 94.804 177.566 95.5227 177.865 96.12C178.164 96.6987 178.546 97.1373 179.013 97.436C179.48 97.716 179.965 97.856 180.469 97.856C181.104 97.856 181.608 97.6413 181.981 97.212C182.373 96.764 182.569 96.092 182.569 95.196C182.569 94.0387 182.27 93.124 181.673 92.452C181.076 91.7613 180.338 91.416 179.461 91.416ZM180.273 109C181.561 109 182.616 108.655 183.437 107.964C184.258 107.292 184.669 106.387 184.669 105.248C184.669 104.501 184.482 103.951 184.109 103.596C183.754 103.26 183.278 103.045 182.681 102.952C182.084 102.859 181.253 102.812 180.189 102.812C179.741 102.812 179.181 102.793 178.509 102.756C177.893 103.148 177.417 103.577 177.081 104.044C176.764 104.529 176.605 105.127 176.605 105.836C176.605 106.807 176.922 107.572 177.557 108.132C178.21 108.711 179.116 109 180.273 109Z" fill="url(#paint13_linear_342_13)"/>
<path d="M199.078 100.432C199.134 100.432 199.18 100.469 199.218 100.544C199.274 100.6 199.283 100.656 199.246 100.712C198.014 101.795 196.651 102.336 195.158 102.336C194.075 102.336 193.151 102.084 192.386 101.58C191.62 101.076 191.032 100.413 190.622 99.592C190.23 98.7707 190.034 97.8933 190.034 96.96C190.034 95.8587 190.295 94.8507 190.818 93.936C191.34 93.0027 192.05 92.2747 192.946 91.752C193.86 91.2107 194.859 90.94 195.942 90.94C196.987 90.94 197.79 91.22 198.35 91.78C198.91 92.34 199.19 93.124 199.19 94.132C199.19 94.3933 199.162 94.58 199.106 94.692C199.068 94.804 198.994 94.86 198.882 94.86L191.938 94.888C191.9 95.2987 191.882 95.6347 191.882 95.896C191.882 97.52 192.264 98.836 193.03 99.844C193.795 100.852 194.868 101.356 196.25 101.356C196.81 101.356 197.286 101.281 197.678 101.132C198.088 100.983 198.546 100.749 199.05 100.432H199.078ZM195.018 91.5C194.215 91.5 193.552 91.7707 193.03 92.312C192.507 92.8347 192.162 93.572 191.994 94.524L197.314 94.412C197.314 93.46 197.108 92.7413 196.698 92.256C196.287 91.752 195.727 91.5 195.018 91.5Z" fill="url(#paint14_linear_342_13)"/>
<path d="M217.115 101.664C217.171 101.664 217.199 101.72 217.199 101.832C217.199 101.944 217.171 102 217.115 102C216.686 102 216.35 101.991 216.107 101.972L214.595 101.944L213.055 101.972C212.813 101.991 212.477 102 212.047 102C211.991 102 211.963 101.944 211.963 101.832C211.963 101.72 211.991 101.664 212.047 101.664C212.551 101.664 212.925 101.617 213.167 101.524C213.41 101.412 213.569 101.225 213.643 100.964C213.737 100.703 213.783 100.292 213.783 99.732V95.196C213.783 94.0947 213.569 93.2827 213.139 92.76C212.729 92.2373 212.085 91.976 211.207 91.976C210.629 91.976 210.041 92.1347 209.443 92.452C208.865 92.7507 208.333 93.1707 207.847 93.712V99.732C207.847 100.292 207.885 100.703 207.959 100.964C208.053 101.225 208.221 101.412 208.463 101.524C208.706 101.617 209.079 101.664 209.583 101.664C209.639 101.664 209.667 101.72 209.667 101.832C209.667 101.944 209.639 102 209.583 102C209.154 102 208.818 101.991 208.575 101.972L207.063 101.944L205.523 101.972C205.281 101.991 204.945 102 204.515 102C204.459 102 204.431 101.944 204.431 101.832C204.431 101.72 204.459 101.664 204.515 101.664C205.019 101.664 205.393 101.617 205.635 101.524C205.878 101.412 206.037 101.225 206.111 100.964C206.205 100.703 206.251 100.292 206.251 99.732V94.188C206.251 93.5533 206.177 93.096 206.027 92.816C205.878 92.536 205.626 92.396 205.271 92.396C204.973 92.396 204.469 92.536 203.759 92.816H203.703C203.629 92.816 203.573 92.7787 203.535 92.704C203.517 92.6107 203.545 92.5453 203.619 92.508L206.867 90.968L207.035 90.94C207.203 90.94 207.381 91.1547 207.567 91.584C207.754 92.0133 207.847 92.564 207.847 93.236C208.557 92.4147 209.257 91.808 209.947 91.416C210.657 91.024 211.385 90.828 212.131 90.828C213.177 90.828 213.979 91.1173 214.539 91.696C215.099 92.2747 215.379 93.124 215.379 94.244V99.732C215.379 100.292 215.417 100.703 215.491 100.964C215.585 101.225 215.753 101.412 215.995 101.524C216.238 101.617 216.611 101.664 217.115 101.664Z" fill="url(#paint15_linear_342_13)"/>
<path d="M226.988 102.336C225.775 102.336 224.758 102.075 223.936 101.552C223.115 101.011 222.508 100.32 222.116 99.48C221.724 98.64 221.528 97.7533 221.528 96.82C221.528 95.6253 221.827 94.5893 222.424 93.712C223.022 92.816 223.787 92.1347 224.72 91.668C225.672 91.1827 226.643 90.94 227.632 90.94C228.454 90.94 229.2 91.108 229.872 91.444C230.563 91.7613 230.908 92.1627 230.908 92.648C230.908 92.8907 230.815 93.1053 230.628 93.292C230.46 93.46 230.227 93.544 229.928 93.544C229.424 93.544 229.014 93.236 228.696 92.62C228.454 92.2467 228.192 91.9667 227.912 91.78C227.632 91.5933 227.231 91.5 226.708 91.5C225.663 91.5 224.842 91.9107 224.244 92.732C223.666 93.5347 223.376 94.6173 223.376 95.98C223.376 97.548 223.768 98.836 224.552 99.844C225.336 100.852 226.512 101.356 228.08 101.356C229.219 101.356 230.171 101.048 230.936 100.432H230.964C231.02 100.432 231.067 100.46 231.104 100.516C231.16 100.572 231.17 100.619 231.132 100.656C230.479 101.235 229.816 101.664 229.144 101.944C228.491 102.205 227.772 102.336 226.988 102.336Z" fill="url(#paint16_linear_342_13)"/>
<path d="M246.9 91.192C246.956 91.192 246.984 91.248 246.984 91.36C246.984 91.472 246.956 91.528 246.9 91.528C246.433 91.528 246.032 91.696 245.696 92.032C245.36 92.368 245.043 92.9187 244.744 93.684L241.328 102.784C240.637 104.595 239.984 106.004 239.368 107.012C238.771 108.039 238.145 108.767 237.492 109.196C236.857 109.644 236.12 109.868 235.28 109.868C234.869 109.868 234.533 109.775 234.272 109.588C233.992 109.401 233.852 109.131 233.852 108.776C233.852 108.515 233.936 108.309 234.104 108.16C234.272 108.011 234.477 107.936 234.72 107.936C234.963 107.936 235.168 107.964 235.336 108.02C235.504 108.076 235.681 108.169 235.868 108.3C235.905 108.319 236.008 108.375 236.176 108.468C236.363 108.561 236.587 108.608 236.848 108.608C237.296 108.608 237.716 108.412 238.108 108.02C238.519 107.628 238.948 106.965 239.396 106.032C239.863 105.117 240.404 103.848 241.02 102.224L236.764 93.516C236.335 92.6947 236.008 92.1627 235.784 91.92C235.56 91.6587 235.271 91.528 234.916 91.528C234.879 91.528 234.86 91.472 234.86 91.36C234.86 91.248 234.879 91.192 234.916 91.192L235.868 91.22C236.092 91.2387 236.4 91.248 236.792 91.248L238.584 91.22C238.845 91.2013 239.209 91.192 239.676 91.192C239.713 91.192 239.732 91.248 239.732 91.36C239.732 91.472 239.713 91.528 239.676 91.528C238.593 91.528 238.052 91.7427 238.052 92.172C238.052 92.284 238.099 92.4333 238.192 92.62L241.888 100.208L244.128 93.768C244.277 93.32 244.352 92.9653 244.352 92.704C244.352 92.2747 244.184 91.976 243.848 91.808C243.512 91.6213 242.961 91.528 242.196 91.528C242.159 91.528 242.14 91.472 242.14 91.36C242.14 91.248 242.159 91.192 242.196 91.192C242.7 91.192 243.083 91.2013 243.344 91.22L245.024 91.248L246.032 91.22C246.219 91.2013 246.508 91.192 246.9 91.192Z" fill="url(#paint17_linear_342_13)"/>
<path d="M11.424 21.336C9.37066 21.336 7.57866 20.9253 6.04799 20.104C4.53599 19.2827 3.37866 18.172 2.57599 16.772C1.77333 15.372 1.37199 13.832 1.37199 12.152C1.37199 10.3413 1.82933 8.764 2.74399 7.42C3.65866 6.05733 4.90933 5.012 6.49599 4.284C8.10133 3.556 9.89333 3.192 11.872 3.192C12.8613 3.192 13.7947 3.28533 14.672 3.472C15.5493 3.65867 16.2773 3.92933 16.856 4.284C17.0053 4.35867 17.0893 4.424 17.108 4.48C17.1267 4.536 17.1453 4.676 17.164 4.9L17.5 8.204C17.5 8.26 17.444 8.29733 17.332 8.316C17.2387 8.33467 17.1827 8.30667 17.164 8.232C16.3053 5.17067 14.364 3.64 11.34 3.64C9.86533 3.64 8.53066 3.976 7.33599 4.648C6.15999 5.30133 5.22666 6.244 4.53599 7.476C3.86399 8.68933 3.52799 10.108 3.52799 11.732C3.52799 13.3187 3.85466 14.812 4.50799 16.212C5.16133 17.612 6.14133 18.7507 7.44799 19.628C8.75466 20.4867 10.332 20.916 12.18 20.916C13.5053 20.916 14.4387 20.664 14.98 20.16C15.5213 19.6373 15.792 18.7507 15.792 17.5C15.792 16.5293 15.7267 15.8573 15.596 15.484C15.484 15.092 15.2133 14.8307 14.784 14.7C14.3733 14.5693 13.6453 14.504 12.6 14.504C12.488 14.504 12.432 14.4293 12.432 14.28C12.432 14.224 12.4413 14.1773 12.46 14.14C12.4973 14.084 12.5347 14.056 12.572 14.056C14.028 14.1493 15.204 14.196 16.1 14.196C16.9587 14.196 17.8827 14.168 18.872 14.112C18.9093 14.112 18.9373 14.14 18.956 14.196C18.9933 14.2333 19.012 14.2707 19.012 14.308C19.012 14.4387 18.9653 14.504 18.872 14.504C18.4053 14.4853 18.0787 14.5507 17.892 14.7C17.724 14.8307 17.612 15.1107 17.556 15.54C17.5 15.9507 17.472 16.6973 17.472 17.78C17.472 18.62 17.5 19.2173 17.556 19.572C17.6307 19.9267 17.668 20.1507 17.668 20.244C17.668 20.356 17.6493 20.4307 17.612 20.468C17.5747 20.5053 17.4907 20.5427 17.36 20.58C15.0453 21.084 13.0667 21.336 11.424 21.336Z" fill="url(#paint18_linear_342_13)"/>
<path d="M29.2563 21.364C28.1736 21.364 27.2123 21.1027 26.3723 20.58C25.5509 20.0387 24.9163 19.32 24.4683 18.424C24.0203 17.5093 23.7963 16.52 23.7963 15.456C23.7963 14.2427 24.0856 13.216 24.6643 12.376C25.2616 11.5173 26.0176 10.8827 26.9323 10.472C27.8656 10.0427 28.8083 9.828 29.7603 9.828C30.8616 9.828 31.8229 10.0987 32.6443 10.64C33.4656 11.1813 34.0909 11.9 34.5203 12.796C34.9683 13.6733 35.1923 14.6067 35.1923 15.596C35.1923 16.7533 34.9216 17.7707 34.3803 18.648C33.8389 19.5067 33.1109 20.1787 32.1963 20.664C31.3003 21.1307 30.3203 21.364 29.2563 21.364ZM30.0683 20.832C31.0949 20.832 31.8883 20.468 32.4483 19.74C33.0083 19.012 33.2883 17.892 33.2883 16.38C33.2883 15.2227 33.0923 14.1867 32.7003 13.272C32.3269 12.3573 31.8043 11.648 31.1323 11.144C30.4603 10.6213 29.6949 10.36 28.8363 10.36C27.8283 10.36 27.0443 10.724 26.4843 11.452C25.9429 12.18 25.6723 13.2253 25.6723 14.588C25.6723 15.7267 25.8589 16.772 26.2323 17.724C26.6056 18.676 27.1283 19.432 27.8003 19.992C28.4723 20.552 29.2283 20.832 30.0683 20.832Z" fill="url(#paint19_linear_342_13)"/>
<path d="M46.6867 9.94C47.0974 9.94 47.4894 10.052 47.8627 10.276C48.236 10.5 48.4227 10.7707 48.4227 11.088C48.4227 11.3307 48.3387 11.536 48.1707 11.704C48.0214 11.872 47.7974 11.956 47.4987 11.956C47.3307 11.956 47.1814 11.928 47.0507 11.872C46.9387 11.7973 46.7987 11.6947 46.6307 11.564C46.4627 11.4147 46.304 11.3027 46.1547 11.228C46.0054 11.1533 45.828 11.116 45.6227 11.116C45.38 11.116 45.1187 11.2187 44.8387 11.424C44.5774 11.6293 44.1574 12.068 43.5787 12.74V18.732C43.5787 19.292 43.644 19.7027 43.7747 19.964C43.924 20.2253 44.1854 20.412 44.5587 20.524C44.932 20.6173 45.5107 20.664 46.2947 20.664C46.3694 20.664 46.4067 20.72 46.4067 20.832C46.4067 20.944 46.3694 21 46.2947 21C45.6974 21 45.2214 20.9907 44.8667 20.972L42.7947 20.944L41.2547 20.972C41.012 20.9907 40.676 21 40.2467 21C40.1907 21 40.1627 20.944 40.1627 20.832C40.1627 20.72 40.1907 20.664 40.2467 20.664C40.7507 20.664 41.124 20.6173 41.3667 20.524C41.6094 20.412 41.768 20.2253 41.8427 19.964C41.936 19.7027 41.9827 19.292 41.9827 18.732V13.188C41.9827 12.5533 41.908 12.096 41.7587 11.816C41.6094 11.536 41.3574 11.396 41.0027 11.396C40.704 11.396 40.2 11.536 39.4907 11.816H39.4347C39.36 11.816 39.304 11.7787 39.2667 11.704C39.248 11.6107 39.276 11.5453 39.3507 11.508L42.5987 9.968L42.7667 9.94C42.9347 9.94 43.112 10.1547 43.2987 10.584C43.4854 11.0133 43.5787 11.564 43.5787 12.236V12.264C44.344 11.368 44.9507 10.7613 45.3987 10.444C45.8467 10.108 46.276 9.94 46.6867 9.94Z" fill="url(#paint20_linear_342_13)"/>
<path d="M60.7219 9.828C61.5246 9.828 62.2713 10.024 62.9619 10.416C63.6526 10.808 64.2033 11.396 64.6139 12.18C65.0246 12.9453 65.2299 13.888 65.2299 15.008C65.2299 16.352 64.9313 17.5093 64.3339 18.48C63.7553 19.432 62.9899 20.1507 62.0379 20.636C61.1046 21.1213 60.1153 21.364 59.0699 21.364C57.6326 21.364 56.3633 20.9533 55.2619 20.132L53.1339 21.14H53.0779C53.0033 21.14 52.9566 21.1027 52.9379 21.028C52.9193 20.9533 52.9379 20.8973 52.9939 20.86C53.5913 20.4493 54.0113 20.0667 54.2539 19.712C54.4966 19.3387 54.6179 18.8067 54.6179 18.116V4.284C54.6179 3.612 54.5433 3.12667 54.3939 2.828C54.2633 2.52933 54.0299 2.38 53.6939 2.38C53.4326 2.38 53.0126 2.50133 52.4339 2.744H52.3779C52.3219 2.744 52.2753 2.69733 52.2379 2.604C52.2193 2.51067 52.2379 2.45467 52.2939 2.436L55.7939 0.728L55.9339 0.700001C55.9713 0.700001 56.0179 0.728 56.0739 0.784C56.1486 0.821334 56.1859 0.868001 56.1859 0.924001V12.264C56.8953 11.5173 57.6046 10.9293 58.3139 10.5C59.0233 10.052 59.8259 9.828 60.7219 9.828ZM59.9379 20.832C61.0206 20.832 61.8606 20.412 62.4579 19.572C63.0739 18.732 63.3819 17.528 63.3819 15.96C63.3819 14.28 63.0553 12.992 62.4019 12.096C61.7486 11.2 60.8806 10.752 59.7979 10.752C59.1633 10.752 58.5566 10.9293 57.9779 11.284C57.3993 11.62 56.8019 12.096 56.1859 12.712V17.304C56.1859 18.1253 56.3819 18.7973 56.7739 19.32C57.1846 19.8427 57.6793 20.2253 58.2579 20.468C58.8366 20.7107 59.3966 20.832 59.9379 20.832Z" fill="url(#paint21_linear_342_13)"/>
<path d="M80.6794 19.488C80.754 19.488 80.8007 19.5347 80.8194 19.628C80.838 19.7027 80.81 19.7587 80.7354 19.796L77.8514 21.168C77.7767 21.2053 77.702 21.224 77.6274 21.224C77.3847 21.224 77.17 21.0653 76.9834 20.748C76.7967 20.412 76.6754 19.964 76.6194 19.404L75.1634 20.356C74.6967 20.6547 74.286 20.8693 73.9314 21C73.5767 21.1307 73.2034 21.196 72.8114 21.196C72.1207 21.196 71.5794 21.0187 71.1874 20.664C70.814 20.2907 70.6274 19.824 70.6274 19.264C70.6274 18.704 70.8514 18.2187 71.2994 17.808C71.7474 17.3973 72.4847 17.0053 73.5114 16.632L76.5914 15.484V13.58C76.5914 11.4893 76.0034 10.444 74.8274 10.444C74.1927 10.444 73.7074 10.6587 73.3714 11.088C73.054 11.4987 72.8394 11.9747 72.7274 12.516C72.6714 12.852 72.5687 13.132 72.4194 13.356C72.27 13.5613 72.018 13.664 71.6634 13.664C71.3647 13.664 71.1314 13.58 70.9634 13.412C70.814 13.244 70.7394 13.048 70.7394 12.824C70.7394 12.376 71.0287 11.928 71.6074 11.48C72.186 11.032 72.8767 10.6587 73.6794 10.36C74.482 10.0613 75.2007 9.912 75.8354 9.912C76.6007 9.912 77.1794 10.1547 77.5714 10.64C77.9634 11.1253 78.1594 11.8253 78.1594 12.74V17.976C78.1594 18.6293 78.2434 19.1053 78.4114 19.404C78.5794 19.7027 78.8594 19.852 79.2514 19.852C79.606 19.852 80.0634 19.7307 80.6234 19.488H80.6794ZM76.5914 19.012V18.872V15.876L73.9874 16.884C73.4647 17.0893 73.082 17.332 72.8394 17.612C72.6154 17.8733 72.5034 18.1907 72.5034 18.564C72.5034 19.012 72.6434 19.3947 72.9234 19.712C73.222 20.0107 73.6047 20.16 74.0714 20.16C74.4447 20.16 74.8927 20.0107 75.4154 19.712L76.5914 19.012Z" fill="url(#paint22_linear_342_13)"/>
<path d="M90.0578 21.336C88.8445 21.336 87.8272 21.0747 87.0058 20.552C86.1845 20.0107 85.5778 19.32 85.1858 18.48C84.7938 17.64 84.5978 16.7533 84.5978 15.82C84.5978 14.6253 84.8965 13.5893 85.4938 12.712C86.0912 11.816 86.8565 11.1347 87.7898 10.668C88.7418 10.1827 89.7125 9.94 90.7018 9.94C91.5232 9.94 92.2698 10.108 92.9418 10.444C93.6325 10.7613 93.9778 11.1627 93.9778 11.648C93.9778 11.8907 93.8845 12.1053 93.6978 12.292C93.5298 12.46 93.2965 12.544 92.9978 12.544C92.4938 12.544 92.0832 12.236 91.7658 11.62C91.5232 11.2467 91.2618 10.9667 90.9818 10.78C90.7018 10.5933 90.3005 10.5 89.7778 10.5C88.7325 10.5 87.9112 10.9107 87.3138 11.732C86.7352 12.5347 86.4458 13.6173 86.4458 14.98C86.4458 16.548 86.8378 17.836 87.6218 18.844C88.4058 19.852 89.5818 20.356 91.1498 20.356C92.2885 20.356 93.2405 20.048 94.0058 19.432H94.0338C94.0898 19.432 94.1365 19.46 94.1738 19.516C94.2298 19.572 94.2392 19.6187 94.2018 19.656C93.5485 20.2347 92.8858 20.664 92.2138 20.944C91.5605 21.2053 90.8418 21.336 90.0578 21.336Z" fill="url(#paint23_linear_342_13)"/>
<path d="M111.258 20.664C111.314 20.664 111.342 20.72 111.342 20.832C111.342 20.944 111.314 21 111.258 21C110.828 21 110.483 20.9907 110.222 20.972L108.71 20.944L107.198 20.972C106.936 20.9907 106.591 21 106.162 21C106.106 21 106.078 20.944 106.078 20.832C106.078 20.72 106.106 20.664 106.162 20.664C106.666 20.664 107.039 20.6173 107.282 20.524C107.524 20.412 107.692 20.2253 107.786 19.964C107.879 19.684 107.926 19.2733 107.926 18.732V14.28C107.926 13.1787 107.711 12.3667 107.282 11.844C106.871 11.3027 106.227 11.032 105.35 11.032C104.771 11.032 104.183 11.1907 103.586 11.508C102.988 11.8067 102.447 12.2267 101.962 12.768V18.732C101.962 19.2733 102.008 19.684 102.102 19.964C102.195 20.2253 102.363 20.412 102.606 20.524C102.848 20.6173 103.222 20.664 103.726 20.664C103.782 20.664 103.81 20.72 103.81 20.832C103.81 20.944 103.782 21 103.726 21C103.296 21 102.951 20.9907 102.69 20.972L101.178 20.944L99.6656 20.972C99.4042 20.9907 99.0589 21 98.6296 21C98.5736 21 98.5456 20.944 98.5456 20.832C98.5456 20.72 98.5736 20.664 98.6296 20.664C99.1336 20.664 99.5069 20.6173 99.7496 20.524C99.9922 20.412 100.16 20.2253 100.254 19.964C100.347 19.684 100.394 19.2733 100.394 18.732V4.256C100.394 3.584 100.328 3.09867 100.198 2.8C100.067 2.50133 99.8336 2.352 99.4976 2.352C99.2176 2.352 98.7882 2.48267 98.2096 2.744H98.1536C98.0976 2.744 98.0509 2.69733 98.0136 2.604C97.9762 2.51067 97.9949 2.45467 98.0696 2.436L101.626 0.700001H101.71C101.784 0.700001 101.84 0.728 101.878 0.784C101.934 0.821334 101.962 0.868001 101.962 0.924001V12.292C102.671 11.4707 103.371 10.8733 104.062 10.5C104.771 10.108 105.508 9.912 106.274 9.912C107.3 9.912 108.094 10.2013 108.654 10.78C109.214 11.3587 109.494 12.1987 109.494 13.3V18.732C109.494 19.2733 109.54 19.684 109.634 19.964C109.727 20.2253 109.895 20.412 110.138 20.524C110.38 20.6173 110.754 20.664 111.258 20.664Z" fill="url(#paint24_linear_342_13)"/>
<path d="M124.726 19.432C124.782 19.432 124.829 19.4693 124.866 19.544C124.922 19.6 124.932 19.656 124.894 19.712C123.662 20.7947 122.3 21.336 120.806 21.336C119.724 21.336 118.8 21.084 118.034 20.58C117.269 20.076 116.681 19.4133 116.27 18.592C115.878 17.7707 115.682 16.8933 115.682 15.96C115.682 14.8587 115.944 13.8507 116.466 12.936C116.989 12.0027 117.698 11.2747 118.594 10.752C119.509 10.2107 120.508 9.94 121.59 9.94C122.636 9.94 123.438 10.22 123.998 10.78C124.558 11.34 124.838 12.124 124.838 13.132C124.838 13.3933 124.81 13.58 124.754 13.692C124.717 13.804 124.642 13.86 124.53 13.86L117.586 13.888C117.549 14.2987 117.53 14.6347 117.53 14.896C117.53 16.52 117.913 17.836 118.678 18.844C119.444 19.852 120.517 20.356 121.898 20.356C122.458 20.356 122.934 20.2813 123.326 20.132C123.737 19.9827 124.194 19.7493 124.698 19.432H124.726ZM120.666 10.5C119.864 10.5 119.201 10.7707 118.678 11.312C118.156 11.8347 117.81 12.572 117.642 13.524L122.962 13.412C122.962 12.46 122.757 11.7413 122.346 11.256C121.936 10.752 121.376 10.5 120.666 10.5Z" fill="url(#paint25_linear_342_13)"/>
<path d="M140.972 10.192C141.009 10.192 141.028 10.248 141.028 10.36C141.028 10.472 141.009 10.528 140.972 10.528C140.505 10.528 140.104 10.6867 139.768 11.004C139.432 11.3027 139.115 11.8253 138.816 12.572L135.316 20.972C135.279 21.0653 135.176 21.112 135.008 21.112C134.84 21.112 134.737 21.0653 134.7 20.972L130.78 12.516C130.407 11.7133 130.089 11.1813 129.828 10.92C129.585 10.6587 129.277 10.528 128.904 10.528C128.848 10.528 128.82 10.472 128.82 10.36C128.82 10.248 128.848 10.192 128.904 10.192C129.277 10.192 129.567 10.2013 129.772 10.22L130.836 10.248L132.656 10.22C132.936 10.2013 133.309 10.192 133.776 10.192C133.832 10.192 133.86 10.248 133.86 10.36C133.86 10.472 133.832 10.528 133.776 10.528C132.656 10.528 132.096 10.752 132.096 11.2C132.096 11.3307 132.133 11.4707 132.208 11.62L135.624 18.844L138.256 12.432C138.387 12.0773 138.452 11.8067 138.452 11.62C138.452 11.2467 138.275 10.976 137.92 10.808C137.565 10.6213 137.005 10.528 136.24 10.528C136.203 10.528 136.184 10.472 136.184 10.36C136.184 10.248 136.203 10.192 136.24 10.192C136.744 10.192 137.127 10.2013 137.388 10.22L139.068 10.248L140.076 10.22C140.263 10.2013 140.561 10.192 140.972 10.192Z" fill="url(#paint26_linear_342_13)"/>
<defs>
<linearGradient id="paint0_linear_342_13" x1="247" y1="102" x2="228.684" y2="-28.9793" gradientUnits="userSpaceOnUse">
<stop stop-color="#DBBB95"/>
<stop offset="1" stop-color="#B4844B"/>
</linearGradient>
<linearGradient id="paint1_linear_342_13" x1="77.5231" y1="49.087" x2="203.518" y2="60.8247" gradientUnits="userSpaceOnUse">
<stop stop-color="#DBBB95"/>
<stop offset="1" stop-color="#B4844B"/>
</linearGradient>
<linearGradient id="paint2_linear_342_13" x1="77.5231" y1="49.087" x2="203.518" y2="60.8247" gradientUnits="userSpaceOnUse">
<stop stop-color="#DBBB95"/>
<stop offset="1" stop-color="#B4844B"/>
</linearGradient>
<linearGradient id="paint3_linear_342_13" x1="77.5231" y1="49.087" x2="203.518" y2="60.8247" gradientUnits="userSpaceOnUse">
<stop stop-color="#DBBB95"/>
<stop offset="1" stop-color="#B4844B"/>
</linearGradient>
<linearGradient id="paint4_linear_342_13" x1="77.5231" y1="49.087" x2="203.518" y2="60.8247" gradientUnits="userSpaceOnUse">
<stop stop-color="#DBBB95"/>
<stop offset="1" stop-color="#B4844B"/>
</linearGradient>
<linearGradient id="paint5_linear_342_13" x1="77.5231" y1="49.087" x2="203.518" y2="60.8247" gradientUnits="userSpaceOnUse">
<stop stop-color="#DBBB95"/>
<stop offset="1" stop-color="#B4844B"/>
</linearGradient>
<linearGradient id="paint6_linear_342_13" x1="77.5231" y1="49.087" x2="203.518" y2="60.8247" gradientUnits="userSpaceOnUse">
<stop stop-color="#DBBB95"/>
<stop offset="1" stop-color="#B4844B"/>
</linearGradient>
<linearGradient id="paint7_linear_342_13" x1="77.5231" y1="49.087" x2="203.518" y2="60.8247" gradientUnits="userSpaceOnUse">
<stop stop-color="#DBBB95"/>
<stop offset="1" stop-color="#B4844B"/>
</linearGradient>
<linearGradient id="paint8_linear_342_13" x1="77.5231" y1="49.087" x2="203.518" y2="60.8247" gradientUnits="userSpaceOnUse">
<stop stop-color="#DBBB95"/>
<stop offset="1" stop-color="#B4844B"/>
</linearGradient>
<linearGradient id="paint9_linear_342_13" x1="77.5231" y1="49.087" x2="203.518" y2="60.8247" gradientUnits="userSpaceOnUse">
<stop stop-color="#DBBB95"/>
<stop offset="1" stop-color="#B4844B"/>
</linearGradient>
<linearGradient id="paint10_linear_342_13" x1="77.5231" y1="49.087" x2="203.518" y2="60.8247" gradientUnits="userSpaceOnUse">
<stop stop-color="#DBBB95"/>
<stop offset="1" stop-color="#B4844B"/>
</linearGradient>
<linearGradient id="paint11_linear_342_13" x1="77.5231" y1="49.087" x2="203.518" y2="60.8247" gradientUnits="userSpaceOnUse">
<stop stop-color="#DBBB95"/>
<stop offset="1" stop-color="#B4844B"/>
</linearGradient>
<linearGradient id="paint12_linear_342_13" x1="150.576" y1="89.087" x2="228.633" y2="93.568" gradientUnits="userSpaceOnUse">
<stop stop-color="#DBBB95"/>
<stop offset="1" stop-color="#B4844B"/>
</linearGradient>
<linearGradient id="paint13_linear_342_13" x1="150.576" y1="89.087" x2="228.633" y2="93.568" gradientUnits="userSpaceOnUse">
<stop stop-color="#DBBB95"/>
<stop offset="1" stop-color="#B4844B"/>
</linearGradient>
<linearGradient id="paint14_linear_342_13" x1="150.576" y1="89.087" x2="228.633" y2="93.568" gradientUnits="userSpaceOnUse">
<stop stop-color="#DBBB95"/>
<stop offset="1" stop-color="#B4844B"/>
</linearGradient>
<linearGradient id="paint15_linear_342_13" x1="150.576" y1="89.087" x2="228.633" y2="93.568" gradientUnits="userSpaceOnUse">
<stop stop-color="#DBBB95"/>
<stop offset="1" stop-color="#B4844B"/>
</linearGradient>
<linearGradient id="paint16_linear_342_13" x1="150.576" y1="89.087" x2="228.633" y2="93.568" gradientUnits="userSpaceOnUse">
<stop stop-color="#DBBB95"/>
<stop offset="1" stop-color="#B4844B"/>
</linearGradient>
<linearGradient id="paint17_linear_342_13" x1="150.576" y1="89.087" x2="228.633" y2="93.568" gradientUnits="userSpaceOnUse">
<stop stop-color="#DBBB95"/>
<stop offset="1" stop-color="#B4844B"/>
</linearGradient>
<linearGradient id="paint18_linear_342_13" x1="26.5187" y1="8.08696" x2="143.797" y2="18.2449" gradientUnits="userSpaceOnUse">
<stop stop-color="#DBBB95"/>
<stop offset="1" stop-color="#B4844B"/>
</linearGradient>
<linearGradient id="paint19_linear_342_13" x1="26.5187" y1="8.08696" x2="143.797" y2="18.2449" gradientUnits="userSpaceOnUse">
<stop stop-color="#DBBB95"/>
<stop offset="1" stop-color="#B4844B"/>
</linearGradient>
<linearGradient id="paint20_linear_342_13" x1="26.5187" y1="8.08696" x2="143.797" y2="18.2449" gradientUnits="userSpaceOnUse">
<stop stop-color="#DBBB95"/>
<stop offset="1" stop-color="#B4844B"/>
</linearGradient>
<linearGradient id="paint21_linear_342_13" x1="26.5187" y1="8.08696" x2="143.797" y2="18.2449" gradientUnits="userSpaceOnUse">
<stop stop-color="#DBBB95"/>
<stop offset="1" stop-color="#B4844B"/>
</linearGradient>
<linearGradient id="paint22_linear_342_13" x1="26.5187" y1="8.08696" x2="143.797" y2="18.2449" gradientUnits="userSpaceOnUse">
<stop stop-color="#DBBB95"/>
<stop offset="1" stop-color="#B4844B"/>
</linearGradient>
<linearGradient id="paint23_linear_342_13" x1="26.5187" y1="8.08696" x2="143.797" y2="18.2449" gradientUnits="userSpaceOnUse">
<stop stop-color="#DBBB95"/>
<stop offset="1" stop-color="#B4844B"/>
</linearGradient>
<linearGradient id="paint24_linear_342_13" x1="26.5187" y1="8.08696" x2="143.797" y2="18.2449" gradientUnits="userSpaceOnUse">
<stop stop-color="#DBBB95"/>
<stop offset="1" stop-color="#B4844B"/>
</linearGradient>
<linearGradient id="paint25_linear_342_13" x1="26.5187" y1="8.08696" x2="143.797" y2="18.2449" gradientUnits="userSpaceOnUse">
<stop stop-color="#DBBB95"/>
<stop offset="1" stop-color="#B4844B"/>
</linearGradient>
<linearGradient id="paint26_linear_342_13" x1="26.5187" y1="8.08696" x2="143.797" y2="18.2449" gradientUnits="userSpaceOnUse">
<stop stop-color="#DBBB95"/>
<stop offset="1" stop-color="#B4844B"/>
</linearGradient>
</defs>
</svg>
